<?xml version="1.0" encoding="UTF-8" standalone="no"?>
<!-- Created with Inkscape (http://www.inkscape.org/) -->

<svg
   xmlns:osb="http://www.openswatchbook.org/uri/2009/osb"
   xmlns:dc="http://purl.org/dc/elements/1.1/"
   xmlns:cc="http://creativecommons.org/ns#"
   xmlns:rdf="http://www.w3.org/1999/02/22-rdf-syntax-ns#"
   xmlns:svg="http://www.w3.org/2000/svg"
   xmlns="http://www.w3.org/2000/svg"
   xmlns:xlink="http://www.w3.org/1999/xlink"
   xmlns:sodipodi="http://sodipodi.sourceforge.net/DTD/sodipodi-0.dtd"
   xmlns:inkscape="http://www.inkscape.org/namespaces/inkscape"
   id="svg8"
   version="1.1"
   viewBox="0 0 235 235"
   height="235mm"
   width="235mm"
   inkscape:version="0.92.5 (2060ec1f9f, 2020-04-08)"
   sodipodi:docname="ender3bedNoLogo.svg"
   inkscape:export-filename="/home/lemonorange/3dPrints/CrealityBedTexture.png"
   inkscape:export-xdpi="600"
   inkscape:export-ydpi="600">
  <defs
     id="defs2">
    <linearGradient
       inkscape:collect="always"
       id="linearGradient8754">
      <stop
         style="stop-color:#3f3f3f;stop-opacity:1"
         offset="0"
         id="stop8750" />
      <stop
         style="stop-color:#151515;stop-opacity:1"
         offset="1"
         id="stop8752" />
    </linearGradient>
    <linearGradient
       inkscape:collect="always"
       id="linearGradient8710"
       osb:paint="gradient">
      <stop
         style="stop-color:#1a1a1a;stop-opacity:1;"
         offset="0"
         id="stop8706" />
      <stop
         style="stop-color:#1a1a1a;stop-opacity:0;"
         offset="1"
         id="stop8708" />
    </linearGradient>
    <linearGradient
       id="linearGradient8702"
       osb:paint="solid">
      <stop
         style="stop-color:#4d4d4d;stop-opacity:1;"
         offset="0"
         id="stop8700" />
    </linearGradient>
    <radialGradient
       inkscape:collect="always"
       xlink:href="#linearGradient8754"
       id="radialGradient8756"
       cx="117.5"
       cy="179.49998"
       fx="117.5"
       fy="179.49998"
       r="117.5"
       gradientUnits="userSpaceOnUse"
       gradientTransform="matrix(1,-0.99999994,0.70710573,0.70710784,-126.92547,170.07413)" />
    <radialGradient
       inkscape:collect="always"
       xlink:href="#linearGradient8754"
       id="radialGradient8756-4"
       cx="117.5"
       cy="179.49998"
       fx="117.5"
       fy="179.49998"
       r="117.5"
       gradientUnits="userSpaceOnUse"
       gradientTransform="matrix(1,-0.99999995,0.70710572,0.70710784,-126.92547,108.07415)" />
    <clipPath
       clipPathUnits="userSpaceOnUse"
       id="clipPath9733">
      <g
         id="g9739">
        <rect
           y="205.10361"
           x="212.51202"
           height="21.281242"
           width="13.709265"
           id="rect9735"
           style="opacity:1;fill:#ffffff;fill-opacity:0.52582158;stroke:none;stroke-width:0.5;stroke-linecap:round;stroke-linejoin:miter;stroke-miterlimit:4;stroke-dasharray:none;stroke-dashoffset:0;stroke-opacity:0.8627451;paint-order:normal" />
        <rect
           y="214.3857"
           x="72.419548"
           height="10.967369"
           width="89.818748"
           id="rect9737"
           style="opacity:1;fill:#ffffff;fill-opacity:0.52582158;stroke:none;stroke-width:0.39747119;stroke-linecap:round;stroke-linejoin:miter;stroke-miterlimit:4;stroke-dasharray:none;stroke-dashoffset:0;stroke-opacity:0.8627451;paint-order:normal" />
      </g>
    </clipPath>
  </defs>
  <sodipodi:namedview
     id="base"
     pagecolor="#ffffff"
     bordercolor="#666666"
     borderopacity="1.0"
     inkscape:pageopacity="0.0"
     inkscape:pageshadow="2"
     inkscape:zoom="0.88133107"
     inkscape:cx="454.33699"
     inkscape:cy="488.76853"
     inkscape:document-units="mm"
     inkscape:current-layer="layer5"
     showgrid="false"
     units="mm"
     inkscape:object-paths="true"
     inkscape:snap-intersection-paths="true"
     inkscape:snap-object-midpoints="true"
     inkscape:snap-page="true"
     inkscape:snap-bbox="true"
     inkscape:snap-bbox-midpoints="true"
     inkscape:snap-bbox-edge-midpoints="false"
     inkscape:bbox-nodes="false"
     inkscape:bbox-paths="false"
     inkscape:snap-midpoints="true"
     inkscape:snap-smooth-nodes="true"
     inkscape:window-width="1720"
     inkscape:window-height="1385"
     inkscape:window-x="1720"
     inkscape:window-y="27"
     inkscape:window-maximized="1"
     inkscape:snap-global="false" />
  <metadata
     id="metadata5">
    <rdf:RDF>
      <cc:Work
         rdf:about="">
        <dc:format>image/svg+xml</dc:format>
        <dc:type
           rdf:resource="http://purl.org/dc/dcmitype/StillImage" />
        <dc:title></dc:title>
      </cc:Work>
    </rdf:RDF>
  </metadata>
  <g
     inkscape:label="BACKGROUND"
     inkscape:groupmode="layer"
     id="layer1"
     transform="translate(0,-61.999992)"
     style="display:inline">
    <rect
       style="fill:url(#radialGradient8756);fill-opacity:1;stroke:none;stroke-width:1;stroke-linecap:round;stroke-linejoin:miter;stroke-miterlimit:4;stroke-dasharray:none;stroke-dashoffset:0;stroke-opacity:0.8627451"
       id="rect815"
       width="235"
       height="235"
       x="-1.8679811e-08"
       y="61.999992"
       ry="0" />
  </g>
  <g
     inkscape:groupmode="layer"
     id="layer5"
     inkscape:label="GRID">
    <g
       id="g6699"
       inkscape:label="Grid_Polar:X5:Y5"
       transform="matrix(1.6867604,0,0,1.6867604,5.9278234,5.9278234)"
       style="fill:none;stroke:#ffffff">
      <g
         id="g6601"
         inkscape:label="MajorXGridlines"
         style="fill:none;stroke:#ececec">
        <path
           id="path6593"
           inkscape:label="MajorXDiv1"
           style="fill:none;stroke:#ececec;stroke-width:0.29202564;stroke-miterlimit:4;stroke-dasharray:none"
           d="M 26.458333,0 V 132.29167"
           inkscape:connector-curvature="0" />
        <path
           id="path6595"
           inkscape:label="MajorXDiv2"
           style="fill:none;stroke:#ececec;stroke-width:0.29202564;stroke-miterlimit:4;stroke-dasharray:none"
           d="M 52.916667,0 V 132.29167"
           inkscape:connector-curvature="0" />
        <path
           id="path6597"
           inkscape:label="MajorXDiv3"
           style="fill:none;stroke:#ececec;stroke-width:0.29202564;stroke-miterlimit:4;stroke-dasharray:none"
           d="M 79.375,0 V 132.29167"
           inkscape:connector-curvature="0" />
        <path
           id="path6599"
           inkscape:label="MajorXDiv4"
           style="fill:none;stroke:#ececec;stroke-width:0.29202564;stroke-miterlimit:4;stroke-dasharray:none"
           d="M 105.83333,0 V 132.29167"
           inkscape:connector-curvature="0" />
      </g>
      <g
         id="g6611"
         inkscape:label="MajorYGridlines"
         style="fill:none;stroke:#ffffff">
        <path
           id="path6603"
           inkscape:label="MajorYDiv1"
           style="fill:none;stroke:#ffffff;stroke-width:0.29202564;stroke-miterlimit:4;stroke-dasharray:none"
           d="M 0,26.458333 H 132.29167"
           inkscape:connector-curvature="0" />
        <path
           id="path6605"
           inkscape:label="MajorYDiv2"
           style="fill:none;stroke:#ffffff;stroke-width:0.29202564;stroke-miterlimit:4;stroke-dasharray:none"
           d="M 0,52.916667 H 132.29167"
           inkscape:connector-curvature="0" />
        <path
           id="path6607"
           inkscape:label="MajorYDiv3"
           style="fill:none;stroke:#ffffff;stroke-width:0.29202564;stroke-miterlimit:4;stroke-dasharray:none"
           d="M 0,79.375 H 132.29167"
           inkscape:connector-curvature="0" />
        <path
           id="path6609"
           inkscape:label="MajorYDiv4"
           style="fill:none;stroke:#ffffff;stroke-width:0.29202564;stroke-miterlimit:4;stroke-dasharray:none"
           d="M 0,105.83333 H 132.29167"
           inkscape:connector-curvature="0" />
      </g>
      <g
         id="g6653"
         inkscape:label="SubMinorXGridlines"
         style="fill:none;stroke:#ffffff">
        <path
           id="path6613"
           inkscape:label="SubminorXDiv0:0:1"
           style="fill:none;stroke:#ffffff;stroke-width:0.07937501"
           d="M 5.2916667,0 V 132.29167"
           inkscape:connector-curvature="0" />
        <path
           id="path6615"
           inkscape:label="SubminorXDiv0:0:2"
           style="fill:none;stroke:#ffffff;stroke-width:0.07937501"
           d="M 10.583333,0 V 132.29167"
           inkscape:connector-curvature="0" />
        <path
           id="path6617"
           inkscape:label="SubminorXDiv0:0:3"
           style="fill:none;stroke:#ffffff;stroke-width:0.07937501"
           d="M 15.875,0 V 132.29167"
           inkscape:connector-curvature="0" />
        <path
           id="path6619"
           inkscape:label="SubminorXDiv0:0:4"
           style="fill:none;stroke:#ffffff;stroke-width:0.07937501"
           d="M 21.166667,0 V 132.29167"
           inkscape:connector-curvature="0" />
        <path
           id="path6621"
           inkscape:label="SubminorXDiv1:0:1"
           style="fill:none;stroke:#ffffff;stroke-width:0.07937501"
           d="M 31.75,0 V 132.29167"
           inkscape:connector-curvature="0" />
        <path
           id="path6623"
           inkscape:label="SubminorXDiv1:0:2"
           style="fill:none;stroke:#ffffff;stroke-width:0.07937501"
           d="M 37.041667,0 V 132.29167"
           inkscape:connector-curvature="0" />
        <path
           id="path6625"
           inkscape:label="SubminorXDiv1:0:3"
           style="fill:none;stroke:#ffffff;stroke-width:0.07937501"
           d="M 42.333333,0 V 132.29167"
           inkscape:connector-curvature="0" />
        <path
           id="path6627"
           inkscape:label="SubminorXDiv1:0:4"
           style="fill:none;stroke:#ffffff;stroke-width:0.07937501"
           d="M 47.625,0 V 132.29167"
           inkscape:connector-curvature="0" />
        <path
           id="path6629"
           inkscape:label="SubminorXDiv2:0:1"
           style="fill:none;stroke:#ffffff;stroke-width:0.07937501"
           d="M 58.208333,0 V 132.29167"
           inkscape:connector-curvature="0" />
        <path
           id="path6631"
           inkscape:label="SubminorXDiv2:0:2"
           style="fill:none;stroke:#ffffff;stroke-width:0.07937501"
           d="M 63.5,0 V 132.29167"
           inkscape:connector-curvature="0" />
        <path
           id="path6633"
           inkscape:label="SubminorXDiv2:0:3"
           style="fill:none;stroke:#ffffff;stroke-width:0.07937501"
           d="M 68.791667,0 V 132.29167"
           inkscape:connector-curvature="0" />
        <path
           id="path6635"
           inkscape:label="SubminorXDiv2:0:4"
           style="fill:none;stroke:#ffffff;stroke-width:0.07937501"
           d="M 74.083333,0 V 132.29167"
           inkscape:connector-curvature="0" />
        <path
           id="path6637"
           inkscape:label="SubminorXDiv3:0:1"
           style="fill:none;stroke:#ffffff;stroke-width:0.07937501"
           d="M 84.666667,0 V 132.29167"
           inkscape:connector-curvature="0" />
        <path
           id="path6639"
           inkscape:label="SubminorXDiv3:0:2"
           style="fill:none;stroke:#ffffff;stroke-width:0.07937501"
           d="M 89.958333,0 V 132.29167"
           inkscape:connector-curvature="0" />
        <path
           id="path6641"
           inkscape:label="SubminorXDiv3:0:3"
           style="fill:none;stroke:#ffffff;stroke-width:0.07937501"
           d="M 95.25,0 V 132.29167"
           inkscape:connector-curvature="0" />
        <path
           id="path6643"
           inkscape:label="SubminorXDiv3:0:4"
           style="fill:none;stroke:#ffffff;stroke-width:0.07937501"
           d="M 100.54167,0 V 132.29167"
           inkscape:connector-curvature="0" />
        <path
           id="path6645"
           inkscape:label="SubminorXDiv4:0:1"
           style="fill:none;stroke:#ffffff;stroke-width:0.07937501"
           d="M 111.125,0 V 132.29167"
           inkscape:connector-curvature="0" />
        <path
           id="path6647"
           inkscape:label="SubminorXDiv4:0:2"
           style="fill:none;stroke:#ffffff;stroke-width:0.07937501"
           d="M 116.41667,0 V 132.29167"
           inkscape:connector-curvature="0" />
        <path
           id="path6649"
           inkscape:label="SubminorXDiv4:0:3"
           style="fill:none;stroke:#ffffff;stroke-width:0.07937501"
           d="M 121.70833,0 V 132.29167"
           inkscape:connector-curvature="0" />
        <path
           id="path6651"
           inkscape:label="SubminorXDiv4:0:4"
           style="fill:none;stroke:#ffffff;stroke-width:0.07937501"
           d="M 127,0 V 132.29167"
           inkscape:connector-curvature="0" />
      </g>
      <g
         id="g6695"
         inkscape:label="SubMinorYGridlines"
         style="fill:none;stroke:#ffffff">
        <path
           id="path6655"
           inkscape:label="SubminorXDiv0:0:1"
           style="fill:none;stroke:#ffffff;stroke-width:0.07937501"
           d="M 0,5.2916667 H 132.29167"
           inkscape:connector-curvature="0" />
        <path
           id="path6657"
           inkscape:label="SubminorXDiv0:0:2"
           style="fill:none;stroke:#ffffff;stroke-width:0.07937501"
           d="M 0,10.583333 H 132.29167"
           inkscape:connector-curvature="0" />
        <path
           id="path6659"
           inkscape:label="SubminorXDiv0:0:3"
           style="fill:none;stroke:#ffffff;stroke-width:0.07937501"
           d="M 0,15.875 H 132.29167"
           inkscape:connector-curvature="0" />
        <path
           id="path6661"
           inkscape:label="SubminorXDiv0:0:4"
           style="fill:none;stroke:#ffffff;stroke-width:0.07937501"
           d="M 0,21.166667 H 132.29167"
           inkscape:connector-curvature="0" />
        <path
           id="path6663"
           inkscape:label="SubminorXDiv1:0:1"
           style="fill:none;stroke:#ffffff;stroke-width:0.07937501"
           d="M 0,31.75 H 132.29167"
           inkscape:connector-curvature="0" />
        <path
           id="path6665"
           inkscape:label="SubminorXDiv1:0:2"
           style="fill:none;stroke:#ffffff;stroke-width:0.07937501"
           d="M 0,37.041667 H 132.29167"
           inkscape:connector-curvature="0" />
        <path
           id="path6667"
           inkscape:label="SubminorXDiv1:0:3"
           style="fill:none;stroke:#ffffff;stroke-width:0.07937501"
           d="M 0,42.333333 H 132.29167"
           inkscape:connector-curvature="0" />
        <path
           id="path6669"
           inkscape:label="SubminorXDiv1:0:4"
           style="fill:none;stroke:#ffffff;stroke-width:0.07937501"
           d="M 0,47.625 H 132.29167"
           inkscape:connector-curvature="0" />
        <path
           id="path6671"
           inkscape:label="SubminorXDiv2:0:1"
           style="fill:none;stroke:#ffffff;stroke-width:0.07937501"
           d="M 0,58.208333 H 132.29167"
           inkscape:connector-curvature="0" />
        <path
           id="path6673"
           inkscape:label="SubminorXDiv2:0:2"
           style="fill:none;stroke:#ffffff;stroke-width:0.07937501"
           d="M 0,63.5 H 132.29167"
           inkscape:connector-curvature="0" />
        <path
           id="path6675"
           inkscape:label="SubminorXDiv2:0:3"
           style="fill:none;stroke:#ffffff;stroke-width:0.07937501"
           d="M 0,68.791667 H 132.29167"
           inkscape:connector-curvature="0" />
        <path
           id="path6677"
           inkscape:label="SubminorXDiv2:0:4"
           style="fill:none;stroke:#ffffff;stroke-width:0.07937501"
           d="M 0,74.083333 H 132.29167"
           inkscape:connector-curvature="0" />
        <path
           id="path6679"
           inkscape:label="SubminorXDiv3:0:1"
           style="fill:none;stroke:#ffffff;stroke-width:0.07937501"
           d="M 0,84.666667 H 132.29167"
           inkscape:connector-curvature="0" />
        <path
           id="path6681"
           inkscape:label="SubminorXDiv3:0:2"
           style="fill:none;stroke:#ffffff;stroke-width:0.07937501"
           d="M 0,89.958333 H 132.29167"
           inkscape:connector-curvature="0" />
        <path
           id="path6683"
           inkscape:label="SubminorXDiv3:0:3"
           style="fill:none;stroke:#ffffff;stroke-width:0.07937501"
           d="M 0,95.25 H 132.29167"
           inkscape:connector-curvature="0" />
        <path
           id="path6685"
           inkscape:label="SubminorXDiv3:0:4"
           style="fill:none;stroke:#ffffff;stroke-width:0.07937501"
           d="M 0,100.54167 H 132.29167"
           inkscape:connector-curvature="0" />
        <path
           id="path6687"
           inkscape:label="SubminorXDiv4:0:1"
           style="fill:none;stroke:#ffffff;stroke-width:0.07937501"
           d="M 0,111.125 H 132.29167"
           inkscape:connector-curvature="0" />
        <path
           id="path6689"
           inkscape:label="SubminorXDiv4:0:2"
           style="fill:none;stroke:#ffffff;stroke-width:0.07937501"
           d="M 0,116.41667 H 132.29167"
           inkscape:connector-curvature="0" />
        <path
           id="path6691"
           inkscape:label="SubminorXDiv4:0:3"
           style="fill:none;stroke:#ffffff;stroke-width:0.07937501"
           d="M 0,121.70833 H 132.29167"
           inkscape:connector-curvature="0" />
        <path
           id="path6693"
           inkscape:label="SubminorXDiv4:0:4"
           style="fill:none;stroke:#ffffff;stroke-width:0.07937501"
           d="M 0,127 H 132.29167"
           inkscape:connector-curvature="0" />
      </g>
      <rect
         id="rect6697"
         inkscape:label="Border"
         y="0"
         x="0"
         width="132.29167"
         style="fill:none;stroke:#ffffff;stroke-width:0.4149967;stroke-miterlimit:4;stroke-dasharray:none"
         height="132.29167" />
    </g>
    <rect
       style="display:inline;fill:url(#radialGradient8756-4);fill-opacity:1;stroke:none;stroke-width:1;stroke-linecap:round;stroke-linejoin:miter;stroke-miterlimit:4;stroke-dasharray:none;stroke-dashoffset:0;stroke-opacity:0.8627451;opacity:1"
       id="rect815-2"
       width="235"
       height="235"
       x="-4.7492445e-06"
       y="3.7060545e-07"
       ry="0"
       clip-path="url(#clipPath9733)" />
  </g>
  <g
     inkscape:groupmode="layer"
     id="layer2"
     inkscape:label="CREALITY" />
  <g
     aria-label="CREALITY"
     transform="matrix(0.26458333,0,0,0.26458333,65.400061,113.32965)"
     style="font-style:normal;font-variant:normal;font-weight:normal;font-stretch:normal;font-size:96px;line-height:1.25;font-family:Montserrat;-inkscape-font-specification:Montserrat;letter-spacing:10px;word-spacing:0px;fill:#ffffff;fill-opacity:1;stroke:none"
     id="flowRoot818">
    <path
       d="m 67.573386,415.87201 q 3.253334,0 5.600001,-1.06666 2.346667,-1.12 4.906667,-3.52 l 4.053333,4.16 q -5.92,6.56 -14.400001,6.56 -8.426667,0 -14.026667,-5.44 -5.546667,-5.44 -5.546667,-13.76 0,-8.32 5.653334,-13.86667 5.706667,-5.54667 14.346667,-5.54667 8.693334,0 14.506668,6.4 l -4.000001,4.37334 q -2.666666,-2.56 -5.066667,-3.57334 -2.346666,-1.01333 -5.546667,-1.01333 -5.653333,0 -9.493333,3.68 -3.84,3.62667 -3.84,9.33333 0,5.65334 3.786666,9.49334 3.840001,3.78666 9.066667,3.78666 z"
       style="font-size:53.33333588px;fill:#ff2a2a"
       id="path7066"
       inkscape:connector-curvature="0" />
    <path
       d="m 124.57329,396.40535 q 0,9.22666 -8.05334,11.62666 l 9.76001,13.54667 h -8.00001 l -8.90666,-12.53333 h -8.26667 v 12.53333 h -6.293333 v -37.28 h 13.866663 q 8.53334,0 12.21334,2.88 3.68,2.88 3.68,9.22667 z m -15.62667,6.93333 q 5.33333,0 7.25333,-1.65333 1.92,-1.65334 1.92,-5.28 0,-3.68 -1.97333,-5.01334 -1.97333,-1.38666 -7.04,-1.38666 h -8 v 13.33333 z"
       style="font-style:normal;font-variant:normal;font-weight:normal;font-stretch:normal;font-size:53.33333588px;font-family:Montserrat;-inkscape-font-specification:Montserrat;letter-spacing:5px;fill:#f9f9f9"
       id="path7068"
       inkscape:connector-curvature="0" />
    <path
       d="m 164.82655,384.29868 v 5.92 h -19.89333 v 9.86667 h 17.86667 v 5.6 h -17.86667 v 9.97333 h 20.53333 v 5.92 h -26.82666 v -37.28 z"
       style="font-style:normal;font-variant:normal;font-weight:normal;font-stretch:normal;font-size:53.33333588px;font-family:Montserrat;-inkscape-font-specification:Montserrat;letter-spacing:5px;fill:#f9f9f9"
       id="path7070"
       inkscape:connector-curvature="0" />
    <path
       d="m 183.79985,413.09868 -3.73333,8.48 h -6.72 l 16.42667,-37.28 h 6.72 l 16.42666,37.28 h -6.72 l -3.73333,-8.48 z m 16.10667,-5.81333 -6.77333,-15.36 -6.77334,15.36 z"
       style="font-style:normal;font-variant:normal;font-weight:normal;font-stretch:normal;font-size:53.33333588px;font-family:Montserrat;-inkscape-font-specification:Montserrat;letter-spacing:5px;fill:#f9f9f9"
       id="path7072"
       inkscape:connector-curvature="0" />
    <path
       d="m 223.09312,421.57868 v -37.28 h 6.29333 v 31.30667 h 17.01334 v 5.97333 z"
       style="font-style:normal;font-variant:normal;font-weight:normal;font-stretch:normal;font-size:53.33333588px;font-family:Montserrat;-inkscape-font-specification:Montserrat;letter-spacing:5px;fill:#f9f9f9"
       id="path7074"
       inkscape:connector-curvature="0" />
    <path
       d="m 258.27978,384.29868 h 6.29333 v 37.28 h -6.29333 z"
       style="font-style:normal;font-variant:normal;font-weight:normal;font-stretch:normal;font-size:53.33333588px;font-family:Montserrat;-inkscape-font-specification:Montserrat;letter-spacing:5px;fill:#f9f9f9"
       id="path7076"
       inkscape:connector-curvature="0" />
    <path
       d="m 293.9997,390.05868 v 31.52 h -6.29333 v -31.52 H 276.3997 v -5.76 h 28.90667 v 5.76 z"
       style="font-style:normal;font-variant:normal;font-weight:normal;font-stretch:normal;font-size:53.33333588px;font-family:Montserrat;-inkscape-font-specification:Montserrat;letter-spacing:5px;fill:#f9f9f9"
       id="path7078"
       inkscape:connector-curvature="0" />
    <path
       d="m 331.7996,421.57868 h -6.4 v -14.72 l -13.86667,-22.56 h 6.88 l 10.18667,16.96 10.18666,-16.96 h 6.88 l -13.86666,22.56 z"
       style="font-style:normal;font-variant:normal;font-weight:normal;font-stretch:normal;font-size:53.33333588px;font-family:Montserrat;-inkscape-font-specification:Montserrat;letter-spacing:5px;fill:#f9f9f9"
       id="path7080"
       inkscape:connector-curvature="0" />
    <flowRoot
       xml:space="preserve"
       id="flowRoot7183"
       style="font-style:normal;font-weight:normal;font-size:40px;line-height:1.25;font-family:sans-serif;letter-spacing:0px;word-spacing:0px;fill:#000000;fill-opacity:1;stroke:none"><flowRegion
         id="flowRegion7185"><rect
           id="rect7187"
           width="613.48047"
           height="199.38115"
           x="198.52908"
           y="28.464277" /></flowRegion><flowPara
         id="flowPara7189"></flowPara></flowRoot>  </g>
  <g
     inkscape:groupmode="layer"
     id="layer4"
     inkscape:label="WARNING"
     sodipodi:insensitive="true">
    <path
       inkscape:connector-curvature="0"
       id="path7155"
       d="m 219.61687,210.1581 -4.25769,7.4736 h 8.30401 z"
       style="fill:#f9f9f9;stroke:none;stroke-width:0.32187063;stroke-linecap:round;stroke-linejoin:round;stroke-miterlimit:4;stroke-dasharray:none;stroke-opacity:1" />
    <g
       aria-label="WARNING
HOT SURFACE
DO NOT TOUCH"
       transform="matrix(0.26458333,0,0,0.26458333,-7.4362002,-5.0987514)"
       style="font-style:normal;font-weight:normal;font-size:5.33333349px;line-height:1.25;font-family:sans-serif;letter-spacing:0px;word-spacing:0px;fill:#000000;fill-opacity:1;stroke:none"
       id="flowRoot1012">
      <path
         d="m 845.28383,855.33932 0.66133,-2.144 h 0.86934 l 0.656,2.144 0.74133,-2.144 h 0.90133 l -1.30133,3.728 h -0.61867 l -0.816,-2.592 -0.81066,2.592 h -0.61867 l -1.30133,-3.728 h 0.90133 z"
         style="font-style:normal;font-variant:normal;font-weight:bold;font-stretch:normal;font-family:Montserrat;-inkscape-font-specification:'Montserrat Bold';text-align:center;text-anchor:middle;fill:#ffffff"
         id="path7083"
         inkscape:connector-curvature="0" />
      <path
         d="m 852.01449,856.92332 -0.34667,-0.80534 h -1.56267 l -0.34666,0.80534 h -0.88534 l 1.61067,-3.728 h 0.80533 l 1.61067,3.728 z m -1.12534,-2.61867 -0.46933,1.08267 h 0.93333 z"
         style="font-style:normal;font-variant:normal;font-weight:bold;font-stretch:normal;font-family:Montserrat;-inkscape-font-specification:'Montserrat Bold';text-align:center;text-anchor:middle;fill:#ffffff"
         id="path7085"
         inkscape:connector-curvature="0" />
      <path
         d="m 856.35582,854.43265 q 0,0.896 -0.70934,1.15733 l 0.944,1.33334 h -1.024 l -0.82666,-1.18934 h -0.576 v 1.18934 h -0.832 v -3.728 h 1.41333 q 0.86933,0 1.23733,0.29333 0.37334,0.29333 0.37334,0.944 z m -1.584,0.58133 q 0.42666,0 0.58133,-0.13866 0.15467,-0.13867 0.15467,-0.43734 0,-0.304 -0.16,-0.416 -0.16,-0.112 -0.56,-0.112 h -0.624 v 1.104 z"
         style="font-style:normal;font-variant:normal;font-weight:bold;font-stretch:normal;font-family:Montserrat;-inkscape-font-specification:'Montserrat Bold';text-align:center;text-anchor:middle;fill:#ffffff"
         id="path7087"
         inkscape:connector-curvature="0" />
      <path
         d="m 859.81714,853.19532 h 0.832 v 3.728 h -0.832 l -1.776,-2.336 v 2.336 h -0.832 v -3.728 h 0.77867 l 1.82933,2.4 z"
         style="font-style:normal;font-variant:normal;font-weight:bold;font-stretch:normal;font-family:Montserrat;-inkscape-font-specification:'Montserrat Bold';text-align:center;text-anchor:middle;fill:#ffffff"
         id="path7089"
         inkscape:connector-curvature="0" />
      <path
         d="m 861.56647,853.19532 h 0.832 v 3.728 h -0.832 z"
         style="font-style:normal;font-variant:normal;font-weight:bold;font-stretch:normal;font-family:Montserrat;-inkscape-font-specification:'Montserrat Bold';text-align:center;text-anchor:middle;fill:#ffffff"
         id="path7091"
         inkscape:connector-curvature="0" />
      <path
         d="m 865.9238,853.19532 h 0.832 v 3.728 h -0.832 l -1.776,-2.336 v 2.336 h -0.832 v -3.728 h 0.77867 l 1.82933,2.4 z"
         style="font-style:normal;font-variant:normal;font-weight:bold;font-stretch:normal;font-family:Montserrat;-inkscape-font-specification:'Montserrat Bold';text-align:center;text-anchor:middle;fill:#ffffff"
         id="path7093"
         inkscape:connector-curvature="0" />
      <path
         d="m 870.09447,855.02465 h 0.83733 v 1.32267 q -0.55467,0.61866 -1.536,0.61866 -0.82133,0 -1.38133,-0.544 -0.55467,-0.544 -0.55467,-1.37066 0,-0.832 0.56533,-1.38667 0.57067,-0.55467 1.37067,-0.55467 0.80533,0 1.39733,0.528 l -0.432,0.624 q -0.25066,-0.21866 -0.464,-0.29866 -0.208,-0.0853 -0.45333,-0.0853 -0.47467,0 -0.8,0.32534 -0.32533,0.32 -0.32533,0.848 0,0.528 0.30933,0.848 0.31467,0.31466 0.74667,0.31466 0.432,0 0.72,-0.16533 z"
         style="font-style:normal;font-variant:normal;font-weight:bold;font-stretch:normal;font-family:Montserrat;-inkscape-font-specification:'Montserrat Bold';text-align:center;text-anchor:middle;fill:#ffffff"
         id="path7095"
         inkscape:connector-curvature="0" />
      <path
         d="m 838.50252,863.77305 v -3.728 h 0.62933 v 1.616 h 1.85067 v -1.616 h 0.62933 v 3.728 h -0.62933 v -1.52534 h -1.85067 v 1.52534 z"
         style="font-style:normal;font-variant:normal;font-weight:normal;font-stretch:normal;font-family:Montserrat;-inkscape-font-specification:Montserrat;text-align:center;text-anchor:middle;fill:#ffffff"
         id="path7097"
         inkscape:connector-curvature="0" />
      <path
         d="m 845.30251,860.92505 q -0.37866,-0.39467 -0.93333,-0.39467 -0.55467,0 -0.93867,0.39467 -0.37866,0.39466 -0.37866,0.96 0,0.56 0.37866,0.95466 0.384,0.39467 0.93867,0.39467 0.55467,0 0.93333,-0.39467 0.384,-0.39466 0.384,-0.95466 0,-0.56534 -0.384,-0.96 z m 0.464,2.336 q -0.56533,0.54933 -1.39733,0.54933 -0.832,0 -1.39733,-0.54933 -0.56534,-0.55467 -0.56534,-1.376 0,-0.82667 0.56534,-1.376 0.56533,-0.55467 1.39733,-0.55467 0.832,0 1.39733,0.55467 0.56534,0.54933 0.56534,1.376 0,0.82133 -0.56534,1.376 z"
         style="font-style:normal;font-variant:normal;font-weight:normal;font-stretch:normal;font-family:Montserrat;-inkscape-font-specification:Montserrat;text-align:center;text-anchor:middle;fill:#ffffff"
         id="path7099"
         inkscape:connector-curvature="0" />
      <path
         d="m 848.43317,860.62105 v 3.152 h -0.62934 v -3.152 h -1.13066 v -0.576 h 2.89066 v 0.576 z"
         style="font-style:normal;font-variant:normal;font-weight:normal;font-stretch:normal;font-family:Montserrat;-inkscape-font-specification:Montserrat;text-align:center;text-anchor:middle;fill:#ffffff"
         id="path7101"
         inkscape:connector-curvature="0" />
      <path
         d="m 852.83315,860.53571 q -0.272,0 -0.448,0.112 -0.176,0.112 -0.176,0.34134 0,0.224 0.176,0.34666 0.176,0.11734 0.74666,0.256 0.576,0.13867 0.864,0.38934 0.29334,0.25066 0.29334,0.74133 0,0.48533 -0.368,0.78933 -0.368,0.304 -0.96534,0.304 -0.87466,0 -1.552,-0.60266 l 0.39467,-0.47467 q 0.56533,0.49067 1.17333,0.49067 0.304,0 0.48,-0.128 0.18134,-0.13334 0.18134,-0.34667 0,-0.21867 -0.17067,-0.336 -0.16533,-0.12267 -0.576,-0.21867 -0.41067,-0.10133 -0.624,-0.18133 -0.21333,-0.0853 -0.37867,-0.21867 -0.33066,-0.25066 -0.33066,-0.768 0,-0.51733 0.37333,-0.79466 0.37867,-0.28267 0.93333,-0.28267 0.35734,0 0.70934,0.11733 0.352,0.11734 0.608,0.33067 l -0.336,0.47467 q -0.16534,-0.14934 -0.448,-0.24534 -0.28267,-0.096 -0.56,-0.096 z"
         style="font-style:normal;font-variant:normal;font-weight:normal;font-stretch:normal;font-family:Montserrat;-inkscape-font-specification:Montserrat;text-align:center;text-anchor:middle;fill:#ffffff"
         id="path7103"
         inkscape:connector-curvature="0" />
      <path
         d="m 855.90514,862.91971 q 0.256,0.29867 0.69334,0.29867 0.43733,0 0.69333,-0.29867 0.256,-0.29866 0.256,-0.81066 v -2.064 h 0.62933 v 2.09066 q 0,0.80534 -0.44266,1.24267 -0.44267,0.432 -1.136,0.432 -0.69334,0 -1.136,-0.432 -0.44267,-0.43733 -0.44267,-1.24267 v -2.09066 h 0.62933 v 2.064 q 0,0.512 0.256,0.81066 z"
         style="font-style:normal;font-variant:normal;font-weight:normal;font-stretch:normal;font-family:Montserrat;-inkscape-font-specification:Montserrat;text-align:center;text-anchor:middle;fill:#ffffff"
         id="path7105"
         inkscape:connector-curvature="0" />
      <path
         d="m 862.13981,861.25571 q 0,0.92267 -0.80534,1.16267 l 0.976,1.35467 h -0.8 l -0.89066,-1.25334 h -0.82667 v 1.25334 h -0.62933 v -3.728 h 1.38666 q 0.85334,0 1.22134,0.288 0.368,0.288 0.368,0.92266 z m -1.56267,0.69334 q 0.53333,0 0.72533,-0.16534 0.192,-0.16533 0.192,-0.528 0,-0.368 -0.19733,-0.50133 -0.19733,-0.13867 -0.704,-0.13867 h -0.8 v 1.33334 z"
         style="font-style:normal;font-variant:normal;font-weight:normal;font-stretch:normal;font-family:Montserrat;-inkscape-font-specification:Montserrat;text-align:center;text-anchor:middle;fill:#ffffff"
         id="path7107"
         inkscape:connector-curvature="0" />
      <path
         d="m 863.6758,860.63171 v 1.024 h 1.65333 v 0.58134 h -1.65333 v 1.536 h -0.62933 v -3.728 h 2.48533 l -0.005,0.58666 z"
         style="font-style:normal;font-variant:normal;font-weight:normal;font-stretch:normal;font-family:Montserrat;-inkscape-font-specification:Montserrat;text-align:center;text-anchor:middle;fill:#ffffff"
         id="path7109"
         inkscape:connector-curvature="0" />
      <path
         d="m 866.56645,862.92505 -0.37333,0.848 h -0.672 l 1.64267,-3.728 h 0.672 l 1.64266,3.728 h -0.672 l -0.37333,-0.848 z m 1.61067,-0.58134 -0.67733,-1.536 -0.67734,1.536 z"
         style="font-style:normal;font-variant:normal;font-weight:normal;font-stretch:normal;font-family:Montserrat;-inkscape-font-specification:Montserrat;text-align:center;text-anchor:middle;fill:#ffffff"
         id="path7111"
         inkscape:connector-curvature="0" />
      <path
         d="m 871.69711,863.20238 q 0.32534,0 0.56,-0.10667 0.23467,-0.112 0.49067,-0.352 l 0.40533,0.416 q -0.592,0.656 -1.44,0.656 -0.84266,0 -1.40266,-0.544 -0.55467,-0.544 -0.55467,-1.376 0,-0.832 0.56533,-1.38666 0.57067,-0.55467 1.43467,-0.55467 0.86933,0 1.45067,0.64 l -0.4,0.43733 q -0.26667,-0.256 -0.50667,-0.35733 -0.23467,-0.10133 -0.55467,-0.10133 -0.56533,0 -0.94933,0.368 -0.384,0.36266 -0.384,0.93333 0,0.56533 0.37867,0.94933 0.384,0.37867 0.90666,0.37867 z"
         style="font-style:normal;font-variant:normal;font-weight:normal;font-stretch:normal;font-family:Montserrat;-inkscape-font-specification:Montserrat;text-align:center;text-anchor:middle;fill:#ffffff"
         id="path7113"
         inkscape:connector-curvature="0" />
      <path
         d="m 876.53977,860.04505 v 0.592 h -1.98934 v 0.98666 h 1.78667 v 0.56 h -1.78667 v 0.99734 h 2.05334 v 0.592 h -2.68267 v -3.728 z"
         style="font-style:normal;font-variant:normal;font-weight:normal;font-stretch:normal;font-family:Montserrat;-inkscape-font-specification:Montserrat;text-align:center;text-anchor:middle;fill:#ffffff"
         id="path7115"
         inkscape:connector-curvature="0" />
      <path
         d="m 837.5372,866.89478 q 1.00266,0 1.54133,0.49067 0.53867,0.48533 0.53867,1.35466 0,0.86934 -0.52267,1.376 -0.52267,0.50667 -1.6,0.50667 h -1.23733 v -3.728 z m 1.44533,1.86133 q 0,-1.28 -1.46667,-1.28 h -0.62933 v 2.55467 h 0.69867 q 0.67733,0 1.03466,-0.32 0.36267,-0.32533 0.36267,-0.95467 z"
         style="font-style:normal;font-variant:normal;font-weight:normal;font-stretch:normal;font-family:Montserrat;-inkscape-font-specification:Montserrat;text-align:center;text-anchor:middle;fill:#ffffff"
         id="path7117"
         inkscape:connector-curvature="0" />
      <path
         d="m 843.08386,867.77478 q -0.37867,-0.39467 -0.93333,-0.39467 -0.55467,0 -0.93867,0.39467 -0.37867,0.39467 -0.37867,0.96 0,0.56 0.37867,0.95467 0.384,0.39466 0.93867,0.39466 0.55466,0 0.93333,-0.39466 0.384,-0.39467 0.384,-0.95467 0,-0.56533 -0.384,-0.96 z m 0.464,2.336 q -0.56533,0.54933 -1.39733,0.54933 -0.832,0 -1.39734,-0.54933 -0.56533,-0.55467 -0.56533,-1.376 0,-0.82667 0.56533,-1.376 0.56534,-0.55467 1.39734,-0.55467 0.832,0 1.39733,0.55467 0.56533,0.54933 0.56533,1.376 0,0.82133 -0.56533,1.376 z"
         style="font-style:normal;font-variant:normal;font-weight:normal;font-stretch:normal;font-family:Montserrat;-inkscape-font-specification:Montserrat;text-align:center;text-anchor:middle;fill:#ffffff"
         id="path7119"
         inkscape:connector-curvature="0" />
      <path
         d="m 849.16384,866.89478 h 0.62934 v 3.728 h -0.68267 l -2.112,-2.72 v 2.72 h -0.62933 v -3.728 h 0.62933 l 2.16533,2.784 z"
         style="font-style:normal;font-variant:normal;font-weight:normal;font-stretch:normal;font-family:Montserrat;-inkscape-font-specification:Montserrat;text-align:center;text-anchor:middle;fill:#ffffff"
         id="path7121"
         inkscape:connector-curvature="0" />
      <path
         d="m 853.48383,867.77478 q -0.37866,-0.39467 -0.93333,-0.39467 -0.55467,0 -0.93867,0.39467 -0.37866,0.39467 -0.37866,0.96 0,0.56 0.37866,0.95467 0.384,0.39466 0.93867,0.39466 0.55467,0 0.93333,-0.39466 0.384,-0.39467 0.384,-0.95467 0,-0.56533 -0.384,-0.96 z m 0.464,2.336 q -0.56533,0.54933 -1.39733,0.54933 -0.832,0 -1.39733,-0.54933 -0.56534,-0.55467 -0.56534,-1.376 0,-0.82667 0.56534,-1.376 0.56533,-0.55467 1.39733,-0.55467 0.832,0 1.39733,0.55467 0.56534,0.54933 0.56534,1.376 0,0.82133 -0.56534,1.376 z"
         style="font-style:normal;font-variant:normal;font-weight:normal;font-stretch:normal;font-family:Montserrat;-inkscape-font-specification:Montserrat;text-align:center;text-anchor:middle;fill:#ffffff"
         id="path7123"
         inkscape:connector-curvature="0" />
      <path
         d="m 856.61449,867.47078 v 3.152 h -0.62934 v -3.152 h -1.13066 v -0.576 h 2.89066 v 0.576 z"
         style="font-style:normal;font-variant:normal;font-weight:normal;font-stretch:normal;font-family:Montserrat;-inkscape-font-specification:Montserrat;text-align:center;text-anchor:middle;fill:#ffffff"
         id="path7125"
         inkscape:connector-curvature="0" />
      <path
         d="m 861.29713,867.47078 v 3.152 h -0.62933 v -3.152 h -1.13067 v -0.576 h 2.89067 v 0.576 z"
         style="font-style:normal;font-variant:normal;font-weight:normal;font-stretch:normal;font-family:Montserrat;-inkscape-font-specification:Montserrat;text-align:center;text-anchor:middle;fill:#ffffff"
         id="path7127"
         inkscape:connector-curvature="0" />
      <path
         d="m 865.66512,867.77478 q -0.37867,-0.39467 -0.93333,-0.39467 -0.55467,0 -0.93867,0.39467 -0.37867,0.39467 -0.37867,0.96 0,0.56 0.37867,0.95467 0.384,0.39466 0.93867,0.39466 0.55466,0 0.93333,-0.39466 0.384,-0.39467 0.384,-0.95467 0,-0.56533 -0.384,-0.96 z m 0.464,2.336 q -0.56533,0.54933 -1.39733,0.54933 -0.832,0 -1.39734,-0.54933 -0.56533,-0.55467 -0.56533,-1.376 0,-0.82667 0.56533,-1.376 0.56534,-0.55467 1.39734,-0.55467 0.832,0 1.39733,0.55467 0.56533,0.54933 0.56533,1.376 0,0.82133 -0.56533,1.376 z"
         style="font-style:normal;font-variant:normal;font-weight:normal;font-stretch:normal;font-family:Montserrat;-inkscape-font-specification:Montserrat;text-align:center;text-anchor:middle;fill:#ffffff"
         id="path7129"
         inkscape:connector-curvature="0" />
      <path
         d="m 868.32644,869.76945 q 0.256,0.29866 0.69334,0.29866 0.43733,0 0.69333,-0.29866 0.256,-0.29867 0.256,-0.81067 v -2.064 h 0.62933 v 2.09067 q 0,0.80533 -0.44266,1.24266 -0.44267,0.432 -1.136,0.432 -0.69334,0 -1.136,-0.432 -0.44267,-0.43733 -0.44267,-1.24266 v -2.09067 h 0.62933 v 2.064 q 0,0.512 0.256,0.81067 z"
         style="font-style:normal;font-variant:normal;font-weight:normal;font-stretch:normal;font-family:Montserrat;-inkscape-font-specification:Montserrat;text-align:center;text-anchor:middle;fill:#ffffff"
         id="path7131"
         inkscape:connector-curvature="0" />
      <path
         d="m 873.28644,870.05211 q 0.32533,0 0.56,-0.10666 0.23467,-0.112 0.49067,-0.352 l 0.40533,0.416 q -0.592,0.656 -1.44,0.656 -0.84267,0 -1.40267,-0.544 -0.55466,-0.544 -0.55466,-1.376 0,-0.832 0.56533,-1.38667 0.57067,-0.55467 1.43467,-0.55467 0.86933,0 1.45066,0.64 l -0.4,0.43734 q -0.26666,-0.256 -0.50666,-0.35734 -0.23467,-0.10133 -0.55467,-0.10133 -0.56533,0 -0.94933,0.368 -0.384,0.36267 -0.384,0.93333 0,0.56534 0.37866,0.94934 0.384,0.37866 0.90667,0.37866 z"
         style="font-style:normal;font-variant:normal;font-weight:normal;font-stretch:normal;font-family:Montserrat;-inkscape-font-specification:Montserrat;text-align:center;text-anchor:middle;fill:#ffffff"
         id="path7133"
         inkscape:connector-curvature="0" />
      <path
         d="m 875.51043,870.62278 v -3.728 h 0.62933 v 1.616 h 1.85067 v -1.616 h 0.62933 v 3.728 h -0.62933 v -1.52533 h -1.85067 v 1.52533 z"
         style="font-style:normal;font-variant:normal;font-weight:normal;font-stretch:normal;font-family:Montserrat;-inkscape-font-specification:Montserrat;text-align:center;text-anchor:middle;fill:#ffffff"
         id="path7135"
         inkscape:connector-curvature="0" />
    </g>
    <flowRoot
       xml:space="preserve"
       id="flowRoot1020"
       style="font-style:normal;font-weight:normal;font-size:40px;line-height:1.25;font-family:sans-serif;letter-spacing:0px;word-spacing:0px;fill:#000000;fill-opacity:1;stroke:none"
       transform="scale(0.26458333)"><flowRegion
         id="flowRegion1022"><rect
           id="rect1024"
           width="84.247566"
           height="43.542095"
           x="800.49371"
           y="863.0849" /></flowRegion><flowPara
         id="flowPara1026" /></flowRoot>    <path
       style="fill:none;stroke:#f9f9f9;stroke-width:0.40000001;stroke-linecap:round;stroke-linejoin:round;stroke-miterlimit:4;stroke-dasharray:none;stroke-opacity:1"
       d="m 219.60273,208.91936 -5.29118,9.28771 h 10.31967 z"
       id="path7138"
       inkscape:connector-curvature="0" />
    <path
       style="fill:#000000;stroke:#000000;stroke-width:0.2810466px;stroke-linecap:round;stroke-linejoin:miter;stroke-opacity:1"
       d="m 217.19167,216.6216 h 4.78457"
       id="path7159"
       inkscape:connector-curvature="0" />
    <path
       style="fill:none;stroke:#000000;stroke-width:0.26458332px;stroke-linecap:round;stroke-linejoin:miter;stroke-opacity:1"
       d="m 219.47923,216.1308 c 0,0 0.16432,-0.27983 0.15494,-0.4956 -0.009,-0.21578 -0.24473,-0.51813 -0.26819,-0.97313 -0.0234,-0.455 0.29766,-1.30845 0.29766,-1.30845"
       id="path7162"
       inkscape:connector-curvature="0"
       sodipodi:nodetypes="cccc" />
    <path
       sodipodi:nodetypes="cccc"
       inkscape:connector-curvature="0"
       id="path7164"
       d="m 218.41783,216.1308 c 0,0 0.16432,-0.27983 0.15494,-0.4956 -0.009,-0.21578 -0.24473,-0.51813 -0.26819,-0.97313 -0.0234,-0.455 0.29766,-1.30845 0.29766,-1.30845"
       style="fill:none;stroke:#000000;stroke-width:0.26458332px;stroke-linecap:round;stroke-linejoin:miter;stroke-opacity:1" />
    <path
       style="fill:none;stroke:#000000;stroke-width:0.26458332px;stroke-linecap:round;stroke-linejoin:miter;stroke-opacity:1"
       d="m 220.47429,216.1308 c 0,0 0.16432,-0.27983 0.15494,-0.4956 -0.009,-0.21578 -0.24473,-0.51813 -0.26819,-0.97313 -0.0234,-0.455 0.29766,-1.30845 0.29766,-1.30845"
       id="path7166"
       inkscape:connector-curvature="0"
       sodipodi:nodetypes="cccc" />
  </g>
</svg>
