<?xml version="1.0" encoding="UTF-8" standalone="no"?>
<!-- Created with Inkscape (http://www.inkscape.org/) -->

<svg
   width="111.13447"
   height="112.72585"
   viewBox="0 0 29.404328 29.825381"
   version="1.1"
   id="svg5"
   sodipodi:docname="df_logo.svg"
   inkscape:export-filename="/Users/lemonorange/websites/mywebsite/assets/deepfusionBG.png"
   inkscape:export-xdpi="132"
   inkscape:export-ydpi="132"
   inkscape:version="1.1 (c4e8f9e, 2021-05-24)"
   xmlns:inkscape="http://www.inkscape.org/namespaces/inkscape"
   xmlns:sodipodi="http://sodipodi.sourceforge.net/DTD/sodipodi-0.dtd"
   xmlns:xlink="http://www.w3.org/1999/xlink"
   xmlns="http://www.w3.org/2000/svg"
   xmlns:svg="http://www.w3.org/2000/svg">
  <sodipodi:namedview
     id="namedview7"
     pagecolor="#505050"
     bordercolor="#ffffff"
     borderopacity="1"
     inkscape:pageshadow="0"
     inkscape:pageopacity="0"
     inkscape:pagecheckerboard="1"
     inkscape:document-units="px"
     showgrid="false"
     units="px"
     inkscape:snap-page="true"
     inkscape:snap-global="true"
     inkscape:zoom="2.197002"
     inkscape:cx="42.557994"
     inkscape:cy="60.53704"
     inkscape:window-width="1440"
     inkscape:window-height="872"
     inkscape:window-x="0"
     inkscape:window-y="28"
     inkscape:window-maximized="0"
     inkscape:current-layer="layer1"
     fit-margin-top="0"
     fit-margin-left="0"
     fit-margin-right="0"
     fit-margin-bottom="0" />
  <defs
     id="defs2">
    <linearGradient
       inkscape:collect="always"
       id="linearGradient23574">
      <stop
         style="stop-color:#ff8509;stop-opacity:1"
         offset="0"
         id="stop23568" />
      <stop
         style="stop-color:#ff09c7;stop-opacity:1"
         offset="0.62080818"
         id="stop23570" />
      <stop
         style="stop-color:#8a07ff;stop-opacity:1"
         offset="1"
         id="stop23572" />
    </linearGradient>
    <linearGradient
       id="linearGradient1820">
      <stop
         style="stop-color:#ff8900;stop-opacity:1"
         offset="0"
         id="stop1816" />
      <stop
         style="stop-color:#ff477e;stop-opacity:1"
         offset="0.47171944"
         id="stop1824" />
      <stop
         style="stop-color:#ce00ff;stop-opacity:1"
         offset="1"
         id="stop1818" />
    </linearGradient>
    <linearGradient
       xlink:href="#linearGradient1820"
       id="linearGradient1822"
       x1="123.6694"
       y1="-3.6604049"
       x2="8.6280975"
       y2="122.88503"
       gradientUnits="userSpaceOnUse"
       gradientTransform="matrix(0.37666595,0,0,0.37666595,120.36772,80.320383)" />
    <filter
       inkscape:collect="always"
       style="color-interpolation-filters:sRGB"
       id="filter1873"
       x="-4.1432126e-05"
       y="-4.0847165e-05"
       width="1.0000829"
       height="1.0000817">
      <feGaussianBlur
         inkscape:collect="always"
         stdDeviation="0.00086845619"
         id="feGaussianBlur1875" />
    </filter>
    <linearGradient
       inkscape:collect="always"
       xlink:href="#linearGradient23574"
       id="linearGradient17155"
       x1="123.876"
       y1="122.97986"
       x2="169.36067"
       y2="101.53003"
       gradientUnits="userSpaceOnUse" />
  </defs>
  <g
     inkscape:groupmode="layer"
     id="layer3"
     inkscape:label="bg"
     style="display:none"
     sodipodi:insensitive="true"
     transform="translate(-130.81867,-90.920641)">
    <rect
       style="fill:#f3f3f3;fill-opacity:1;stroke:none;stroke-width:0.529167;stroke-linecap:round;stroke-linejoin:round;stroke-miterlimit:4;stroke-dasharray:none"
       id="rect1149"
       width="291.04166"
       height="211.66666"
       x="-1.6848375e-06"
       y="0"
       ry="0" />
  </g>
  <g
     inkscape:groupmode="layer"
     id="layer2"
     inkscape:label="logo"
     style="display:inline;opacity:1"
     transform="translate(-130.81867,-90.920641)">
    <text
       xml:space="preserve"
       style="font-style:normal;font-weight:normal;font-size:10.5833px;line-height:1.25;font-family:sans-serif;fill:#000000;fill-opacity:1;stroke:none;stroke-width:0.264583"
       x="68.152481"
       y="101.68784"
       id="text4701"><tspan
         sodipodi:role="line"
         id="tspan4699"
         style="stroke-width:0.264583"
         x="68.152481"
         y="101.68784" /></text>
  </g>
  <g
     inkscape:groupmode="layer"
     id="layer4"
     inkscape:label="logo_groove_shadow"
     transform="translate(-130.81867,-90.920641)" />
  <g
     inkscape:label="content"
     inkscape:groupmode="layer"
     id="layer1"
     transform="translate(-130.81867,-90.920641)">
    <g
       id="g20858"
       transform="matrix(0.5553563,0,0,0.5553563,98.41259,42.607178)" />
    <path
       style="color:#000000;font-style:normal;font-variant:normal;font-weight:normal;font-stretch:normal;font-size:medium;line-height:normal;font-family:sans-serif;font-variant-ligatures:normal;font-variant-position:normal;font-variant-caps:normal;font-variant-numeric:normal;font-variant-alternates:normal;font-variant-east-asian:normal;font-feature-settings:normal;font-variation-settings:normal;text-indent:0;text-align:start;text-decoration:none;text-decoration-line:none;text-decoration-style:solid;text-decoration-color:#000000;letter-spacing:normal;word-spacing:normal;text-transform:none;writing-mode:lr-tb;direction:ltr;text-orientation:mixed;dominant-baseline:auto;baseline-shift:baseline;text-anchor:start;white-space:normal;shape-padding:0;shape-margin:0;inline-size:0;clip-rule:nonzero;display:inline;overflow:visible;visibility:visible;isolation:auto;mix-blend-mode:normal;color-interpolation:sRGB;color-interpolation-filters:linearRGB;solid-color:#000000;solid-opacity:1;fill:url(#linearGradient17155);fill-opacity:1;fill-rule:nonzero;stroke:none;stroke-width:1.27377;stroke-linecap:square;stroke-linejoin:round;stroke-miterlimit:4;stroke-dasharray:none;stroke-dashoffset:0;stroke-opacity:1;filter:url(#filter1873);color-rendering:auto;image-rendering:auto;shape-rendering:auto;text-rendering:auto;enable-background:accumulate;stop-color:#000000"
       d="m 140.00072,84.026549 c -4.7375,0 -8.58975,3.85225 -8.58975,8.58975 0,2.40367 0.99744,4.57294 2.59326,6.13333 h -4.7944 l 0.0419,7.5e-4 c -0.16136,-0.006 -0.33501,-0.009 -0.52012,-0.004 h -7.5e-4 c -0.162,0.004 -0.23583,0.017 -0.22071,0.0162 -0.0856,0.005 -0.13902,0.01 -0.1589,0.011 -0.007,1.9e-4 -0.0132,4.5e-4 -0.0199,7.6e-4 -0.0522,0.004 -0.12606,0.008 -0.22218,0.0177 -0.002,-1e-5 -0.004,-1e-5 -0.006,0 -0.12029,0.0124 -0.23144,0.0275 -0.33253,0.0419 -0.11898,0.0163 -0.24103,0.0353 -0.36637,0.0581 0.12717,-0.0233 0.13335,-0.0284 -0.0427,0.005 l -7.5e-4,7.5e-4 c 0.0481,-0.009 0.0323,-0.008 -0.0478,0.008 -3.40263,0.656024 -6.08226,3.309561 -6.77263,6.700561 -0.0472,0.23172 -0.0712,0.43337 -0.0934,0.60325 -0.003,0.0234 -0.005,0.038 -0.004,0.0331 -0.003,0.0183 -0.006,0.0367 -0.008,0.0552 -0.0101,0.0838 -0.023,0.1853 -0.0331,0.30531 v 7.5e-4 c -0.003,0.0307 -0.003,0.0472 -0.004,0.0508 -2.5e-4,9.8e-4 -4.9e-4,0.002 -7.5e-4,0.003 -0.0116,0.14823 -0.0167,0.28792 -0.0206,0.41854 -0.002,0.0483 -0.008,0.13579 -0.008,0.26337 0,0.22095 0.0112,0.42839 0.025,0.62238 0,10e-4 0,0.003 0,0.004 0.001,0.014 0.004,0.0806 0.0118,0.1692 0.002,0.0201 -0.002,-0.008 7.5e-4,0.0191 h 7.5e-4 c 2.4e-4,0.003 -2.4e-4,0.002 0,0.004 0.0125,0.11504 0.0413,0.22774 0.0853,0.33474 0.16437,1.22074 0.54135,2.37918 1.16458,3.38337 0.36981,0.61263 3.13455,5.39726 5.75666,9.94633 2.62542,4.55482 5.14605,8.93625 5.14605,8.93625 l 7.5e-4,0.002 c 2.36898,4.10319 7.63293,5.51069 11.7355,3.14207 4.10234,-2.36849 5.51377,-7.62902 3.14502,-11.73182 l -3.60263,-6.24152 h 7.20448 c 4.7375,0 8.58975,-3.85224 8.58975,-8.58975 0,-2.40365 -0.99745,-4.57295 -2.59326,-6.13335 h 5.046 c 4.7375,0 8.58975,-3.852251 8.58975,-8.589751 0,-4.7375 -3.85225,-8.58975 -8.58975,-8.58975 z m 0,2.45642 h 22.08425 c 3.41898,0 6.13259,2.71435 6.13259,6.13333 0,3.41898 -2.71361,6.13333 -6.13259,6.13333 h -11.04249 c -1.88193,0 -2.12634,2.407541 0,2.456421 3.41871,0.0426 6.13332,2.71437 6.13332,6.13335 0,3.41898 -2.71434,6.13259 -6.13332,6.13259 h -9.33131 c -0.94576,2e-5 -1.53679,1.02389 -1.06379,1.84287 l 4.66565,8.0836 c 1.70949,2.96091 0.71536,6.66665 -2.24601,8.3764 -2.96066,1.70934 -6.66898,0.71781 -8.37861,-2.2416 l -7.6e-4,-0.002 c -7.5e-4,-0.001 -2.52039,-4.38103 -5.14605,-8.93625 -2.62606,-4.55591 -5.31285,-9.21285 -5.78975,-10.00221 -0.003,-0.004 -0.005,-0.008 -0.008,-0.0125 -0.49785,-0.80217 -0.81293,-1.73075 -0.89384,-2.73598 -0.002,-0.0179 -0.004,-0.0359 -0.006,-0.0537 -2.5e-4,-0.001 -4.9e-4,-0.003 -7.6e-4,-0.004 -0.0114,-0.15961 -0.0184,-0.30874 -0.0184,-0.44803 0,-0.0232 0.003,-0.0853 0.007,-0.18833 v -0.001 c 0.003,-0.11058 0.008,-0.21052 0.0155,-0.30016 l -7.1e-4,0.002 c 0.002,-0.0276 0.004,-0.0416 0.004,-0.0419 0.005,-0.0559 0.0135,-0.12846 0.0243,-0.21849 0.003,-0.0202 0.007,-0.0488 0.008,-0.0596 2.4e-4,-0.001 4.9e-4,-0.002 7.1e-4,-0.004 0.0233,-0.1785 0.0427,-0.32348 0.0647,-0.43184 0.49287,-2.42089 2.40212,-4.31154 4.83339,-4.77897 0.001,-2.5e-4 0.003,-5e-4 0.004,-7.6e-4 -0.0515,0.0101 -0.0386,0.008 0.0382,-0.007 l -10e-4,7.6e-4 c -0.16703,0.0319 -0.16045,0.031 0.0199,-0.002 l 0.002,-7.5e-4 c 0.084,-0.0153 0.17261,-0.0284 0.26631,-0.0412 0.002,-4.9e-4 0.005,-9.8e-4 0.007,-0.002 0.0881,-0.0126 0.16695,-0.023 0.23615,-0.0302 0.027,-0.002 0.0744,-0.005 0.13316,-0.01 l 0.0191,-0.001 c 0.0676,-0.004 0.11982,-0.009 0.1361,-0.01 h 0.002 c 0.13995,-0.008 0.1915,-0.0135 0.15302,-0.0125 0.11233,-0.003 0.23643,-0.002 0.37151,0.003 0.0137,4.9e-4 0.0275,7.2e-4 0.0412,7.6e-4 h 10.79089 c 1.60389,-0.0334 1.60389,-2.423051 0,-2.456431 -3.41897,0 -6.13332,-2.71434 -6.13332,-6.13332 0,-3.41898 2.71435,-6.13333 6.13332,-6.13333 z"
       id="path1814-0"
       transform="matrix(0.58445801,0,0,0.58445801,60.469529,41.81187)" />
  </g>
</svg>
