<?xml version="1.0" encoding="UTF-8" standalone="no"?>
<!-- Created with Inkscape (http://www.inkscape.org/) -->

<svg
   width="1100"
   height="800"
   viewBox="0 0 291.04167 211.66666"
   version="1.1"
   id="svg5"
   sodipodi:docname="dfbanner.svg"
   inkscape:export-filename="/Users/lemonorange/websites/mywebsite/assets/deepfusionBG.png"
   inkscape:export-xdpi="132"
   inkscape:export-ydpi="132"
   inkscape:version="1.1 (ce6663b3b7, 2021-05-25)"
   xmlns:inkscape="http://www.inkscape.org/namespaces/inkscape"
   xmlns:sodipodi="http://sodipodi.sourceforge.net/DTD/sodipodi-0.dtd"
   xmlns:xlink="http://www.w3.org/1999/xlink"
   xmlns="http://www.w3.org/2000/svg"
   xmlns:svg="http://www.w3.org/2000/svg">
  <sodipodi:namedview
     id="namedview7"
     pagecolor="#505050"
     bordercolor="#ffffff"
     borderopacity="1"
     inkscape:pageshadow="0"
     inkscape:pageopacity="0"
     inkscape:pagecheckerboard="1"
     inkscape:document-units="px"
     showgrid="false"
     units="px"
     inkscape:snap-page="true"
     inkscape:snap-global="true"
     inkscape:zoom="4.6858147"
     inkscape:cx="288.31699"
     inkscape:cy="402.38467"
     inkscape:window-width="2560"
     inkscape:window-height="1286"
     inkscape:window-x="3440"
     inkscape:window-y="28"
     inkscape:window-maximized="1"
     inkscape:current-layer="layer1" />
  <defs
     id="defs2">
    <linearGradient
       inkscape:collect="always"
       id="linearGradient23574">
      <stop
         style="stop-color:#ff8509;stop-opacity:1"
         offset="0"
         id="stop23568" />
      <stop
         style="stop-color:#ff09c7;stop-opacity:1"
         offset="0.62080818"
         id="stop23570" />
      <stop
         style="stop-color:#8a07ff;stop-opacity:1"
         offset="1"
         id="stop23572" />
    </linearGradient>
    <linearGradient
       id="linearGradient1820">
      <stop
         style="stop-color:#ff8900;stop-opacity:1"
         offset="0"
         id="stop1816" />
      <stop
         style="stop-color:#ff477e;stop-opacity:1"
         offset="0.47171944"
         id="stop1824" />
      <stop
         style="stop-color:#ce00ff;stop-opacity:1"
         offset="1"
         id="stop1818" />
    </linearGradient>
    <linearGradient
       xlink:href="#linearGradient1820"
       id="linearGradient1822"
       x1="123.6694"
       y1="-3.6604049"
       x2="8.6280975"
       y2="122.88503"
       gradientUnits="userSpaceOnUse"
       gradientTransform="matrix(0.37666595,0,0,0.37666595,120.36772,80.320383)" />
    <filter
       inkscape:collect="always"
       style="color-interpolation-filters:sRGB"
       id="filter1873"
       x="-4.1432126e-05"
       y="-4.0847165e-05"
       width="1.0000829"
       height="1.0000817">
      <feGaussianBlur
         inkscape:collect="always"
         stdDeviation="0.00086845619"
         id="feGaussianBlur1875" />
    </filter>
    <linearGradient
       inkscape:collect="always"
       xlink:href="#linearGradient23574"
       id="linearGradient17155"
       x1="123.876"
       y1="122.97986"
       x2="169.36067"
       y2="101.53003"
       gradientUnits="userSpaceOnUse" />
  </defs>
  <g
     inkscape:groupmode="layer"
     id="layer3"
     inkscape:label="bg"
     style="display:inline"
     sodipodi:insensitive="true">
    <rect
       style="fill:#f3f3f3;fill-opacity:1;stroke:none;stroke-width:0.529167;stroke-linecap:round;stroke-linejoin:round;stroke-miterlimit:4;stroke-dasharray:none"
       id="rect1149"
       width="291.04166"
       height="211.66666"
       x="-1.6848375e-06"
       y="0"
       ry="0" />
  </g>
  <g
     inkscape:groupmode="layer"
     id="layer2"
     inkscape:label="logo"
     style="display:inline;opacity:1">
    <text
       xml:space="preserve"
       style="font-style:normal;font-weight:normal;font-size:10.5833px;line-height:1.25;font-family:sans-serif;fill:#000000;fill-opacity:1;stroke:none;stroke-width:0.264583"
       x="68.152481"
       y="101.68784"
       id="text4701"><tspan
         sodipodi:role="line"
         id="tspan4699"
         style="stroke-width:0.264583"
         x="68.152481"
         y="101.68784" /></text>
  </g>
  <g
     inkscape:groupmode="layer"
     id="layer4"
     inkscape:label="logo_groove_shadow" />
  <g
     inkscape:label="content"
     inkscape:groupmode="layer"
     id="layer1">
    <path
       d="m 145.60373,118.02496 q 0.89886,0 1.45615,0.5483 0.5573,0.53931 0.5573,1.56402 v 2.90331 h -0.80898 v -2.78646 q 0,-0.73707 -0.36853,-1.12358 -0.36853,-0.39549 -1.00673,-0.39549 -0.64717,0 -1.03368,0.40448 -0.37752,0.40449 -0.37752,1.17751 v 2.72354 h -0.81796 v -4.92574 h 0.81796 v 0.70111 q 0.24269,-0.37753 0.65616,-0.58426 0.42247,-0.20674 0.92583,-0.20674 z"
       style="font-size:9.87778px;line-height:1.25;font-family:Poppins;-inkscape-font-specification:Poppins;stroke-width:0.240766;fill:#313131;fill-opacity:1"
       id="path23043" />
    <path
       d="m 149.80702,121.90803 -1.00672,2.41794 h -0.5483 l 0.65616,-2.41794 z"
       style="font-size:9.87778px;line-height:1.25;font-family:Poppins;-inkscape-font-specification:Poppins;stroke-width:0.240766;fill:#313131;fill-opacity:1"
       id="path23045" />
    <path
       d="m 102.18613,116.77554 v 6.26505 h -0.81797 v -6.26505 z"
       style="font-size:9.87778px;line-height:1.25;font-family:Poppins;-inkscape-font-specification:Poppins;stroke-width:0.240766;fill:#313131;fill-opacity:1"
       id="path23025" />
    <path
       d="m 105.98015,118.02496 q 0.89886,0 1.45616,0.5483 0.55729,0.53931 0.55729,1.56402 v 2.90331 h -0.80897 v -2.78646 q 0,-0.73707 -0.36854,-1.12358 -0.36853,-0.39549 -1.00672,-0.39549 -0.64718,0 -1.03369,0.40448 -0.37752,0.40449 -0.37752,1.17751 v 2.72354 h -0.81796 v -4.92574 h 0.81796 v 0.70111 q 0.24269,-0.37753 0.65617,-0.58426 0.42246,-0.20674 0.92582,-0.20674 z"
       style="font-size:9.87778px;line-height:1.25;font-family:Poppins;-inkscape-font-specification:Poppins;stroke-width:0.240766;fill:#313131;fill-opacity:1"
       id="path23027" />
    <path
       d="m 111.73848,118.02496 q 0.89886,0 1.45615,0.5483 0.55729,0.53931 0.55729,1.56402 v 2.90331 h -0.80897 v -2.78646 q 0,-0.73707 -0.36854,-1.12358 -0.36853,-0.39549 -1.00672,-0.39549 -0.64718,0 -1.03368,0.40448 -0.37753,0.40449 -0.37753,1.17751 v 2.72354 h -0.81796 v -4.92574 h 0.81796 v 0.70111 q 0.2427,-0.37753 0.65617,-0.58426 0.42246,-0.20674 0.92583,-0.20674 z"
       style="font-size:9.87778px;line-height:1.25;font-family:Poppins;-inkscape-font-specification:Poppins;stroke-width:0.240766;fill:#313131;fill-opacity:1"
       id="path23029" />
    <path
       d="m 117.24511,123.12149 q -0.69212,0 -1.2584,-0.3146 -0.55729,-0.3146 -0.88088,-0.88987 -0.3146,-0.58426 -0.3146,-1.3483 0,-0.75503 0.32359,-1.33031 0.33258,-0.58425 0.89886,-0.88987 0.56628,-0.31459 1.26738,-0.31459 0.70112,0 1.26741,0.31459 0.56628,0.30562 0.88986,0.88089 0.33258,0.57527 0.33258,1.33929 0,0.76404 -0.34157,1.3483 -0.33256,0.57527 -0.90784,0.88987 -0.57527,0.3146 -1.27639,0.3146 z m 0,-0.71909 q 0.44045,0 0.82695,-0.20673 0.38652,-0.20675 0.62022,-0.62021 0.2427,-0.41348 0.2427,-1.00674 0,-0.59324 -0.23372,-1.00672 -0.23369,-0.41346 -0.61122,-0.61122 -0.37751,-0.20673 -0.81796,-0.20673 -0.44942,0 -0.82695,0.20673 -0.36853,0.19776 -0.59324,0.61122 -0.22472,0.41348 -0.22472,1.00672 0,0.60225 0.21572,1.01572 0.22472,0.41348 0.59325,0.62022 0.36854,0.19774 0.80897,0.19774 z"
       style="font-size:9.87778px;line-height:1.25;font-family:Poppins;-inkscape-font-specification:Poppins;stroke-width:0.240766;fill:#313131;fill-opacity:1"
       id="path23031" />
    <path
       d="m 154.44289,123.12149 q -0.56629,0 -1.01572,-0.18875 -0.44942,-0.19776 -0.7101,-0.53933 -0.26067,-0.35055 -0.28764,-0.79998 h 0.84493 q 0.036,0.36853 0.34158,0.60224 0.31459,0.2337 0.81795,0.2337 0.46741,0 0.73707,-0.20673 0.26966,-0.20674 0.26966,-0.52135 0,-0.32359 -0.28764,-0.47639 -0.28763,-0.1618 -0.88987,-0.3146 -0.5483,-0.14382 -0.89886,-0.28764 -0.34156,-0.15281 -0.59324,-0.44044 -0.2427,-0.29662 -0.2427,-0.77302 0,-0.37752 0.22472,-0.69212 0.22472,-0.31461 0.63819,-0.49438 0.41347,-0.18875 0.9438,-0.18875 0.81796,0 1.32133,0.41347 0.50336,0.41348 0.53931,1.13257 h -0.81796 q -0.0269,-0.38653 -0.31461,-0.62022 -0.27864,-0.2337 -0.75503,-0.2337 -0.44045,0 -0.70112,0.18875 -0.26066,0.18877 -0.26066,0.49438 0,0.24269 0.1528,0.40449 0.1618,0.1528 0.3955,0.25168 0.24269,0.0899 0.66515,0.20674 0.53034,0.14381 0.86291,0.28763 0.33258,0.13483 0.56627,0.41347 0.2427,0.27865 0.2517,0.72808 0,0.40449 -0.22472,0.72808 -0.22472,0.32358 -0.63819,0.51236 -0.40449,0.17976 -0.93481,0.17976 z"
       style="font-size:9.87778px;line-height:1.25;font-family:Poppins;-inkscape-font-specification:Poppins;stroke-width:0.240766;fill:#313131;fill-opacity:1"
       id="path23047" />
    <path
       d="m 157.80897,117.31486 q -0.2337,0 -0.39549,-0.1618 -0.1618,-0.16179 -0.1618,-0.39548 0,-0.23372 0.1618,-0.39552 0.16179,-0.16179 0.39549,-0.16179 0.22472,0 0.37753,0.16179 0.16179,0.1618 0.16179,0.39552 0,0.23369 -0.16179,0.39548 -0.15281,0.1618 -0.37753,0.1618 z m 0.3955,0.79999 v 4.92574 h -0.81795 v -4.92574 z"
       style="font-size:9.87778px;line-height:1.25;font-family:Poppins;-inkscape-font-specification:Poppins;stroke-width:0.240766;fill:#313131;fill-opacity:1"
       id="path23049" />
    <path
       d="m 165.52204,118.02496 q 0.57526,0 1.02468,0.24268 0.44944,0.2337 0.71011,0.71011 0.26067,0.4764 0.26067,1.15953 v 2.90331 h -0.80898 v -2.78646 q 0,-0.73707 -0.36853,-1.12358 -0.35955,-0.39549 -0.97975,-0.39549 -0.6382,0 -1.01572,0.41348 -0.37752,0.40448 -0.37752,1.17749 v 2.71456 h -0.80897 v -2.78646 q 0,-0.73707 -0.36853,-1.12358 -0.35955,-0.39549 -0.97977,-0.39549 -0.63819,0 -1.01571,0.41348 -0.37752,0.40448 -0.37752,1.17749 v 2.71456 h -0.81796 v -4.92574 h 0.81796 v 0.71009 q 0.2427,-0.38651 0.64718,-0.59324 0.41348,-0.20674 0.90785,-0.20674 0.62021,0 1.09661,0.27864 0.4764,0.27864 0.7101,0.81796 0.20674,-0.52133 0.68313,-0.80897 0.4764,-0.28763 1.06067,-0.28763 z"
       style="font-size:9.87778px;line-height:1.25;font-family:Poppins;-inkscape-font-specification:Poppins;stroke-width:0.240766;fill:#313131;fill-opacity:1"
       id="path23051" />
    <path
       d="m 169.66844,119.0227 q 0.2427,-0.42247 0.71909,-0.70111 0.48538,-0.28764 1.12357,-0.28764 0.65617,0 1.1865,0.31459 0.53932,0.31461 0.84493,0.88987 0.30561,0.56629 0.30561,1.32133 0,0.74605 -0.30561,1.33031 -0.30561,0.58426 -0.84493,0.90785 -0.53033,0.32359 -1.1865,0.32359 -0.62919,0 -1.11458,-0.27864 -0.4764,-0.28764 -0.72808,-0.7101 v 3.24488 h -0.81796 v -7.26278 h 0.81796 z m 3.34376,1.53704 q 0,-0.5573 -0.22471,-0.97076 -0.22472,-0.41348 -0.61122,-0.62921 -0.37753,-0.21572 -0.83595,-0.21572 -0.44943,0 -0.83594,0.22471 -0.37752,0.21572 -0.61122,0.63819 -0.22472,0.41348 -0.22472,0.96177 0,0.55731 0.22472,0.97977 0.2337,0.41347 0.61122,0.63819 0.38651,0.21572 0.83594,0.21572 0.45842,0 0.83595,-0.21572 0.3865,-0.22472 0.61122,-0.63819 0.22471,-0.42246 0.22471,-0.98875 z"
       style="font-size:9.87778px;line-height:1.25;font-family:Poppins;-inkscape-font-specification:Poppins;stroke-width:0.240766;fill:#313131;fill-opacity:1"
       id="path23053" />
    <path
       d="m 175.74278,116.38904 v 6.65155 h -0.81797 v -6.65155 z"
       style="font-size:9.87778px;line-height:1.25;font-family:Poppins;-inkscape-font-specification:Poppins;stroke-width:0.240766;fill:#313131;fill-opacity:1"
       id="path23055" />
    <path
       d="m 177.55931,117.31486 q -0.2337,0 -0.3955,-0.1618 -0.1618,-0.16179 -0.1618,-0.39548 0,-0.23372 0.1618,-0.39552 0.1618,-0.16179 0.3955,-0.16179 0.22472,0 0.37752,0.16179 0.1618,0.1618 0.1618,0.39552 0,0.23369 -0.1618,0.39548 -0.1528,0.1618 -0.37752,0.1618 z m 0.39549,0.79999 v 4.92574 h -0.81795 v -4.92574 z"
       style="font-size:9.87778px;line-height:1.25;font-family:Poppins;-inkscape-font-specification:Poppins;stroke-width:0.240766;fill:#313131;fill-opacity:1"
       id="path23057" />
    <path
       d="m 181.35334,118.78899 h -1.03369 v 4.2516 h -0.81796 v -4.2516 h -0.63819 v -0.67414 h 0.63819 v -0.35057 q 0,-0.82695 0.42248,-1.20447 0.43144,-0.3865 1.37524,-0.3865 v 0.68313 q -0.53931,0 -0.76402,0.21572 -0.21574,0.20674 -0.21574,0.69212 v 0.35057 h 1.03369 z"
       style="font-size:9.87778px;line-height:1.25;font-family:Poppins;-inkscape-font-specification:Poppins;stroke-width:0.240766;fill:#313131;fill-opacity:1"
       id="path23059" />
    <path
       d="m 122.68883,122.28556 1.52807,-4.17071 h 0.87189 l -1.93254,4.92574 h -0.9528 l -1.93254,-4.92574 h 0.88088 z"
       style="font-size:9.87778px;line-height:1.25;font-family:Poppins;-inkscape-font-specification:Poppins;stroke-width:0.240766;fill:#313131;fill-opacity:1"
       id="path23033" />
    <path
       d="m 125.58808,120.55974 q 0,-0.75504 0.30561,-1.32133 0.30561,-0.57526 0.83595,-0.88987 0.53932,-0.31459 1.19548,-0.31459 0.64718,0 1.12357,0.27864 0.4764,0.27864 0.7101,0.70112 v -0.89886 h 0.82696 v 4.92574 h -0.82696 v -0.91683 q -0.24269,0.43145 -0.72808,0.71909 -0.47639,0.27864 -1.11457,0.27864 -0.65618,0 -1.1865,-0.32359 -0.53034,-0.32359 -0.83595,-0.90785 -0.30561,-0.58426 -0.30561,-1.33031 z m 4.17071,0.009 q 0,-0.5573 -0.22471,-0.97077 -0.22471,-0.41347 -0.61122,-0.6292 -0.37753,-0.22472 -0.83595,-0.22472 -0.45842,0 -0.83593,0.21573 -0.37753,0.21573 -0.60224,0.62921 -0.22472,0.41346 -0.22472,0.97077 0,0.56628 0.22472,0.98874 0.22471,0.41347 0.60224,0.63819 0.37751,0.21573 0.83593,0.21573 0.45842,0 0.83595,-0.21573 0.38651,-0.22472 0.61122,-0.63819 0.22471,-0.42246 0.22471,-0.97976 z"
       style="font-size:9.87778px;line-height:1.25;font-family:Poppins;-inkscape-font-specification:Poppins;stroke-width:0.240766;fill:#313131;fill-opacity:1"
       id="path23035" />
    <path
       d="m 132.96576,118.78899 v 2.90332 q 0,0.35954 0.1528,0.51235 0.15281,0.14381 0.53033,0.14381 h 0.60224 v 0.69212 h -0.73707 q -0.68313,0 -1.0247,-0.3146 -0.34156,-0.31459 -0.34156,-1.03368 v -2.90332 h -0.63819 v -0.67414 h 0.63819 v -1.24043 h 0.81796 v 1.24043 h 1.28537 v 0.67414 z"
       style="font-size:9.87778px;line-height:1.25;font-family:Poppins;-inkscape-font-specification:Poppins;stroke-width:0.240766;fill:#313131;fill-opacity:1"
       id="path23037" />
    <path
       d="m 135.65588,117.31486 q -0.23371,0 -0.39551,-0.1618 -0.16178,-0.16179 -0.16178,-0.39548 0,-0.23372 0.16178,-0.39552 0.1618,-0.16179 0.39551,-0.16179 0.22472,0 0.37752,0.16179 0.16179,0.1618 0.16179,0.39552 0,0.23369 -0.16179,0.39548 -0.1528,0.1618 -0.37752,0.1618 z m 0.39549,0.79999 v 4.92574 h -0.81795 v -4.92574 z"
       style="font-size:9.87778px;line-height:1.25;font-family:Poppins;-inkscape-font-specification:Poppins;stroke-width:0.240766;fill:#313131;fill-opacity:1"
       id="path23039" />
    <path
       d="m 139.59373,123.12149 q -0.69212,0 -1.2584,-0.3146 -0.5573,-0.3146 -0.88089,-0.88987 -0.31461,-0.58426 -0.31461,-1.3483 0,-0.75503 0.3236,-1.33031 0.33258,-0.58425 0.89886,-0.88987 0.56628,-0.31459 1.2674,-0.31459 0.7011,0 1.26738,0.31459 0.56628,0.30562 0.88987,0.88089 0.33258,0.57527 0.33258,1.33929 0,0.76404 -0.34156,1.3483 -0.33258,0.57527 -0.90786,0.88987 -0.57526,0.3146 -1.27637,0.3146 z m 0,-0.71909 q 0.44044,0 0.82695,-0.20673 0.38651,-0.20675 0.62021,-0.62021 0.2427,-0.41348 0.2427,-1.00674 0,-0.59324 -0.23371,-1.00672 -0.23371,-0.41346 -0.61122,-0.61122 -0.37753,-0.20673 -0.81796,-0.20673 -0.44944,0 -0.82696,0.20673 -0.36854,0.19776 -0.59324,0.61122 -0.22473,0.41348 -0.22473,1.00672 0,0.60225 0.21574,1.01572 0.22471,0.41348 0.59324,0.62022 0.36853,0.19774 0.80898,0.19774 z"
       style="font-size:9.87778px;line-height:1.25;font-family:Poppins;-inkscape-font-specification:Poppins;stroke-width:0.240766;fill:#313131;fill-opacity:1"
       id="path23041" />
    <path
       d="m 182.72073,117.31486 q -0.2337,0 -0.39549,-0.1618 -0.16179,-0.16179 -0.16179,-0.39548 0,-0.23372 0.16179,-0.39552 0.16179,-0.16179 0.39549,-0.16179 0.22473,0 0.37753,0.16179 0.16179,0.1618 0.16179,0.39552 0,0.23369 -0.16179,0.39548 -0.1528,0.1618 -0.37753,0.1618 z m 0.39551,0.79999 v 4.92574 h -0.81796 v -4.92574 z"
       style="font-size:9.87778px;line-height:1.25;font-family:Poppins;-inkscape-font-specification:Poppins;stroke-width:0.240766;fill:#313131;fill-opacity:1"
       id="path23061" />
    <path
       d="m 189.00461,120.38896 q 0,0.2337 -0.027,0.49438 h -3.93701 q 0.045,0.72807 0.49438,1.14154 0.45841,0.40449 1.10559,0.40449 0.53034,0 0.88089,-0.24269 0.35954,-0.25168 0.50336,-0.66515 h 0.88088 q -0.19775,0.7101 -0.791,1.15951 -0.59324,0.44045 -1.47413,0.44045 -0.70111,0 -1.2584,-0.3146 -0.5483,-0.3146 -0.86291,-0.88987 -0.31459,-0.58426 -0.31459,-1.3483 0,-0.76402 0.3056,-1.33929 0.30563,-0.57527 0.85392,-0.88089 0.5573,-0.31459 1.27638,-0.31459 0.70111,0 1.24043,0.3056 0.53932,0.30562 0.82695,0.84493 0.29663,0.53034 0.29663,1.20448 z m -0.84493,-0.17078 q 0,-0.46741 -0.20674,-0.79999 -0.20674,-0.34157 -0.56628,-0.51236 -0.35056,-0.17976 -0.78201,-0.17976 -0.62022,0 -1.06065,0.39549 -0.43145,0.3955 -0.49438,1.09662 z"
       style="font-size:9.87778px;line-height:1.25;font-family:Poppins;-inkscape-font-specification:Poppins;stroke-width:0.240766;fill:#313131;fill-opacity:1"
       id="path23063" />
    <path
       d="m 189.76991,120.55974 q 0,-0.75504 0.3056,-1.32133 0.30562,-0.57526 0.83595,-0.88987 0.53931,-0.31459 1.20448,-0.31459 0.57527,0 1.06963,0.26965 0.49438,0.26067 0.75505,0.69212 v -2.60668 h 0.82694 v 6.65155 h -0.82694 v -0.92582 q -0.2427,0.44044 -0.71909,0.72808 -0.4764,0.27864 -1.11459,0.27864 -0.65617,0 -1.19548,-0.32359 -0.53033,-0.32359 -0.83595,-0.90785 -0.3056,-0.58426 -0.3056,-1.33031 z m 4.17071,0.009 q 0,-0.5573 -0.22473,-0.97077 -0.2247,-0.41347 -0.61122,-0.6292 -0.37751,-0.22472 -0.83594,-0.22472 -0.45841,0 -0.83593,0.21573 -0.37752,0.21573 -0.60223,0.62921 -0.22472,0.41346 -0.22472,0.97077 0,0.56628 0.22472,0.98874 0.22471,0.41347 0.60223,0.63819 0.37752,0.21573 0.83593,0.21573 0.45843,0 0.83594,-0.21573 0.38652,-0.22472 0.61122,-0.63819 0.22473,-0.42246 0.22473,-0.97976 z"
       style="font-size:9.87778px;line-height:1.25;font-family:Poppins;-inkscape-font-specification:Poppins;stroke-width:0.240766;fill:#313131;fill-opacity:1"
       id="path23065" />
    <path
       d="m 196.4105,123.09452 q -0.23369,0 -0.39548,-0.16178 -0.1618,-0.16181 -0.1618,-0.39551 0,-0.2337 0.1618,-0.39549 0.16179,-0.1618 0.39548,-0.1618 0.22473,0 0.37753,0.1618 0.1618,0.16179 0.1618,0.39549 0,0.2337 -0.1618,0.39551 -0.1528,0.16178 -0.37753,0.16178 z"
       style="font-size:9.87778px;line-height:1.25;font-family:Poppins;-inkscape-font-specification:Poppins;stroke-width:0.240766;fill:#313131;fill-opacity:1"
       id="path23067" />
    <path
       style="color:#000000;font-style:normal;font-variant:normal;font-weight:normal;font-stretch:normal;font-size:medium;line-height:normal;font-family:sans-serif;font-variant-ligatures:normal;font-variant-position:normal;font-variant-caps:normal;font-variant-numeric:normal;font-variant-alternates:normal;font-variant-east-asian:normal;font-feature-settings:normal;font-variation-settings:normal;text-indent:0;text-align:start;text-decoration:none;text-decoration-line:none;text-decoration-style:solid;text-decoration-color:#000000;letter-spacing:normal;word-spacing:normal;text-transform:none;writing-mode:lr-tb;direction:ltr;text-orientation:mixed;dominant-baseline:auto;baseline-shift:baseline;text-anchor:start;white-space:normal;shape-padding:0;shape-margin:0;inline-size:0;clip-rule:nonzero;display:inline;overflow:visible;visibility:visible;isolation:auto;mix-blend-mode:normal;color-interpolation:sRGB;color-interpolation-filters:linearRGB;solid-color:#000000;solid-opacity:1;fill:url(#linearGradient17155);fill-opacity:1;fill-rule:nonzero;stroke:none;stroke-width:1.27377;stroke-linecap:square;stroke-linejoin:round;stroke-miterlimit:4;stroke-dasharray:none;stroke-dashoffset:0;stroke-opacity:1;filter:url(#filter1873);color-rendering:auto;image-rendering:auto;shape-rendering:auto;text-rendering:auto;enable-background:accumulate;stop-color:#000000"
       d="m 140.00072,84.026549 c -4.7375,0 -8.58975,3.85225 -8.58975,8.58975 0,2.40367 0.99744,4.57294 2.59326,6.13333 h -4.7944 l 0.0419,7.5e-4 c -0.16136,-0.006 -0.33501,-0.009 -0.52012,-0.004 h -7.5e-4 c -0.162,0.004 -0.23583,0.017 -0.22071,0.0162 -0.0856,0.005 -0.13902,0.01 -0.1589,0.011 -0.007,1.9e-4 -0.0132,4.5e-4 -0.0199,7.6e-4 -0.0522,0.004 -0.12606,0.008 -0.22218,0.0177 -0.002,-1e-5 -0.004,-1e-5 -0.006,0 -0.12029,0.0124 -0.23144,0.0275 -0.33253,0.0419 -0.11898,0.0163 -0.24103,0.0353 -0.36637,0.0581 0.12717,-0.0233 0.13335,-0.0284 -0.0427,0.005 l -7.5e-4,7.5e-4 c 0.0481,-0.009 0.0323,-0.008 -0.0478,0.008 -3.40263,0.656024 -6.08226,3.309561 -6.77263,6.700561 -0.0472,0.23172 -0.0712,0.43337 -0.0934,0.60325 -0.003,0.0234 -0.005,0.038 -0.004,0.0331 -0.003,0.0183 -0.006,0.0367 -0.008,0.0552 -0.0101,0.0838 -0.023,0.1853 -0.0331,0.30531 v 7.5e-4 c -0.003,0.0307 -0.003,0.0472 -0.004,0.0508 -2.5e-4,9.8e-4 -4.9e-4,0.002 -7.5e-4,0.003 -0.0116,0.14823 -0.0167,0.28792 -0.0206,0.41854 -0.002,0.0483 -0.008,0.13579 -0.008,0.26337 0,0.22095 0.0112,0.42839 0.025,0.62238 0,10e-4 0,0.003 0,0.004 0.001,0.014 0.004,0.0806 0.0118,0.1692 0.002,0.0201 -0.002,-0.008 7.5e-4,0.0191 h 7.5e-4 c 2.4e-4,0.003 -2.4e-4,0.002 0,0.004 0.0125,0.11504 0.0413,0.22774 0.0853,0.33474 0.16437,1.22074 0.54135,2.37918 1.16458,3.38337 0.36981,0.61263 3.13455,5.39726 5.75666,9.94633 2.62542,4.55482 5.14605,8.93625 5.14605,8.93625 l 7.5e-4,0.002 c 2.36898,4.10319 7.63293,5.51069 11.7355,3.14207 4.10234,-2.36849 5.51377,-7.62902 3.14502,-11.73182 l -3.60263,-6.24152 h 7.20448 c 4.7375,0 8.58975,-3.85224 8.58975,-8.58975 0,-2.40365 -0.99745,-4.57295 -2.59326,-6.13335 h 5.046 c 4.7375,0 8.58975,-3.852251 8.58975,-8.589751 0,-4.7375 -3.85225,-8.58975 -8.58975,-8.58975 z m 0,2.45642 h 22.08425 c 3.41898,0 6.13259,2.71435 6.13259,6.13333 0,3.41898 -2.71361,6.13333 -6.13259,6.13333 h -11.04249 c -1.88193,0 -2.12634,2.407541 0,2.456421 3.41871,0.0426 6.13332,2.71437 6.13332,6.13335 0,3.41898 -2.71434,6.13259 -6.13332,6.13259 h -9.33131 c -0.94576,2e-5 -1.53679,1.02389 -1.06379,1.84287 l 4.66565,8.0836 c 1.70949,2.96091 0.71536,6.66665 -2.24601,8.3764 -2.96066,1.70934 -6.66898,0.71781 -8.37861,-2.2416 l -7.6e-4,-0.002 c -7.5e-4,-0.001 -2.52039,-4.38103 -5.14605,-8.93625 -2.62606,-4.55591 -5.31285,-9.21285 -5.78975,-10.00221 -0.003,-0.004 -0.005,-0.008 -0.008,-0.0125 -0.49785,-0.80217 -0.81293,-1.73075 -0.89384,-2.73598 -0.002,-0.0179 -0.004,-0.0359 -0.006,-0.0537 -2.5e-4,-0.001 -4.9e-4,-0.003 -7.6e-4,-0.004 -0.0114,-0.15961 -0.0184,-0.30874 -0.0184,-0.44803 0,-0.0232 0.003,-0.0853 0.007,-0.18833 v -0.001 c 0.003,-0.11058 0.008,-0.21052 0.0155,-0.30016 l -7.1e-4,0.002 c 0.002,-0.0276 0.004,-0.0416 0.004,-0.0419 0.005,-0.0559 0.0135,-0.12846 0.0243,-0.21849 0.003,-0.0202 0.007,-0.0488 0.008,-0.0596 2.4e-4,-0.001 4.9e-4,-0.002 7.1e-4,-0.004 0.0233,-0.1785 0.0427,-0.32348 0.0647,-0.43184 0.49287,-2.42089 2.40212,-4.31154 4.83339,-4.77897 0.001,-2.5e-4 0.003,-5e-4 0.004,-7.6e-4 -0.0515,0.0101 -0.0386,0.008 0.0382,-0.007 l -10e-4,7.6e-4 c -0.16703,0.0319 -0.16045,0.031 0.0199,-0.002 l 0.002,-7.5e-4 c 0.084,-0.0153 0.17261,-0.0284 0.26631,-0.0412 0.002,-4.9e-4 0.005,-9.8e-4 0.007,-0.002 0.0881,-0.0126 0.16695,-0.023 0.23615,-0.0302 0.027,-0.002 0.0744,-0.005 0.13316,-0.01 l 0.0191,-0.001 c 0.0676,-0.004 0.11982,-0.009 0.1361,-0.01 h 0.002 c 0.13995,-0.008 0.1915,-0.0135 0.15302,-0.0125 0.11233,-0.003 0.23643,-0.002 0.37151,0.003 0.0137,4.9e-4 0.0275,7.2e-4 0.0412,7.6e-4 h 10.79089 c 1.60389,-0.0334 1.60389,-2.423051 0,-2.456431 -3.41897,0 -6.13332,-2.71434 -6.13332,-6.13332 0,-3.41898 2.71435,-6.13333 6.13332,-6.13333 z"
       id="path1814-0"
       transform="matrix(0.58445801,0,0,0.58445801,-8.3541997,44.228909)" />
    <g
       id="g20858"
       transform="matrix(0.5553563,0,0,0.5553563,98.41259,42.607178)" />
    <g
       id="g8296"
       transform="matrix(0.57233842,0,0,0.57233842,60.198761,116.56351)"
       style="fill:#000000;fill-opacity:1">
      <path
         d="m 78.345601,-39.994261 c 2.790246,0.03627 5.184042,0.505174 7.18068,1.515521 1.996639,1.010347 3.524187,2.465728 4.582645,4.366143 1.058459,1.900414 1.587688,4.161666 1.587688,6.783757 0,2.598036 -0.529229,4.847261 -1.587688,6.747675 -1.058458,1.876359 -2.586006,3.319712 -4.582645,4.330059 -1.996638,0.986291 -4.390369,1.448531 -7.18068,1.479437 l -4.943483,0.05476 c -2.515568,0 -2.525869,-0.141987 -2.525869,-2.104456 v -21.069771 c 0,-2.095945 -0.03409,-2.167329 2.530589,-2.167329 z m 0,23.129731 c 3.512159,0 6.182361,-0.914124 8.010608,-2.742371 1.852302,-1.852303 2.778453,-4.426283 2.778453,-7.721939 0,-3.319711 -0.926151,-5.905718 -2.778453,-7.758021 -1.828247,-1.876358 -4.498449,-2.814537 -8.010608,-2.814537 h -4.943484 v 21.036868 z"
         style="font-weight:300;font-size:22.5778px;line-height:84.8;font-family:Poppins;-inkscape-font-specification:'Poppins Light';letter-spacing:0.529167px;word-spacing:0px;fill:#000000;fill-opacity:1;stroke-width:0.422856"
         id="path334604"
         sodipodi:nodetypes="ssssccsccccsssscsccs" />
      <path
         d="m 115.02252,-25.6329 c 0,0.866012 -0.024,1.527549 -0.0721,1.984611 H 98.604387 c 0.07216,1.491465 0.433002,2.766426 1.082514,3.824885 0.649509,1.058459 1.503489,1.864331 2.561949,2.417616 1.05846,0.529229 2.21314,0.793843 3.46405,0.793843 1.6358,0 3.00698,-0.396922 4.11355,-1.190765 0.56903,-0.45483 1.03683,-0.930907 1.40646,-1.450632 0.96614,-1.284177 0.77448,-1.383315 2.46919,-1.686204 0.57505,-0.06585 1.03175,-0.07462 1.03175,-0.07462 -0.48111,1.92447 -1.51552,3.50013 -3.10321,4.72698 -1.56363,1.202794 -3.53621,1.804191 -5.91774,1.804191 -1.8523,0 -3.51216,-0.40895 -4.97957,-1.226849 -1.467406,-0.841956 -2.622088,-2.020694 -3.464043,-3.536214 -0.817901,-1.539577 -1.226852,-3.331741 -1.226852,-5.37649 0,-2.04475 0.408951,-3.836913 1.226852,-5.376489 0.817899,-1.539576 1.960553,-2.718314 3.427963,-3.536214 1.46741,-0.817901 3.13929,-1.226851 5.01565,-1.226851 1.87636,0 3.51216,0.40895 4.90739,1.226851 1.4193,0.8179 2.50182,1.92447 3.24755,3.319711 0.76979,1.371185 1.15468,2.898734 1.15468,4.582645 z m -2.56195,-0.07217 c 0.0241,-1.467409 -0.27663,-2.718314 -0.9021,-3.752717 -0.60139,-1.034403 -1.43132,-1.816219 -2.48977,-2.345448 -1.05847,-0.52923 -2.21315,-0.793845 -3.46405,-0.793845 -1.87636,0 -3.47608,0.601397 -4.79915,1.804191 -1.323073,1.202794 -2.056778,2.898734 -2.201113,5.087819 z"
         style="font-weight:300;font-size:22.5778px;line-height:84.8;font-family:Poppins;-inkscape-font-specification:'Poppins Light';letter-spacing:0.529167px;word-spacing:0px;fill:#000000;fill-opacity:1;stroke-width:0.422856"
         id="path334606"
         sodipodi:nodetypes="sccscscccccsccssssccsccssscc" />
      <path
         d="m 146.26658,-30.143377 c 0.62546,-1.323073 1.61175,-2.417616 2.95887,-3.283628 1.37119,-0.890068 2.99497,-1.335102 4.87133,-1.335102 1.78013,0 3.37984,0.420978 4.79913,1.262934 1.44335,0.817901 2.56195,1.996639 3.3558,3.536215 0.8179,1.51552 1.22685,3.283627 1.22685,5.304322 0,2.020694 -0.40895,3.800829 -1.22685,5.340405 -0.79385,1.539576 -1.91245,2.730342 -3.3558,3.572298 -1.41929,0.841955 -3.019,1.262933 -4.79913,1.262933 -1.85231,0 -3.46405,-0.433005 -4.83524,-1.299016 -1.37118,-0.890068 -2.3695,-1.996639 -2.99496,-3.319712 v 12.1782742 c 0,1.5638 -0.21469,1.461411 -1.24652,1.461411 -1.09295,0 -1.24326,-0.106243 -1.24326,-1.374497 V -33.797324 c 0,-0.426239 0.25217,-0.676111 0.76279,-0.676111 h 1.1062 c 0.42475,0 0.62079,0.299636 0.62079,0.639238 z m 14.65003,5.484741 c 0,-1.6358 -0.32475,-3.043069 -0.97426,-4.221807 -0.62545,-1.202794 -1.49146,-2.116918 -2.59803,-2.742371 -1.10657,-0.625453 -2.35748,-0.93818 -3.75272,-0.93818 -1.34713,0 -2.58601,0.324755 -3.71664,0.974264 -1.10657,0.649508 -1.98461,1.575659 -2.63412,2.778453 -0.64951,1.202795 -0.97426,2.598037 -0.97426,4.185724 0,1.587688 0.32475,2.982929 0.97426,4.185723 0.64951,1.202794 1.52755,2.128946 2.63412,2.778455 1.13063,0.649509 2.36951,0.974264 3.71664,0.974264 1.39524,0 2.64615,-0.312727 3.75272,-0.93818 1.10657,-0.649509 1.97258,-1.575661 2.59803,-2.778455 0.64951,-1.22685 0.97426,-2.646147 0.97426,-4.25789 z"
         style="font-weight:300;font-size:22.5778px;line-height:84.8;font-family:Poppins;-inkscape-font-specification:'Poppins Light';letter-spacing:0.529167px;word-spacing:0px;fill:#000000;fill-opacity:1;stroke-width:0.422856"
         id="path334610"
         sodipodi:nodetypes="ccsccsccsccccccccccscsscssscsccs" />
      <path
         d="m 182.61875,-39.274603 v 0.704917 c 0,0.311455 -0.25522,0.668288 -0.64154,0.668288 h -10.47227 v 9.417877 h 2.0824 2.33762 4.11413 c 0.48198,0 0.84763,0.372794 0.84763,0.83943 v 0.394212 c 0.0347,0.367858 -0.28568,0.859219 -0.82522,0.859219 h -8.55656 v 10.367823 c 0.0338,0.746679 -0.42355,1.251168 -1.00359,1.251168 h -0.46948 c -0.59374,0 -1.05281,-0.498318 -1.05281,-1.283671 v -21.81582 c -0.0451,-1.814144 0.19702,-2.123101 2.55061,-2.123101 h 10.38687 c 0.38467,0 0.70221,0.309732 0.70221,0.719658 z"
         style="font-weight:300;font-size:22.5778px;line-height:84.8;font-family:Poppins;-inkscape-font-specification:'Poppins Light';letter-spacing:0.529167px;word-spacing:0px;fill:#000000;fill-opacity:1;stroke-width:0.422856"
         id="path334612"
         sodipodi:nodetypes="ccsccccccccccccccccc" />
      <path
         d="m 204.68168,-33.421602 v 17.641265 c 0,0.73344 -0.43551,1.008668 -0.98783,1.008668 h -0.59144 c -0.49278,0 -0.94659,-0.476985 -0.94659,-1.002183 v -2.461864 c -0.57734,1.22685 -1.46741,2.165029 -2.67021,2.814538 -1.20279,0.649509 -2.54992,0.974263 -4.04138,0.974263 -2.35748,0 -4.28195,-0.721677 -5.77341,-2.16503 -1.49146,-1.467409 -2.23719,-3.584326 -2.23719,-6.350752 v -10.72417 c 0,-0.532006 0.25704,-0.786568 0.85974,-0.786568 h 0.82945 c 0.55213,0 0.80058,0.315926 0.80058,0.736515 v 10.485553 c 0,2.140973 0.52923,3.776773 1.5877,4.9074 1.08251,1.130625 2.54992,1.695938 4.40222,1.695938 1.90042,0 3.41594,-0.601397 4.54656,-1.804191 1.13063,-1.202794 1.69594,-2.970901 1.69594,-5.30432 v -9.808069 c 0,-0.515468 0.33151,-0.908826 0.98807,-0.908826 h 0.71503 c 0.63554,0 0.82276,0.403509 0.82276,1.051833 z"
         style="font-weight:300;font-size:22.5778px;line-height:84.8;font-family:Poppins;-inkscape-font-specification:'Poppins Light';letter-spacing:0.529167px;word-spacing:0px;fill:#000000;fill-opacity:1;stroke-width:0.422856"
         id="path334614"
         sodipodi:nodetypes="scccccsscsccccscssscccs" />
      <path
         d="m 218.08454,-14.483 c -2.26125,0 -4.11355,-0.517201 -5.5569,-1.551603 -1.4193,-1.058459 -2.21314,-2.489783 -2.38153,-4.293974 1.786,0 2.6995,0.784084 3.36527,1.937229 0.21701,0.27925 0.47846,0.535603 0.78436,0.769057 0.93819,0.673564 2.18909,1.010346 3.75272,1.010346 1.37119,0 2.44168,-0.324754 3.21147,-0.974262 0.79385,-0.649509 1.19077,-1.455381 1.19077,-2.417616 0,-0.673565 -0.21651,-1.226851 -0.64953,-1.659856 -0.43301,-0.433005 -0.98629,-0.769788 -1.65984,-1.010347 -0.64951,-0.264615 -1.53958,-0.541257 -2.67021,-0.829928 -1.46741,-0.384895 -2.65818,-0.769789 -3.57229,-1.154682 -0.91413,-0.384894 -1.69594,-0.950207 -2.34545,-1.69594 -0.62545,-0.769789 -0.93818,-1.792164 -0.93818,-3.067125 0,-0.962235 0.28867,-1.852302 0.866,-2.670202 0.57735,-0.817901 1.39525,-1.46741 2.4537,-1.948527 1.05847,-0.481118 2.26126,-0.721677 3.60838,-0.721677 2.11692,0 3.82489,0.541257 5.12391,1.623772 1.29901,1.058459 1.99663,2.525868 2.09286,4.402227 -1.49337,0.0688 -2.28237,-0.781243 -3.27266,-2.128582 -0.17706,-0.235067 -0.3852,-0.451692 -0.62439,-0.649873 -0.81789,-0.721677 -1.94852,-1.082515 -3.39188,-1.082515 -1.27495,0 -2.30935,0.300699 -3.1032,0.902096 -0.79385,0.601397 -1.19077,1.347129 -1.19077,2.237197 0,0.769789 0.22853,1.407269 0.68559,1.912442 0.48111,0.481119 1.07048,0.866013 1.76811,1.154683 0.69762,0.264615 1.6358,0.565313 2.81454,0.902095 1.41929,0.384895 2.54992,0.757761 3.39187,1.118599 0.84196,0.360838 1.56364,0.890067 2.16503,1.587688 0.60141,0.69762 0.91413,1.623772 0.93818,2.778455 0,1.058458 -0.28867,2.008665 -0.866,2.850621 -0.57735,0.8179 -1.38322,1.467409 -2.41763,1.948526 -1.0344,0.481117 -2.22517,0.721676 -3.5723,0.721676 z"
         style="font-weight:300;font-size:22.5778px;line-height:84.8;font-family:Poppins;-inkscape-font-specification:'Poppins Light';letter-spacing:0.529167px;word-spacing:0px;fill:#000000;fill-opacity:1;stroke-width:0.422856"
         id="path334616"
         sodipodi:nodetypes="sccccscssccscssssccccssscccssccss" />
      <path
         d="m 231.81213,-38.19007 c -0.50518,0 -0.93818,-0.180419 -1.29901,-0.541257 -0.36085,-0.360838 -0.54127,-0.805871 -0.54127,-1.3351 0,-0.52923 0.18042,-0.962236 0.54127,-1.299018 0.36083,-0.360838 0.79383,-0.541257 1.29901,-0.541257 0.50517,0 0.93818,0.180419 1.29902,0.541257 0.36083,0.336782 0.54124,0.769788 0.54124,1.299018 0,0.529229 -0.18041,0.974262 -0.54124,1.3351 -0.36084,0.360838 -0.79385,0.541257 -1.29902,0.541257 z m 1.26293,5.210997 v 16.829347 c 0,1.13737 -0.1711,1.378057 -1.22511,1.378057 -1.16323,0 -1.30076,-0.285572 -1.30076,-1.477158 v -16.900132 c 0,-1.002779 0.19341,-1.324476 1.22997,-1.324476 1.10375,0 1.2959,0.423056 1.2959,1.494362 z"
         style="font-weight:300;font-size:22.5778px;line-height:84.8;font-family:Poppins;-inkscape-font-specification:'Poppins Light';letter-spacing:0.529167px;word-spacing:0px;fill:#000000;fill-opacity:1;stroke-width:0.422856"
         id="path334618"
         sodipodi:nodetypes="ssscscssscccsccc" />
      <path
         d="m 248.28207,-14.483 q -2.77845,0 -5.01566,-1.226849 -2.2011,-1.262934 -3.50012,-3.536214 -1.26295,-2.309366 -1.26295,-5.37649 0,-3.067125 1.29902,-5.340405 1.29902,-2.309364 3.53622,-3.536215 2.23719,-1.262934 5.01565,-1.262934 2.77845,0 5.01566,1.262934 2.27328,1.226851 3.53621,3.536215 1.29901,2.27328 1.29901,5.340405 0,3.031042 -1.29901,5.340406 -1.29902,2.309364 -3.5723,3.572298 -2.27328,1.226849 -5.05173,1.226849 z m 0,-2.201111 q 1.94852,0 3.60838,-0.866013 1.65986,-0.902096 2.67019,-2.670203 1.04644,-1.804191 1.04644,-4.402226 0,-2.598034 -1.01035,-4.366143 -1.01035,-1.804191 -2.67019,-2.670202 -1.65986,-0.902096 -3.60838,-0.902096 -1.94854,0 -3.60839,0.902096 -1.65985,0.866011 -2.6702,2.670202 -0.97426,1.768109 -0.97426,4.366143 0,2.598035 0.97426,4.402226 1.01035,1.768107 2.63412,2.670203 1.65985,0.866013 3.60838,0.866013 z"
         style="font-weight:300;font-size:22.5778px;line-height:84.8;font-family:Poppins;-inkscape-font-specification:'Poppins Light';letter-spacing:0.529167px;word-spacing:0px;fill:#000000;fill-opacity:1;stroke-width:0.422856"
         id="path334620" />
      <path
         d="m 272.90696,-34.834274 c 2.35747,0 4.28195,0.733705 5.77342,2.201114 1.49146,1.443353 2.23719,3.548242 2.23719,6.314668 v 10.780734 c 0,0.566366 -0.23652,0.766089 -0.78252,0.766089 h -0.83366 c -0.62794,0 -0.87361,-0.270184 -0.87361,-0.775671 v -10.482482 c 0,-2.140973 -0.54126,-3.776773 -1.62377,-4.9074 -1.05845,-1.130625 -2.51383,-1.695938 -4.36614,-1.695938 -1.90041,0 -3.41594,0.601397 -4.54657,1.804191 -1.13062,1.202794 -1.69593,2.970901 -1.69593,5.30432 v 9.996474 c 0,0.434121 -0.17394,0.756506 -0.74978,0.756506 h -0.9678 c -0.53469,0 -0.80829,-0.258856 -0.80829,-0.852328 v -17.700722 c 0,-0.874664 0.21546,-1.148716 1.26649,-1.148716 1.13959,0 1.25938,0.379429 1.25938,1.099051 v 1.592698 c 0.62545,-1.202794 1.52755,-1.65153 2.70628,-2.276983 1.17873,-0.649509 2.51384,-0.775605 4.00531,-0.775605 z"
         style="font-weight:300;font-size:22.5778px;line-height:84.8;font-family:Poppins;-inkscape-font-specification:'Poppins Light';letter-spacing:0.529167px;word-spacing:0px;fill:#000000;fill-opacity:1;stroke-width:0.422856"
         id="path334622"
         sodipodi:nodetypes="scsccccscssscccccccccs" />
      <path
         d="m 138.32369,-25.6329 c 0,0.866012 -0.024,1.527549 -0.0721,1.984611 h -16.34603 c 0.0722,1.491465 0.433,2.766426 1.08251,3.824885 0.64951,1.058459 1.50349,1.864331 2.56195,2.417616 1.05846,0.529229 2.21314,0.793843 3.46405,0.793843 1.6358,0 3.00698,-0.396922 4.11355,-1.190765 0.56903,-0.45483 1.03683,-0.930907 1.40646,-1.450632 0.96614,-1.284177 0.77448,-1.383315 2.46919,-1.686204 0.57505,-0.06585 1.03175,-0.07462 1.03175,-0.07462 -0.48111,1.92447 -1.51552,3.50013 -3.10321,4.72698 -1.56363,1.202794 -3.53621,1.804191 -5.91774,1.804191 -1.8523,0 -3.51216,-0.40895 -4.97957,-1.226849 -1.46741,-0.841956 -2.62209,-2.020694 -3.46404,-3.536214 -0.81791,-1.539577 -1.22686,-3.331741 -1.22686,-5.37649 0,-2.04475 0.40895,-3.836913 1.22686,-5.376489 0.81789,-1.539576 1.96055,-2.718314 3.42796,-3.536214 1.46741,-0.817901 3.13929,-1.226851 5.01565,-1.226851 1.87636,0 3.51216,0.40895 4.90739,1.226851 1.4193,0.8179 2.50182,1.92447 3.24755,3.319711 0.76979,1.371185 1.15468,2.898734 1.15468,4.582645 z m -2.56195,-0.07217 c 0.0241,-1.467409 -0.27663,-2.718314 -0.9021,-3.752717 -0.60139,-1.034403 -1.43132,-1.816219 -2.48977,-2.345448 -1.05847,-0.52923 -2.21315,-0.793845 -3.46405,-0.793845 -1.87636,0 -3.47608,0.601397 -4.79915,1.804191 -1.32307,1.202794 -2.05678,2.898734 -2.20111,5.087819 z"
         style="font-weight:300;font-size:22.5778px;line-height:84.8;font-family:Poppins;-inkscape-font-specification:'Poppins Light';letter-spacing:0.529167px;word-spacing:0px;fill:#000000;fill-opacity:1;stroke-width:0.422856"
         id="path2345"
         sodipodi:nodetypes="sccscscccccsccssssccsccssscc" />
    </g>
  </g>
</svg>
