<?xml version="1.0" encoding="UTF-8" standalone="no"?>
<!-- Created with Inkscape (http://www.inkscape.org/) -->

<svg
   width="1100"
   height="800"
   viewBox="0 0 291.04167 211.66666"
   version="1.1"
   id="svg5"
   sodipodi:docname="dfbanner.svg"
   inkscape:export-filename="/Users/lemonorange/websites/mywebsite/assets/deepfusionBG.png"
   inkscape:export-xdpi="132"
   inkscape:export-ydpi="132"
   inkscape:version="1.1 (c4e8f9e, 2021-05-24)"
   xmlns:inkscape="http://www.inkscape.org/namespaces/inkscape"
   xmlns:sodipodi="http://sodipodi.sourceforge.net/DTD/sodipodi-0.dtd"
   xmlns:xlink="http://www.w3.org/1999/xlink"
   xmlns="http://www.w3.org/2000/svg"
   xmlns:svg="http://www.w3.org/2000/svg">
  <sodipodi:namedview
     id="namedview7"
     pagecolor="#505050"
     bordercolor="#ffffff"
     borderopacity="1"
     inkscape:pageshadow="0"
     inkscape:pageopacity="0"
     inkscape:pagecheckerboard="1"
     inkscape:document-units="px"
     showgrid="false"
     units="px"
     inkscape:snap-page="true"
     inkscape:snap-global="false"
     inkscape:zoom="2.1466257"
     inkscape:cx="530.60018"
     inkscape:cy="371.74622"
     inkscape:window-width="1440"
     inkscape:window-height="900"
     inkscape:window-x="0"
     inkscape:window-y="0"
     inkscape:window-maximized="0"
     inkscape:current-layer="layer3" />
  <defs
     id="defs2">
    <linearGradient
       inkscape:collect="always"
       id="linearGradient23574">
      <stop
         style="stop-color:#ff8509;stop-opacity:1"
         offset="0"
         id="stop23568" />
      <stop
         style="stop-color:#ff09c7;stop-opacity:1"
         offset="0.75323302"
         id="stop23570" />
      <stop
         style="stop-color:#8a07ff;stop-opacity:1"
         offset="1"
         id="stop23572" />
    </linearGradient>
    <linearGradient
       inkscape:collect="always"
       id="linearGradient23183">
      <stop
         style="stop-color:#ffa103;stop-opacity:1"
         offset="0"
         id="stop23179" />
      <stop
         style="stop-color:#ff09f6;stop-opacity:1"
         offset="0.39210483"
         id="stop23500" />
      <stop
         style="stop-color:#ac01ff;stop-opacity:1"
         offset="1"
         id="stop23181" />
    </linearGradient>
    <linearGradient
       id="linearGradient1820">
      <stop
         style="stop-color:#ff8900;stop-opacity:1"
         offset="0"
         id="stop1816" />
      <stop
         style="stop-color:#ff477e;stop-opacity:1"
         offset="0.47171944"
         id="stop1824" />
      <stop
         style="stop-color:#ce00ff;stop-opacity:1"
         offset="1"
         id="stop1818" />
    </linearGradient>
    <linearGradient
       xlink:href="#linearGradient1820"
       id="linearGradient1822"
       x1="123.6694"
       y1="-3.6604049"
       x2="8.6280975"
       y2="122.88503"
       gradientUnits="userSpaceOnUse"
       gradientTransform="matrix(0.37666595,0,0,0.37666595,120.36772,80.320383)" />
    <filter
       inkscape:collect="always"
       style="color-interpolation-filters:sRGB"
       id="filter1873"
       x="-0.12917276"
       y="-0.12734903"
       width="1.2583455"
       height="1.2546981">
      <feGaussianBlur
         inkscape:collect="always"
         stdDeviation="2.7075822"
         id="feGaussianBlur1875" />
    </filter>
    <radialGradient
       inkscape:collect="always"
       xlink:href="#linearGradient23574"
       id="radialGradient23566"
       gradientUnits="userSpaceOnUse"
       gradientTransform="matrix(-0.98947229,0.0198631,-0.00948413,-0.47245591,358.66882,169.95809)"
       cx="185.17406"
       cy="171.12228"
       fx="185.17406"
       fy="171.12228"
       r="38.65543" />
    <radialGradient
       inkscape:collect="always"
       xlink:href="#linearGradient23183"
       id="radialGradient26235"
       gradientUnits="userSpaceOnUse"
       gradientTransform="matrix(-0.93868425,-0.03287843,0.01654161,-0.47226148,345.00082,179.50444)"
       cx="182.545"
       cy="162.35342"
       fx="182.545"
       fy="162.35342"
       r="38.65543" />
    <radialGradient
       inkscape:collect="always"
       xlink:href="#linearGradient23183"
       id="radialGradient26237"
       gradientUnits="userSpaceOnUse"
       gradientTransform="matrix(-0.93868425,-0.03287843,0.01654161,-0.47226148,345.00082,179.50444)"
       cx="182.545"
       cy="162.35342"
       fx="182.545"
       fy="162.35342"
       r="38.65543" />
    <radialGradient
       inkscape:collect="always"
       xlink:href="#linearGradient23183"
       id="radialGradient26239"
       gradientUnits="userSpaceOnUse"
       gradientTransform="matrix(-0.93868425,-0.03287843,0.01654161,-0.47226148,345.00082,179.50444)"
       cx="182.545"
       cy="162.35342"
       fx="182.545"
       fy="162.35342"
       r="38.65543" />
    <radialGradient
       inkscape:collect="always"
       xlink:href="#linearGradient23183"
       id="radialGradient26241"
       gradientUnits="userSpaceOnUse"
       gradientTransform="matrix(-0.93868425,-0.03287843,0.01654161,-0.47226148,345.00082,179.50444)"
       cx="182.545"
       cy="162.35342"
       fx="182.545"
       fy="162.35342"
       r="38.65543" />
    <radialGradient
       inkscape:collect="always"
       xlink:href="#linearGradient23183"
       id="radialGradient26243"
       gradientUnits="userSpaceOnUse"
       gradientTransform="matrix(-0.93868425,-0.03287843,0.01654161,-0.47226148,345.00082,179.50444)"
       cx="182.545"
       cy="162.35342"
       fx="182.545"
       fy="162.35342"
       r="38.65543" />
  </defs>
  <g
     inkscape:groupmode="layer"
     id="layer3"
     inkscape:label="bg">
    <rect
       style="fill:#f6f6f6;fill-opacity:1;stroke:none;stroke-width:0.52916666;stroke-linecap:round;stroke-linejoin:round;stroke-miterlimit:4;stroke-dasharray:none"
       id="rect1149"
       width="291.04166"
       height="211.66666"
       x="0"
       y="0"
       ry="0" />
  </g>
  <g
     inkscape:groupmode="layer"
     id="layer2"
     inkscape:label="shadow"
     style="opacity:0.657051;filter:url(#filter1873)">
    <text
       xml:space="preserve"
       style="font-style:normal;font-weight:normal;font-size:10.5833px;line-height:1.25;font-family:sans-serif;fill:#000000;fill-opacity:1;stroke:none;stroke-width:0.264583"
       x="68.152481"
       y="101.68784"
       id="text4701"><tspan
         sodipodi:role="line"
         id="tspan4699"
         style="stroke-width:0.264583"
         x="68.152481"
         y="101.68784" /></text>
  </g>
  <g
     inkscape:label="content"
     inkscape:groupmode="layer"
     id="layer1">
    <g
       id="g26282"
       transform="matrix(0.83394019,0,0,0.83394019,24.165161,18.190173)">
      <path
         d="m 79.089312,90.513783 q 2.8956,0 5.0038,1.0922 2.1336,1.0668 3.251199,3.0734 1.143,2.0066 1.143,4.7244 0,2.717797 -1.143,4.724397 -1.117599,1.9812 -3.251199,3.048 -2.1082,1.0414 -5.0038,1.0414 h -5.5118 V 90.513783 Z m 0,15.798797 q 3.429,0 5.2324,-1.8034 1.8034,-1.8288 1.8034,-5.105397 0,-3.302 -1.8288,-5.1562 -1.8034,-1.8542 -5.207,-1.8542 h -3.2004 v 13.919197 z"
         style="font-size:25.4px;line-height:1.25;font-family:Poppins;-inkscape-font-specification:Poppins;stroke-width:0.264583"
         id="path23070" />
      <path
         d="m 104.2361,100.72458 q 0,0.6604 -0.0762,1.397 H 93.034705 q 0.127,2.0574 1.397,3.2258 1.2954,1.143 3.1242,1.143 1.4986,0 2.489195,-0.6858 1.016,-0.7112 1.4224,-1.8796 h 2.4892 q -0.5588,2.0066 -2.2352,3.2766 -1.6764,1.2446 -4.165595,1.2446 -1.9812,0 -3.556,-0.889 -1.5494,-0.889 -2.4384,-2.5146 -0.889,-1.651 -0.889,-3.81 0,-2.158997 0.8636,-3.784597 0.8636,-1.6256 2.413,-2.4892 1.5748,-0.889 3.6068,-0.889 1.9812,0 3.505195,0.8636 1.524,0.8636 2.3368,2.3876 0.8382,1.4986 0.8382,3.403597 z m -2.3876,-0.4826 q 0,-1.320797 -0.5842,-2.260597 -0.5842,-0.9652 -1.600195,-1.4478 -0.9906,-0.508 -2.2098,-0.508 -1.7526,0 -2.9972,1.1176 -1.2192,1.1176 -1.397,3.098797 z"
         style="font-size:25.4px;line-height:1.25;font-family:Poppins;-inkscape-font-specification:Poppins;stroke-width:0.264583"
         id="path23072" />
      <path
         d="m 119.96228,100.72458 q 0,0.6604 -0.0762,1.397 h -11.1252 q 0.127,2.0574 1.397,3.2258 1.2954,1.143 3.1242,1.143 1.4986,0 2.4892,-0.6858 1.016,-0.7112 1.4224,-1.8796 h 2.4892 q -0.5588,2.0066 -2.2352,3.2766 -1.6764,1.2446 -4.1656,1.2446 -1.9812,0 -3.556,-0.889 -1.5494,-0.889 -2.4384,-2.5146 -0.889,-1.651 -0.889,-3.81 0,-2.158997 0.8636,-3.784597 0.8636,-1.6256 2.413,-2.4892 1.5748,-0.889 3.6068,-0.889 1.9812,0 3.5052,0.8636 1.524,0.8636 2.3368,2.3876 0.8382,1.4986 0.8382,3.403597 z m -2.3876,-0.4826 q 0,-1.320797 -0.5842,-2.260597 -0.5842,-0.9652 -1.6002,-1.4478 -0.9906,-0.508 -2.2098,-0.508 -1.7526,0 -2.9972,1.1176 -1.2192,1.1176 -1.397,3.098797 z"
         style="font-size:25.4px;line-height:1.25;font-family:Poppins;-inkscape-font-specification:Poppins;stroke-width:0.264583"
         id="path23074" />
      <path
         d="m 125.29985,96.863783 q 0.6858,-1.1938 2.032,-1.9812 1.3716,-0.8128 3.175,-0.8128 1.8542,0 3.3528,0.889 1.524,0.889 2.3876,2.5146 0.8636,1.6002 0.8636,3.733797 0,2.1082 -0.8636,3.7592 -0.8636,1.651 -2.3876,2.5654 -1.4986,0.9144 -3.3528,0.9144 -1.778,0 -3.1496,-0.7874 -1.3462,-0.8128 -2.0574,-2.0066 v 9.1694 h -2.3114 V 94.298383 h 2.3114 z m 9.4488,4.343397 q 0,-1.574797 -0.635,-2.743197 -0.635,-1.1684 -1.7272,-1.778 -1.0668,-0.6096 -2.3622,-0.6096 -1.27,0 -2.3622,0.635 -1.0668,0.6096 -1.7272,1.8034 -0.635,1.1684 -0.635,2.717797 0,1.5748 0.635,2.7686 0.6604,1.1684 1.7272,1.8034 1.0922,0.6096 2.3622,0.6096 1.2954,0 2.3622,-0.6096 1.0922,-0.635 1.7272,-1.8034 0.635,-1.1938 0.635,-2.794 z"
         style="font-size:25.4px;line-height:1.25;font-family:Poppins;-inkscape-font-specification:Poppins;stroke-width:0.264583"
         id="path23076" />
    </g>
    <path
       style="color:#000000;font-style:normal;font-variant:normal;font-weight:normal;font-stretch:normal;font-size:medium;line-height:normal;font-family:sans-serif;font-variant-ligatures:normal;font-variant-position:normal;font-variant-caps:normal;font-variant-numeric:normal;font-variant-alternates:normal;font-variant-east-asian:normal;font-feature-settings:normal;font-variation-settings:normal;text-indent:0;text-align:start;text-decoration:none;text-decoration-line:none;text-decoration-style:solid;text-decoration-color:#000000;letter-spacing:normal;word-spacing:normal;text-transform:none;writing-mode:lr-tb;direction:ltr;text-orientation:mixed;dominant-baseline:auto;baseline-shift:baseline;text-anchor:start;white-space:normal;shape-padding:0;shape-margin:0;inline-size:0;clip-rule:nonzero;display:inline;overflow:visible;visibility:visible;opacity:0.657051;isolation:auto;mix-blend-mode:normal;color-interpolation:sRGB;color-interpolation-filters:linearRGB;solid-color:#000000;solid-opacity:1;fill:#000000;fill-opacity:1;fill-rule:nonzero;stroke:none;stroke-width:0.5;stroke-linecap:square;stroke-linejoin:round;stroke-miterlimit:4;stroke-dasharray:none;stroke-dashoffset:0;stroke-opacity:1;filter:url(#filter1873);color-rendering:auto;image-rendering:auto;shape-rendering:auto;text-rendering:auto;enable-background:accumulate;stop-color:#000000"
       d="m 140.00072,84.026549 c -4.7375,0 -8.58975,3.85225 -8.58975,8.58975 0,2.40367 0.99744,4.57294 2.59326,6.13333 h -4.7944 l 0.0419,7.5e-4 c -0.16136,-0.006 -0.33501,-0.009 -0.52012,-0.004 h -7.5e-4 c -0.162,0.004 -0.23583,0.017 -0.22071,0.0162 -0.0856,0.005 -0.13902,0.01 -0.1589,0.011 -0.007,1.9e-4 -0.0132,4.5e-4 -0.0199,7.6e-4 -0.0522,0.004 -0.12606,0.008 -0.22218,0.0177 -0.002,-1e-5 -0.004,-1e-5 -0.006,0 -0.12029,0.0124 -0.23144,0.0275 -0.33253,0.0419 -0.11898,0.0163 -0.24103,0.0353 -0.36637,0.0581 0.12717,-0.0233 0.13335,-0.0284 -0.0427,0.005 l -7.5e-4,7.5e-4 c 0.0481,-0.009 0.0323,-0.008 -0.0478,0.008 -3.40263,0.656024 -6.08226,3.309561 -6.77263,6.700561 -0.0472,0.23172 -0.0712,0.43337 -0.0934,0.60325 -0.003,0.0234 -0.005,0.038 -0.004,0.0331 -0.003,0.0183 -0.006,0.0367 -0.008,0.0552 -0.0101,0.0838 -0.023,0.1853 -0.0331,0.30531 v 7.5e-4 c -0.003,0.0307 -0.003,0.0472 -0.004,0.0508 -2.5e-4,9.8e-4 -4.9e-4,0.002 -7.5e-4,0.003 -0.0116,0.14823 -0.0167,0.28792 -0.0206,0.41854 -0.002,0.0483 -0.008,0.13579 -0.008,0.26337 0,0.22095 0.0112,0.42839 0.025,0.62238 0,10e-4 0,0.003 0,0.004 0.001,0.014 0.004,0.0806 0.0118,0.1692 0.002,0.0201 -0.002,-0.008 7.5e-4,0.0191 h 7.5e-4 c 2.4e-4,0.003 -2.4e-4,0.002 0,0.004 0.0125,0.11504 0.0413,0.22774 0.0853,0.33474 0.16437,1.22074 0.54135,2.37918 1.16458,3.38337 0.36981,0.61263 3.13455,5.39726 5.75666,9.94633 2.62542,4.55482 5.14605,8.93625 5.14605,8.93625 l 7.5e-4,0.002 c 2.36898,4.10319 7.63293,5.51069 11.7355,3.14207 4.10234,-2.36849 5.51377,-7.62902 3.14502,-11.73182 l -3.60263,-6.24152 h 7.20448 c 4.7375,0 8.58975,-3.85224 8.58975,-8.58975 0,-2.40365 -0.99745,-4.57295 -2.59326,-6.13335 h 5.046 c 4.7375,0 8.58975,-3.852251 8.58975,-8.589751 0,-4.7375 -3.85225,-8.58975 -8.58975,-8.58975 z m 0,2.45642 h 22.08425 c 3.41898,0 6.13259,2.71435 6.13259,6.13333 0,3.41898 -2.71361,6.13333 -6.13259,6.13333 h -11.04249 c -1.88193,0 -2.12634,2.407541 0,2.456421 3.41871,0.0426 6.13332,2.71437 6.13332,6.13335 0,3.41898 -2.71434,6.13259 -6.13332,6.13259 h -9.33131 c -0.94576,2e-5 -1.53679,1.02389 -1.06379,1.84287 l 4.66565,8.0836 c 1.70949,2.96091 0.71536,6.66665 -2.24601,8.3764 -2.96066,1.70934 -6.66898,0.71781 -8.37861,-2.2416 l -7.6e-4,-0.002 c -7.5e-4,-0.001 -2.52039,-4.38103 -5.14605,-8.93625 -2.62606,-4.55591 -5.31285,-9.21285 -5.78975,-10.00221 -0.003,-0.004 -0.005,-0.008 -0.008,-0.0125 -0.49785,-0.80217 -0.81293,-1.73075 -0.89384,-2.73598 -0.002,-0.0179 -0.004,-0.0359 -0.006,-0.0537 -2.5e-4,-0.001 -4.9e-4,-0.003 -7.6e-4,-0.004 -0.0114,-0.15961 -0.0184,-0.30874 -0.0184,-0.44803 0,-0.0232 0.003,-0.0853 0.007,-0.18833 v -0.001 c 0.003,-0.11058 0.008,-0.21052 0.0155,-0.30016 l -7.1e-4,0.002 c 0.002,-0.0276 0.004,-0.0416 0.004,-0.0419 0.005,-0.0559 0.0135,-0.12846 0.0243,-0.21849 0.003,-0.0202 0.007,-0.0488 0.008,-0.0596 2.4e-4,-0.001 4.9e-4,-0.002 7.1e-4,-0.004 0.0233,-0.1785 0.0427,-0.32348 0.0647,-0.43184 0.49287,-2.42089 2.40212,-4.31154 4.83339,-4.77897 0.001,-2.5e-4 0.003,-5e-4 0.004,-7.6e-4 -0.0515,0.0101 -0.0386,0.008 0.0382,-0.007 l -10e-4,7.6e-4 c -0.16703,0.0319 -0.16045,0.031 0.0199,-0.002 l 0.002,-7.5e-4 c 0.084,-0.0153 0.17261,-0.0284 0.26631,-0.0412 0.002,-4.9e-4 0.005,-9.8e-4 0.007,-0.002 0.0881,-0.0126 0.16695,-0.023 0.23615,-0.0302 0.027,-0.002 0.0744,-0.005 0.13316,-0.01 l 0.0191,-0.001 c 0.0676,-0.004 0.11982,-0.009 0.1361,-0.01 h 0.002 c 0.13995,-0.008 0.1915,-0.0135 0.15302,-0.0125 0.11233,-0.003 0.23643,-0.002 0.37151,0.003 0.0137,4.9e-4 0.0275,7.2e-4 0.0412,7.6e-4 h 10.79089 c 1.60389,-0.0334 1.60389,-2.423051 0,-2.456431 -3.41897,0 -6.13332,-2.71434 -6.13332,-6.13332 0,-3.41898 2.71435,-6.13333 6.13332,-6.13333 z"
       id="path1814-0"
       transform="matrix(0.83394019,0,0,0.83394019,24.165161,18.190173)" />
    <path
       d="m 149.39036,93.673254 v 1.567474 h -6.41817 v 4.977792 h 5.21079 v 1.56747 h -5.21079 v 6.65117 h -1.92757 V 93.673254 Z"
       style="font-size:25.4px;line-height:1.25;font-family:Poppins;-inkscape-font-specification:Poppins;fill:url(#radialGradient26235);fill-opacity:1;stroke-width:0.220646"
       id="path23078" />
    <path
       d="m 141.74493,118.02496 q 0.89886,0 1.45615,0.5483 0.5573,0.53931 0.5573,1.56402 v 2.90331 h -0.80898 v -2.78646 q 0,-0.73707 -0.36853,-1.12358 -0.36853,-0.39549 -1.00673,-0.39549 -0.64717,0 -1.03368,0.40448 -0.37752,0.40449 -0.37752,1.17751 v 2.72354 h -0.81796 v -4.92574 h 0.81796 v 0.70111 q 0.24269,-0.37753 0.65616,-0.58426 0.42247,-0.20674 0.92583,-0.20674 z"
       style="font-size:9.87778px;line-height:1.25;font-family:Poppins;-inkscape-font-specification:Poppins;stroke-width:0.240766"
       id="path23043" />
    <path
       d="m 145.94822,121.90803 -1.00672,2.41794 h -0.5483 l 0.65616,-2.41794 z"
       style="font-size:9.87778px;line-height:1.25;font-family:Poppins;-inkscape-font-specification:Poppins;stroke-width:0.240766"
       id="path23045" />
    <path
       d="m 98.327323,116.77554 v 6.26505 H 97.50936 v -6.26505 z"
       style="font-size:9.87778px;line-height:1.25;font-family:Poppins;-inkscape-font-specification:Poppins;stroke-width:0.240766"
       id="path23025" />
    <path
       d="m 102.12135,118.02496 q 0.89886,0 1.45616,0.5483 0.55729,0.53931 0.55729,1.56402 v 2.90331 h -0.80897 v -2.78646 q 0,-0.73707 -0.36854,-1.12358 -0.36853,-0.39549 -1.00672,-0.39549 -0.64718,0 -1.03369,0.40448 -0.37752,0.40449 -0.37752,1.17751 v 2.72354 h -0.817963 v -4.92574 h 0.817963 v 0.70111 q 0.24269,-0.37753 0.65617,-0.58426 0.42246,-0.20674 0.92582,-0.20674 z"
       style="font-size:9.87778px;line-height:1.25;font-family:Poppins;-inkscape-font-specification:Poppins;stroke-width:0.240766"
       id="path23027" />
    <path
       d="m 107.87968,118.02496 q 0.89886,0 1.45615,0.5483 0.55729,0.53931 0.55729,1.56402 v 2.90331 h -0.80897 v -2.78646 q 0,-0.73707 -0.36854,-1.12358 -0.36853,-0.39549 -1.00672,-0.39549 -0.64718,0 -1.03368,0.40448 -0.37753,0.40449 -0.37753,1.17751 v 2.72354 h -0.81796 v -4.92574 h 0.81796 v 0.70111 q 0.2427,-0.37753 0.65617,-0.58426 0.42246,-0.20674 0.92583,-0.20674 z"
       style="font-size:9.87778px;line-height:1.25;font-family:Poppins;-inkscape-font-specification:Poppins;stroke-width:0.240766"
       id="path23029" />
    <path
       d="m 113.38631,123.12149 q -0.69212,0 -1.2584,-0.3146 -0.55729,-0.3146 -0.88088,-0.88987 -0.3146,-0.58426 -0.3146,-1.3483 0,-0.75503 0.32359,-1.33031 0.33258,-0.58425 0.89886,-0.88987 0.56628,-0.31459 1.26738,-0.31459 0.70112,0 1.26741,0.31459 0.56628,0.30562 0.88986,0.88089 0.33258,0.57527 0.33258,1.33929 0,0.76404 -0.34157,1.3483 -0.33256,0.57527 -0.90784,0.88987 -0.57527,0.3146 -1.27639,0.3146 z m 0,-0.71909 q 0.44045,0 0.82695,-0.20673 0.38652,-0.20675 0.62022,-0.62021 0.2427,-0.41348 0.2427,-1.00674 0,-0.59324 -0.23372,-1.00672 -0.23369,-0.41346 -0.61122,-0.61122 -0.37751,-0.20673 -0.81796,-0.20673 -0.44942,0 -0.82695,0.20673 -0.36853,0.19776 -0.59324,0.61122 -0.22472,0.41348 -0.22472,1.00672 0,0.60225 0.21572,1.01572 0.22472,0.41348 0.59325,0.62022 0.36854,0.19774 0.80897,0.19774 z"
       style="font-size:9.87778px;line-height:1.25;font-family:Poppins;-inkscape-font-specification:Poppins;stroke-width:0.240766"
       id="path23031" />
    <path
       d="m 150.58409,123.12149 q -0.56629,0 -1.01572,-0.18875 -0.44942,-0.19776 -0.7101,-0.53933 -0.26067,-0.35055 -0.28764,-0.79998 h 0.84493 q 0.036,0.36853 0.34158,0.60224 0.31459,0.2337 0.81795,0.2337 0.46741,0 0.73707,-0.20673 0.26966,-0.20674 0.26966,-0.52135 0,-0.32359 -0.28764,-0.47639 -0.28763,-0.1618 -0.88987,-0.3146 -0.5483,-0.14382 -0.89886,-0.28764 -0.34156,-0.15281 -0.59324,-0.44044 -0.2427,-0.29662 -0.2427,-0.77302 0,-0.37752 0.22472,-0.69212 0.22472,-0.31461 0.63819,-0.49438 0.41347,-0.18875 0.9438,-0.18875 0.81796,0 1.32133,0.41347 0.50336,0.41348 0.53931,1.13257 h -0.81796 q -0.0269,-0.38653 -0.31461,-0.62022 -0.27864,-0.2337 -0.75503,-0.2337 -0.44045,0 -0.70112,0.18875 -0.26066,0.18877 -0.26066,0.49438 0,0.24269 0.1528,0.40449 0.1618,0.1528 0.3955,0.25168 0.24269,0.0899 0.66515,0.20674 0.53034,0.14381 0.86291,0.28763 0.33258,0.13483 0.56627,0.41347 0.2427,0.27865 0.2517,0.72808 0,0.40449 -0.22472,0.72808 -0.22472,0.32358 -0.63819,0.51236 -0.40449,0.17976 -0.93481,0.17976 z"
       style="font-size:9.87778px;line-height:1.25;font-family:Poppins;-inkscape-font-specification:Poppins;stroke-width:0.240766"
       id="path23047" />
    <path
       d="m 153.95017,117.31486 q -0.2337,0 -0.39549,-0.1618 -0.1618,-0.16179 -0.1618,-0.39548 0,-0.23372 0.1618,-0.39552 0.16179,-0.16179 0.39549,-0.16179 0.22472,0 0.37753,0.16179 0.16179,0.1618 0.16179,0.39552 0,0.23369 -0.16179,0.39548 -0.15281,0.1618 -0.37753,0.1618 z m 0.3955,0.79999 v 4.92574 h -0.81795 v -4.92574 z"
       style="font-size:9.87778px;line-height:1.25;font-family:Poppins;-inkscape-font-specification:Poppins;stroke-width:0.240766"
       id="path23049" />
    <path
       d="m 161.66324,118.02496 q 0.57526,0 1.02468,0.24268 0.44944,0.2337 0.71011,0.71011 0.26067,0.4764 0.26067,1.15953 v 2.90331 h -0.80898 v -2.78646 q 0,-0.73707 -0.36853,-1.12358 -0.35955,-0.39549 -0.97975,-0.39549 -0.6382,0 -1.01572,0.41348 -0.37752,0.40448 -0.37752,1.17749 v 2.71456 h -0.80897 v -2.78646 q 0,-0.73707 -0.36853,-1.12358 -0.35955,-0.39549 -0.97977,-0.39549 -0.63819,0 -1.01571,0.41348 -0.37752,0.40448 -0.37752,1.17749 v 2.71456 h -0.81796 v -4.92574 h 0.81796 v 0.71009 q 0.2427,-0.38651 0.64718,-0.59324 0.41348,-0.20674 0.90785,-0.20674 0.62021,0 1.09661,0.27864 0.4764,0.27864 0.7101,0.81796 0.20674,-0.52133 0.68313,-0.80897 0.4764,-0.28763 1.06067,-0.28763 z"
       style="font-size:9.87778px;line-height:1.25;font-family:Poppins;-inkscape-font-specification:Poppins;stroke-width:0.240766"
       id="path23051" />
    <path
       d="m 165.80964,119.0227 q 0.2427,-0.42247 0.71909,-0.70111 0.48538,-0.28764 1.12357,-0.28764 0.65617,0 1.1865,0.31459 0.53932,0.31461 0.84493,0.88987 0.30561,0.56629 0.30561,1.32133 0,0.74605 -0.30561,1.33031 -0.30561,0.58426 -0.84493,0.90785 -0.53033,0.32359 -1.1865,0.32359 -0.62919,0 -1.11458,-0.27864 -0.4764,-0.28764 -0.72808,-0.7101 v 3.24488 h -0.81796 v -7.26278 h 0.81796 z m 3.34376,1.53704 q 0,-0.5573 -0.22471,-0.97076 -0.22472,-0.41348 -0.61122,-0.62921 -0.37753,-0.21572 -0.83595,-0.21572 -0.44943,0 -0.83594,0.22471 -0.37752,0.21572 -0.61122,0.63819 -0.22472,0.41348 -0.22472,0.96177 0,0.55731 0.22472,0.97977 0.2337,0.41347 0.61122,0.63819 0.38651,0.21572 0.83594,0.21572 0.45842,0 0.83595,-0.21572 0.3865,-0.22472 0.61122,-0.63819 0.22471,-0.42246 0.22471,-0.98875 z"
       style="font-size:9.87778px;line-height:1.25;font-family:Poppins;-inkscape-font-specification:Poppins;stroke-width:0.240766"
       id="path23053" />
    <path
       d="m 171.88398,116.38904 v 6.65155 h -0.81797 v -6.65155 z"
       style="font-size:9.87778px;line-height:1.25;font-family:Poppins;-inkscape-font-specification:Poppins;stroke-width:0.240766"
       id="path23055" />
    <path
       d="m 173.70051,117.31486 q -0.2337,0 -0.3955,-0.1618 -0.1618,-0.16179 -0.1618,-0.39548 0,-0.23372 0.1618,-0.39552 0.1618,-0.16179 0.3955,-0.16179 0.22472,0 0.37752,0.16179 0.1618,0.1618 0.1618,0.39552 0,0.23369 -0.1618,0.39548 -0.1528,0.1618 -0.37752,0.1618 z m 0.39549,0.79999 v 4.92574 h -0.81795 v -4.92574 z"
       style="font-size:9.87778px;line-height:1.25;font-family:Poppins;-inkscape-font-specification:Poppins;stroke-width:0.240766"
       id="path23057" />
    <path
       d="m 177.49454,118.78899 h -1.03369 v 4.2516 h -0.81796 v -4.2516 h -0.63819 v -0.67414 h 0.63819 v -0.35057 q 0,-0.82695 0.42248,-1.20447 0.43144,-0.3865 1.37524,-0.3865 v 0.68313 q -0.53931,0 -0.76402,0.21572 -0.21574,0.20674 -0.21574,0.69212 v 0.35057 h 1.03369 z"
       style="font-size:9.87778px;line-height:1.25;font-family:Poppins;-inkscape-font-specification:Poppins;stroke-width:0.240766"
       id="path23059" />
    <path
       style="color:#000000;font-style:normal;font-variant:normal;font-weight:normal;font-stretch:normal;font-size:medium;line-height:normal;font-family:sans-serif;font-variant-ligatures:normal;font-variant-position:normal;font-variant-caps:normal;font-variant-numeric:normal;font-variant-alternates:normal;font-variant-east-asian:normal;font-feature-settings:normal;font-variation-settings:normal;text-indent:0;text-align:start;text-decoration:none;text-decoration-line:none;text-decoration-style:solid;text-decoration-color:#000000;letter-spacing:normal;word-spacing:normal;text-transform:none;writing-mode:lr-tb;direction:ltr;text-orientation:mixed;dominant-baseline:auto;baseline-shift:baseline;text-anchor:start;white-space:normal;shape-padding:0;shape-margin:0;inline-size:0;clip-rule:nonzero;display:inline;overflow:visible;visibility:visible;isolation:auto;mix-blend-mode:normal;color-interpolation:sRGB;color-interpolation-filters:linearRGB;solid-color:#000000;solid-opacity:1;vector-effect:none;fill:#ffffff;fill-opacity:1;fill-rule:nonzero;stroke:none;stroke-width:2.04875;stroke-linecap:square;stroke-linejoin:round;stroke-miterlimit:4;stroke-dasharray:none;stroke-dashoffset:0;stroke-opacity:1;color-rendering:auto;image-rendering:auto;shape-rendering:auto;text-rendering:auto;enable-background:accumulate;stop-color:#000000"
       d="m 140.9167,88.349259 c -3.9508,0 -7.16334,3.212545 -7.16334,7.163337 0,2.004514 0.8318,3.813557 2.16262,5.114834 h -3.99824 l 0.0349,6.3e-4 c -0.13456,-0.005 -0.27938,-0.008 -0.43375,-0.004 h -6.2e-4 c -0.1351,0.004 -0.19667,0.0142 -0.18406,0.0135 -0.0714,0.004 -0.11594,0.008 -0.13251,0.009 -0.006,1.6e-4 -0.011,3.7e-4 -0.0166,6.3e-4 -0.0435,0.003 -0.10513,0.007 -0.18529,0.0147 -0.002,0 -0.003,0 -0.005,0 -0.10031,0.0103 -0.19301,0.0229 -0.27731,0.035 -0.0992,0.0136 -0.201,0.0295 -0.30553,0.0485 0.10605,-0.0195 0.11121,-0.0237 -0.0356,0.004 l -6.2e-4,6.3e-4 c 0.0401,-0.008 0.0269,-0.006 -0.0399,0.007 -2.83759,0.54708 -5.07224,2.75997 -5.64796,5.58786 -0.0394,0.19325 -0.0594,0.36141 -0.0779,0.50308 -0.003,0.0195 -0.004,0.0317 -0.003,0.0276 -0.002,0.0153 -0.005,0.0306 -0.007,0.046 -0.008,0.0699 -0.0192,0.15453 -0.0276,0.25461 v 6.2e-4 c -0.002,0.0256 -0.002,0.0394 -0.003,0.0424 -2.1e-4,8.1e-4 -4.1e-4,0.002 -6.3e-4,0.002 -0.01,0.12361 -0.0139,0.24011 -0.0172,0.34904 -0.002,0.0403 -0.007,0.11324 -0.007,0.21963 0,0.18426 0.009,0.35725 0.0208,0.51903 0,8.3e-4 0,0.002 0,0.003 8.3e-4,0.0117 0.003,0.0672 0.01,0.14111 0.002,0.0168 -0.002,-0.007 6.3e-4,0.0159 h 6.2e-4 c 2e-4,0.003 -2e-4,0.002 0,0.003 0.0104,0.0959 0.0344,0.18992 0.0711,0.27915 0.13707,1.01803 0.45145,1.9841 0.97119,2.82153 0.3084,0.5109 2.61402,4.50099 4.80071,8.29465 2.18944,3.79844 4.2915,7.45229 4.2915,7.45229 l 6.2e-4,0.002 c 1.97559,3.42182 6.36541,4.59559 9.78671,2.6203 3.4211,-1.97518 4.59815,-6.36215 2.62275,-9.78364 l -3.00437,-5.20505 h 6.0081 c 3.95079,0 7.16334,-3.21254 7.16334,-7.16334 0,-2.0045 -0.83181,-3.81356 -2.16262,-5.11485 h 4.20806 c 3.95079,0 7.16334,-3.212544 7.16334,-7.163335 0,-3.950792 -3.21255,-7.163337 -7.16334,-7.163337 z m 0,2.048509 h 18.41694 c 2.85122,0 5.11421,2.263603 5.11421,5.114828 0,2.851224 -2.26299,5.114834 -5.11421,5.114834 h -9.20878 c -1.56941,0 -1.77324,2.00774 0,2.04851 2.851,0.0355 5.11483,2.26362 5.11483,5.11484 0,2.85123 -2.2636,5.11422 -5.11483,5.11422 h -7.78175 c -0.78871,1e-5 -1.28159,0.85386 -0.88714,1.53684 l 3.89088,6.74124 c 1.42561,2.46922 0.59656,5.55959 -1.87304,6.98542 -2.46902,1.42548 -5.56153,0.59861 -6.98726,-1.86936 l -6.4e-4,-0.002 c -6.2e-4,-8.4e-4 -2.10185,-3.65352 -4.29149,-7.4523 -2.18998,-3.79936 -4.4306,-7.68297 -4.82831,-8.34124 -0.003,-0.003 -0.004,-0.007 -0.007,-0.0104 -0.41518,-0.66896 -0.67794,-1.44334 -0.74541,-2.28164 -0.002,-0.0149 -0.003,-0.0299 -0.005,-0.0448 -2.1e-4,-8.4e-4 -4.1e-4,-0.003 -6.4e-4,-0.003 -0.01,-0.13311 -0.0153,-0.25747 -0.0153,-0.37363 0,-0.0194 0.002,-0.0711 0.006,-0.15706 v -8.3e-4 c 0.002,-0.0922 0.007,-0.17556 0.0129,-0.25032 l -5.9e-4,0.002 c 0.002,-0.023 0.003,-0.0347 0.003,-0.0349 0.004,-0.0466 0.0113,-0.10713 0.0203,-0.18221 0.002,-0.0168 0.006,-0.0407 0.007,-0.0497 2e-4,-8.3e-4 4.1e-4,-0.002 5.9e-4,-0.003 0.0194,-0.14885 0.0356,-0.26976 0.054,-0.36013 0.41102,-2.01888 2.00322,-3.59557 4.03076,-3.98537 8.3e-4,-2.1e-4 0.002,-4.1e-4 0.003,-6.3e-4 -0.0429,0.008 -0.0322,0.007 0.0319,-0.006 l -8.3e-4,6.3e-4 c -0.1393,0.0266 -0.13381,0.0258 0.0166,-0.002 l 0.002,-6.3e-4 c 0.0701,-0.0128 0.14395,-0.0237 0.22209,-0.0344 0.002,-4.1e-4 0.004,-8.2e-4 0.006,-8.3e-4 0.0735,-0.0105 0.13923,-0.0192 0.19694,-0.0252 0.0225,-0.002 0.062,-0.004 0.11105,-0.008 l 0.0159,-0.002 c 0.0564,-0.003 0.0999,-0.008 0.1135,-0.008 h 0.002 c 0.11671,-0.007 0.1597,-0.0113 0.12761,-0.0104 0.0937,-0.002 0.19717,-0.002 0.30982,0.002 0.0114,4.1e-4 0.0229,6e-4 0.0344,6.4e-4 h 8.99895 c 1.33755,-0.0279 1.33755,-2.02068 0,-2.04852 -2.85121,0 -5.11482,-2.263604 -5.11482,-5.114828 0,-2.851223 2.26361,-5.114829 5.11482,-5.114829 z"
       id="path26869" />
    <path
       d="m 118.83003,122.28556 1.52807,-4.17071 h 0.87189 l -1.93254,4.92574 h -0.9528 l -1.93254,-4.92574 h 0.88088 z"
       style="font-size:9.87778px;line-height:1.25;font-family:Poppins;-inkscape-font-specification:Poppins;stroke-width:0.240766"
       id="path23033" />
    <path
       d="m 121.72928,120.55974 q 0,-0.75504 0.30561,-1.32133 0.30561,-0.57526 0.83595,-0.88987 0.53932,-0.31459 1.19548,-0.31459 0.64718,0 1.12357,0.27864 0.4764,0.27864 0.7101,0.70112 v -0.89886 h 0.82696 v 4.92574 h -0.82696 v -0.91683 q -0.24269,0.43145 -0.72808,0.71909 -0.47639,0.27864 -1.11457,0.27864 -0.65618,0 -1.1865,-0.32359 -0.53034,-0.32359 -0.83595,-0.90785 -0.30561,-0.58426 -0.30561,-1.33031 z m 4.17071,0.009 q 0,-0.5573 -0.22471,-0.97077 -0.22471,-0.41347 -0.61122,-0.6292 -0.37753,-0.22472 -0.83595,-0.22472 -0.45842,0 -0.83593,0.21573 -0.37753,0.21573 -0.60224,0.62921 -0.22472,0.41346 -0.22472,0.97077 0,0.56628 0.22472,0.98874 0.22471,0.41347 0.60224,0.63819 0.37751,0.21573 0.83593,0.21573 0.45842,0 0.83595,-0.21573 0.38651,-0.22472 0.61122,-0.63819 0.22471,-0.42246 0.22471,-0.97976 z"
       style="font-size:9.87778px;line-height:1.25;font-family:Poppins;-inkscape-font-specification:Poppins;stroke-width:0.240766"
       id="path23035" />
    <path
       d="m 129.10696,118.78899 v 2.90332 q 0,0.35954 0.1528,0.51235 0.15281,0.14381 0.53033,0.14381 h 0.60224 v 0.69212 h -0.73707 q -0.68313,0 -1.0247,-0.3146 -0.34156,-0.31459 -0.34156,-1.03368 v -2.90332 h -0.63819 v -0.67414 h 0.63819 v -1.24043 h 0.81796 v 1.24043 h 1.28537 v 0.67414 z"
       style="font-size:9.87778px;line-height:1.25;font-family:Poppins;-inkscape-font-specification:Poppins;stroke-width:0.240766"
       id="path23037" />
    <path
       d="m 131.79708,117.31486 q -0.23371,0 -0.39551,-0.1618 -0.16178,-0.16179 -0.16178,-0.39548 0,-0.23372 0.16178,-0.39552 0.1618,-0.16179 0.39551,-0.16179 0.22472,0 0.37752,0.16179 0.16179,0.1618 0.16179,0.39552 0,0.23369 -0.16179,0.39548 -0.1528,0.1618 -0.37752,0.1618 z m 0.39549,0.79999 v 4.92574 h -0.81795 v -4.92574 z"
       style="font-size:9.87778px;line-height:1.25;font-family:Poppins;-inkscape-font-specification:Poppins;stroke-width:0.240766"
       id="path23039" />
    <path
       d="m 135.73493,123.12149 q -0.69212,0 -1.2584,-0.3146 -0.5573,-0.3146 -0.88089,-0.88987 -0.31461,-0.58426 -0.31461,-1.3483 0,-0.75503 0.3236,-1.33031 0.33258,-0.58425 0.89886,-0.88987 0.56628,-0.31459 1.2674,-0.31459 0.7011,0 1.26738,0.31459 0.56628,0.30562 0.88987,0.88089 0.33258,0.57527 0.33258,1.33929 0,0.76404 -0.34156,1.3483 -0.33258,0.57527 -0.90786,0.88987 -0.57526,0.3146 -1.27637,0.3146 z m 0,-0.71909 q 0.44044,0 0.82695,-0.20673 0.38651,-0.20675 0.62021,-0.62021 0.2427,-0.41348 0.2427,-1.00674 0,-0.59324 -0.23371,-1.00672 -0.23371,-0.41346 -0.61122,-0.61122 -0.37753,-0.20673 -0.81796,-0.20673 -0.44944,0 -0.82696,0.20673 -0.36854,0.19776 -0.59324,0.61122 -0.22473,0.41348 -0.22473,1.00672 0,0.60225 0.21574,1.01572 0.22471,0.41348 0.59324,0.62022 0.36853,0.19774 0.80898,0.19774 z"
       style="font-size:9.87778px;line-height:1.25;font-family:Poppins;-inkscape-font-specification:Poppins;stroke-width:0.240766"
       id="path23041" />
    <path
       d="m 178.86193,117.31486 q -0.2337,0 -0.39549,-0.1618 -0.16179,-0.16179 -0.16179,-0.39548 0,-0.23372 0.16179,-0.39552 0.16179,-0.16179 0.39549,-0.16179 0.22473,0 0.37753,0.16179 0.16179,0.1618 0.16179,0.39552 0,0.23369 -0.16179,0.39548 -0.1528,0.1618 -0.37753,0.1618 z m 0.39551,0.79999 v 4.92574 h -0.81796 v -4.92574 z"
       style="font-size:9.87778px;line-height:1.25;font-family:Poppins;-inkscape-font-specification:Poppins;stroke-width:0.240766"
       id="path23061" />
    <path
       d="m 185.14581,120.38896 q 0,0.2337 -0.027,0.49438 h -3.93701 q 0.045,0.72807 0.49438,1.14154 0.45841,0.40449 1.10559,0.40449 0.53034,0 0.88089,-0.24269 0.35954,-0.25168 0.50336,-0.66515 h 0.88088 q -0.19775,0.7101 -0.791,1.15951 -0.59324,0.44045 -1.47413,0.44045 -0.70111,0 -1.2584,-0.3146 -0.5483,-0.3146 -0.86291,-0.88987 -0.31459,-0.58426 -0.31459,-1.3483 0,-0.76402 0.3056,-1.33929 0.30563,-0.57527 0.85392,-0.88089 0.5573,-0.31459 1.27638,-0.31459 0.70111,0 1.24043,0.3056 0.53932,0.30562 0.82695,0.84493 0.29663,0.53034 0.29663,1.20448 z m -0.84493,-0.17078 q 0,-0.46741 -0.20674,-0.79999 -0.20674,-0.34157 -0.56628,-0.51236 -0.35056,-0.17976 -0.78201,-0.17976 -0.62022,0 -1.06065,0.39549 -0.43145,0.3955 -0.49438,1.09662 z"
       style="font-size:9.87778px;line-height:1.25;font-family:Poppins;-inkscape-font-specification:Poppins;stroke-width:0.240766"
       id="path23063" />
    <path
       d="m 185.91111,120.55974 q 0,-0.75504 0.3056,-1.32133 0.30562,-0.57526 0.83595,-0.88987 0.53931,-0.31459 1.20448,-0.31459 0.57527,0 1.06963,0.26965 0.49438,0.26067 0.75505,0.69212 v -2.60668 h 0.82694 v 6.65155 h -0.82694 v -0.92582 q -0.2427,0.44044 -0.71909,0.72808 -0.4764,0.27864 -1.11459,0.27864 -0.65617,0 -1.19548,-0.32359 -0.53033,-0.32359 -0.83595,-0.90785 -0.3056,-0.58426 -0.3056,-1.33031 z m 4.17071,0.009 q 0,-0.5573 -0.22473,-0.97077 -0.2247,-0.41347 -0.61122,-0.6292 -0.37751,-0.22472 -0.83594,-0.22472 -0.45841,0 -0.83593,0.21573 -0.37752,0.21573 -0.60223,0.62921 -0.22472,0.41346 -0.22472,0.97077 0,0.56628 0.22472,0.98874 0.22471,0.41347 0.60223,0.63819 0.37752,0.21573 0.83593,0.21573 0.45843,0 0.83594,-0.21573 0.38652,-0.22472 0.61122,-0.63819 0.22473,-0.42246 0.22473,-0.97976 z"
       style="font-size:9.87778px;line-height:1.25;font-family:Poppins;-inkscape-font-specification:Poppins;stroke-width:0.240766"
       id="path23065" />
    <path
       d="m 192.5517,123.09452 q -0.23369,0 -0.39548,-0.16178 -0.1618,-0.16181 -0.1618,-0.39551 0,-0.2337 0.1618,-0.39549 0.16179,-0.1618 0.39548,-0.1618 0.22473,0 0.37753,0.1618 0.1618,0.16179 0.1618,0.39549 0,0.2337 -0.1618,0.39551 -0.1528,0.16178 -0.37753,0.16178 z"
       style="font-size:9.87778px;line-height:1.25;font-family:Poppins;-inkscape-font-specification:Poppins;stroke-width:0.240766"
       id="path23067" />
    <path
       d="m 162.0129,96.829384 v 11.607776 h -1.92757 v -1.71575 q -0.55074,0.88965 -1.54629,1.39802 -0.97438,0.48719 -2.16058,0.48719 -1.35565,0 -2.43593,-0.55074 -1.08029,-0.57191 -1.71575,-1.69456 -0.61428,-1.12265 -0.61428,-2.73249 v -6.799446 h 1.90638 v 6.545256 q 0,1.71575 0.86847,2.64776 0.86846,0.91083 2.37239,0.91083 1.54629,0 2.43594,-0.95319 0.88965,-0.95319 0.88965,-2.77485 v -6.375806 z"
       style="font-size:25.4px;line-height:1.25;font-family:Poppins;-inkscape-font-specification:Poppins;fill:url(#radialGradient26237);fill-opacity:1;stroke-width:0.220646"
       id="path23080" />
    <path
       d="m 169.39751,108.6278 q -1.33448,0 -2.39358,-0.44482 -1.0591,-0.46601 -1.67338,-1.27093 -0.61428,-0.8261 -0.67783,-1.8852 h 1.99111 q 0.0847,0.86846 0.80492,1.4192 0.74138,0.55073 1.92757,0.55073 1.10147,0 1.73693,-0.48719 0.63547,-0.48719 0.63547,-1.22856 0,-0.76255 -0.67783,-1.12265 -0.67783,-0.38128 -2.09703,-0.74137 -1.2921,-0.33891 -2.1182,-0.67783 -0.80492,-0.36009 -1.39802,-1.03792 -0.57192,-0.69901 -0.57192,-1.821656 0,-0.889647 0.52955,-1.63102 0.52956,-0.741373 1.50393,-1.165015 0.97438,-0.444823 2.22412,-0.444823 1.92757,0 3.11377,0.974375 1.18619,0.974376 1.27092,2.668939 h -1.92757 q -0.0635,-0.910826 -0.74137,-1.46156 -0.65665,-0.550734 -1.7793,-0.550734 -1.03792,0 -1.6522,0.444823 -0.61428,0.444824 -0.61428,1.165015 0,0.571916 0.3601,0.953196 0.38127,0.36009 0.93201,0.5931 0.57191,0.21181 1.56747,0.48718 1.24975,0.33891 2.03348,0.67783 0.78374,0.31773 1.33447,0.97437 0.57192,0.65665 0.5931,1.71575 0,0.9532 -0.52955,1.71575 -0.52955,0.76256 -1.50393,1.20738 -0.95319,0.42364 -2.20293,0.42364 z"
       style="font-size:25.4px;line-height:1.25;font-family:Poppins;-inkscape-font-specification:Poppins;fill:url(#radialGradient26239);fill-opacity:1;stroke-width:0.220646"
       id="path23082" />
    <path
       d="m 177.32986,94.944179 q -0.55073,0 -0.93201,-0.381277 -0.38128,-0.381278 -0.38128,-0.932012 0,-0.550734 0.38128,-0.932011 0.38128,-0.381278 0.93201,-0.381278 0.52955,0 0.88965,0.381278 0.38128,0.381277 0.38128,0.932011 0,0.550734 -0.38128,0.932012 -0.3601,0.381277 -0.88965,0.381277 z m 0.93201,1.885205 V 108.43716 H 176.3343 V 96.829384 Z"
       style="font-size:25.4px;line-height:1.25;font-family:Poppins;-inkscape-font-specification:Poppins;fill:url(#radialGradient23566);fill-opacity:1;stroke-width:0.220646"
       id="path23084" />
    <path
       d="m 186.6096,108.6278 q -1.63102,0 -2.96549,-0.74137 -1.31329,-0.74137 -2.07585,-2.09703 -0.74137,-1.37683 -0.74137,-3.17731 0,-1.77929 0.76255,-3.134946 0.78374,-1.376835 2.11821,-2.097026 1.33447,-0.741372 2.98668,-0.741372 1.6522,0 2.98667,0.741372 1.33447,0.720191 2.09702,2.075844 0.78374,1.355658 0.78374,3.156128 0,1.80048 -0.80492,3.17731 -0.78373,1.35566 -2.13939,2.09703 -1.35565,0.74137 -3.00785,0.74137 z m 0,-1.69457 q 1.03792,0 1.94875,-0.48718 0.91083,-0.48719 1.46156,-1.46157 0.57192,-0.97437 0.57192,-2.37239 0,-1.39802 -0.55074,-2.37239 -0.55073,-0.974376 -1.44038,-1.440382 -0.88964,-0.487188 -1.92757,-0.487188 -1.0591,0 -1.94875,0.487188 -0.86846,0.466006 -1.39802,1.440382 -0.52955,0.97437 -0.52955,2.37239 0,1.4192 0.50837,2.39357 0.52955,0.97438 1.39802,1.46157 0.86847,0.466 1.90639,0.466 z"
       style="font-size:25.4px;line-height:1.25;font-family:Poppins;-inkscape-font-specification:Poppins;fill:url(#radialGradient26241);fill-opacity:1;stroke-width:0.220646"
       id="path23086" />
    <path
       d="m 200.77247,96.617563 q 2.11821,0 3.4315,1.292107 1.31329,1.270925 1.31329,3.68568 v 6.84181 h -1.90639 v -6.56644 q 0,-1.73693 -0.86847,-2.647761 -0.86846,-0.932011 -2.37239,-0.932011 -1.52511,0 -2.43594,0.953193 -0.88965,0.953199 -0.88965,2.774849 v 6.41817 h -1.92757 V 96.829384 h 1.92757 v 1.652203 q 0.57192,-0.889648 1.5463,-1.376836 0.99555,-0.487188 2.18175,-0.487188 z"
       style="font-size:25.4px;line-height:1.25;font-family:Poppins;-inkscape-font-specification:Poppins;fill:url(#radialGradient26243);fill-opacity:1;stroke-width:0.220646"
       id="path23088" />
  </g>
</svg>
