<?xml version="1.0" encoding="UTF-8" standalone="no"?> <!-- Created with Vectornator for iOS (http://vectornator.io/) --><!DOCTYPE svg PUBLIC "-//W3C//DTD SVG 1.1//EN" "http://www.w3.org/Graphics/SVG/1.1/DTD/svg11.dtd">
<svg height="100%" style="fill-rule:nonzero;clip-rule:evenodd;stroke-linecap:round;stroke-linejoin:round;" xmlns:xlink="http://www.w3.org/1999/xlink" xmlns="http://www.w3.org/2000/svg" xml:space="preserve" width="100%" xmlns:vectornator="http://vectornator.io" version="1.1" viewBox="0 0 844 390">
<metadata>
<vectornator:setting key="DimensionsVisible" value="1"/>
<vectornator:setting key="PencilOnly" value="1"/>
<vectornator:setting key="SnapToPoints" value="0"/>
<vectornator:setting key="OutlineMode" value="0"/>
<vectornator:setting key="CMYKEnabledKey" value="0"/>
<vectornator:setting key="GuidesVisible" value="1"/>
<vectornator:setting key="SnapToEdges" value="0"/>
<vectornator:setting key="RulersVisible" value="1"/>
<vectornator:setting key="DisplayWhiteBackground" value="0"/>
<vectornator:setting key="doHistoryDisabled" value="0"/>
<vectornator:setting key="TimeLapseWatermarkDisabled" value="0"/>
<vectornator:setting key="SnapToGuides" value="1"/>
<vectornator:setting key="Units" value="Points"/>
<vectornator:setting key="SnapToGrid" value="0"/>
<vectornator:setting key="IsolateActiveLayer" value="0"/>
<vectornator:setting key="DynamicGuides" value="0"/>
</metadata>
<defs/>
<g id="Layer 2" vectornator:layerName="Layer 2" visibility="hidden">
<path d="M-5.17378-15.2678L848.746-15.2678L848.746+398.16L-5.17378+398.16L-5.17378-15.2678Z" opacity="1" fill="#17171a"/>
</g>
<g id="Layer 1" vectornator:layerName="Layer 1">
<path d="M26.5+151.219C20.8975+150.81+16.398+151.529+14.125+153.656C7.89935+159.482+7.47368+177.275+9.75+217.125C9.92874+220.254+10.1148+223.441+10.375+227.688C11.7269+249.752+11.9901+254.149+12.1562+261.469C12.215+264.058+14.3485+266.121+16.9375+266.062C19.5265+266.004+21.59+263.839+21.5312+261.25C21.361+253.752+21.1125+249.331+19.75+227.094C19.4905+222.859+19.3029+219.676+19.125+216.562C18.171+199.862+17.7808+188.094+18+178.656C18.233+168.624+19.3133+162.15+20.4062+160.75C20.6608+160.682+20.9659+160.61+21.4062+160.562C22.7215+160.42+24.4916+160.443+26.5938+160.656C31.2477+161.128+36.8733+162.435+42.25+164.375C54.9811+168.968+63.9453+175.992+65.8438+183.719C68.3722+194.01+61.9872+201.267+48.5+206.375C44.6059+207.85+40.3952+208.985+36.0938+209.875C34.5009+210.205+32.9669+210.486+31.5+210.719C30.9519+210.806+28.7937+211.109+28.9062+211.094C27.7399+211.33+27.7382+211.358+26.3125+212.375C25.1645+213.848+25.156+213.819+24.875+215.25C24.9924+217.16+25.0146+217.166+25.3438+217.812C25.5512+218.242+25.7268+218.516+25.9688+218.812C26.1411+219.023+26.3384+219.213+26.5625+219.438C26.8671+219.743+27.2873+220.146+27.8438+220.656C28.8694+221.597+30.3631+222.941+32.25+224.594C36.0247+227.901+41.1654+232.296+46.5312+236.844C59.3446+247.703+70.5158+256.883+75.6875+260.625C77.7856+262.143+80.732+261.661+82.25+259.562C83.768+257.464+83.2856+254.549+81.1875+253.031C76.2825+249.482+65.213+240.413+52.5938+229.719C47.7453+225.61+43.3295+221.775+39.7188+218.625C43.8674+217.695+47.951+216.588+51.8125+215.125C59.3202+212.281+65.4451+208.591+69.6875+203.781C75.0803+197.667+77.0543+190.116+74.9375+181.5C72.1085+169.986+60.8217+161.113+45.4375+155.562C38.8128+153.173+32.1025+151.627+26.5+151.219Z" opacity="1"/>
<path d="M120.531+186.812C107.977+187.089+98.7056+197.267+95.125+211.719C91.7839+225.204+94.0476+239.853+101.719+248.531C105.551+252.867+113.221+256.966+121+258.219C131.441+259.9+141.475+256.673+149.469+247.688C151.19+245.753+151.029+242.815+149.094+241.094C147.159+239.372+144.19+239.534+142.469+241.469C136.682+247.974+129.879+250.157+122.5+248.969C116.83+248.056+111.122+244.996+108.75+242.312C103.349+236.203+101.561+224.697+104.219+213.969C106.888+203.197+113.11+196.355+120.719+196.188C128.891+196.008+134.227+198.726+137.281+203.375C139.553+206.834+140.291+211.303+139.594+213.375C138.369+217.015+137.315+217.406+128.094+217.594C124.442+217.668+123.05+217.727+120.844+217.844C118.258+217.981+116.269+220.164+116.406+222.75C116.543+225.336+118.726+227.325+121.312+227.188C123.382+227.078+124.732+227.041+128.281+226.969C134.806+226.836+137.269+226.63+140.156+225.562C144.225+224.059+146.92+221.071+148.5+216.375C150.154+211.458+148.921+203.997+145.125+198.219C140.268+190.824+131.884+186.563+120.531+186.812Z" opacity="1" fill="#f4f4f4"/>
<path d="M205.781+198.594C193.801+200.556+183.997+200.961+169.906+199.469C167.331+199.196+165.023+201.05+164.75+203.625C164.477+206.2+166.362+208.509+168.938+208.781C183.906+210.366+194.51+209.936+207.281+207.844C209.837+207.425+211.575+205.024+211.156+202.469C210.738+199.913+208.337+198.175+205.781+198.594Z" opacity="1" fill="#f4f4f4"/>
<path d="M189.625+149.219C187.037+149.114+184.855+151.131+184.75+153.719C184.745+153.838+184.503+160.712+184.438+163.281C184.136+175.144+184.06+187.388+184.281+198.844C184.734+222.278+186.317+237.846+190+244.094C199.278+259.833+217.184+257.831+224.375+239.875C225.338+237.471+224.154+234.744+221.75+233.781C219.346+232.818+216.619+233.971+215.656+236.375C211.289+247.279+203.315+248.169+198.094+239.312C195.629+235.131+194.068+219.973+193.656+198.688C193.438+187.39+193.514+175.266+193.812+163.531C193.877+160.99+194.121+154.203+194.125+154.094C194.23+151.506+192.213+149.324+189.625+149.219Z" opacity="1" fill="#f4f4f4"/>
<path d="M238.062+198.625C235.473+198.607+233.361+200.692+233.344+203.281C233.265+214.764+234.749+225.748+237.781+234.031C241.647+244.589+248.047+250.911+257+250.688C265.816+250.467+272.183+244.396+275.875+234.406C278.858+226.336+280.118+215.65+279.719+204.219C279.628+201.631+277.463+199.597+274.875+199.688C272.287+199.778+270.253+201.974+270.344+204.562C271.098+226.143+265.575+241.093+256.781+241.312C248.409+241.522+242.567+225.551+242.719+203.344C242.736+200.754+240.652+198.643+238.062+198.625Z" opacity="1" fill="#f4f4f4"/>
<path d="M299.438+190.812C296.855+191.007+294.93+193.261+295.125+195.844C295.52+201.09+295.582+207.843+295.531+221.312C295.529+221.871+295.535+222.315+295.531+223.312C295.482+235.537+295.519+240.484+295.719+245.469C295.706+245.742+295.707+245.743+296.062+247.062C296.334+247.708+296.316+247.707+297.25+248.781C299.026+249.98+299.051+249.988+301.594+249.844C303.33+249.075+303.306+249.077+303.938+248.375C304.346+247.846+304.352+247.857+304.531+247.531C304.982+246.418+304.987+246.405+305+246.25C305.032+246.103+305.276+244.687+305.312+244.469C305.571+242.911+305.829+241.442+306.156+239.781C307.143+234.77+308.364+229.844+309.875+225.281C312.434+217.557+315.513+211.834+318.875+208.969C322.205+206.131+325.689+206.211+330.875+210.344C332.9+211.958+335.855+211.619+337.469+209.594C339.083+207.569+338.744+204.614+336.719+203C328.146+196.167+319.693+195.949+312.812+201.812C309.702+204.463+307.078+208.338+304.781+213.031C304.744+206.246+304.756+198.94+304.469+195.125C304.274+192.543+302.02+190.618+299.438+190.812Z" opacity="1" fill="#f4f4f4"/>
<path d="M375.969+193.969C369.938+194.274+365.464+197.864+362.438+203.781C360.791+206.999+359.662+211.118+358.688+215.781C358.62+212.784+358.531+209.824+358.5+206.719C358.482+204.918+358.469+198.871+358.469+198.844C358.476+196.254+356.371+194.163+353.781+194.156C351.192+194.149+349.101+196.254+349.094+198.844C349.094+198.878+349.107+204.99+349.125+206.812C349.174+211.78+349.26+216.705+349.406+221.312C349.603+227.486+349.9+232.699+350.281+236.625C350.507+238.948+350.749+240.81+351.062+242.25C351.26+243.158+351.493+243.944+351.781+244.625C352.38+246.038+353.173+247.106+354.781+247.781C357.129+248.767+359.678+248.282+361.469+246.531C362.555+245.469+363.239+244.13+363.781+242.438C364.461+240.316+364.891+237.72+365.469+233.156C365.569+232.363+366.025+228.657+366.156+227.625C366.437+225.412+366.693+223.604+366.969+221.875C368.931+209.584+371.99+203.569+376.438+203.344C384.427+202.94+387.939+210.123+389.594+227.719C389.785+229.752+389.812+230.458+390.188+235.312C390.448+238.677+390.63+240.611+390.844+242.594C391.122+245.168+393.425+247.028+396+246.75C398.575+246.472+400.434+244.137+400.156+241.562C399.955+239.701+399.816+237.836+399.562+234.562C399.182+229.642+399.105+228.952+398.906+226.844C398+217.209+396.678+210.541+394.062+205.156C390.414+197.646+384.347+193.545+375.969+193.969Z" opacity="1" fill="#f4f4f4"/>
<path d="M468.25+136.188C465.66+136.18+463.538+138.254+463.531+140.844C463.466+164.526+465.924+215.178+468.094+238.125C468.338+240.703+470.609+242.588+473.188+242.344C475.766+242.1+477.65+239.828+477.406+237.25C475.264+214.598+472.841+164.247+472.906+140.875C472.913+138.285+470.84+136.195+468.25+136.188Z" opacity="1" fill="#f4f4f4"/>
<path d="M524.969+182.375C524.367+182.28+523.722+182.313+523.094+182.469C513.811+184.777+505.903+185.958+497.188+186.5C492.154+186.813+488.021+186.9+478.375+186.969C473.945+187+472.28+187.03+469.812+187.062C467.223+187.096+465.154+189.223+465.188+191.812C465.221+194.402+467.348+196.471+469.938+196.438C472.38+196.406+474.026+196.375+478.438+196.344C488.255+196.273+492.52+196.202+497.781+195.875C507.055+195.299+515.532+194.01+525.375+191.562C527.888+190.938+529.406+188.388+528.781+185.875C528.313+183.99+526.774+182.66+524.969+182.375Z" opacity="1" fill="#f4f4f4"/>
<path d="M521.719+130.875C519.135+131.055+517.195+133.292+517.375+135.875C519.025+159.505+522.246+225.832+522.219+235.844C522.212+238.433+524.285+240.555+526.875+240.562C529.465+240.57+531.587+238.465+531.594+235.875C531.622+225.576+528.383+159.061+526.719+135.219C526.538+132.635+524.302+130.695+521.719+130.875Z" opacity="1" fill="#f4f4f4"/>
<path d="M575.969+182.719C574.494+182.766+572.953+182.992+571.375+183.406C558.403+186.816+551.858+200.167+555.188+214.781C556.447+220.31+559.079+226.524+563+230.969C569.327+238.14+578.085+239.574+587.781+233.406C608.025+220.529+598.093+182.016+575.969+182.719ZM576.312+192.156C588.638+192.278+595.216+217.57+582.75+225.5C577.028+229.14+573.364+228.527+570.031+224.75C567.338+221.697+565.287+216.826+564.344+212.688C562.065+202.684+566.094+194.489+573.781+192.469C574.65+192.24+575.491+192.148+576.312+192.156Z" opacity="1" fill="#f4f4f4"/>
<path d="M620.781+178.406C618.193+178.334+616.041+180.38+615.969+182.969C615.899+185.49+615.468+198.156+615.406+200.25C615.084+211.18+615.07+218.771+615.5+224.719C615.771+228.475+616.238+231.412+616.938+233.656C618.1+237.384+620.118+239.958+623.844+239.969C626.17+239.975+627.743+238.698+628.75+236.969C629.237+236.132+629.588+235.177+629.906+234C630.365+232.304+630.741+230.098+631.188+226.906C631.154+227.143+632.81+214.17+633.438+210.188C635.529+196.907+638.498+189.36+641.219+188.5C641.248+188.535+641.247+188.519+641.281+188.562C641.927+189.374+642.65+190.861+643.344+192.875C644.711+196.846+645.859+202.492+646.781+209.469C647.477+214.73+647.98+220.073+648.469+226.625C648.503+227.091+648.803+231.487+648.875+232.375C648.939+233.166+649.008+233.729+649.062+234.156C649.106+234.496+649.147+234.768+649.219+235.062C649.315+235.457+649.42+235.806+649.656+236.25C649.998+236.885+650.008+236.878+651.188+237.938C653.5+238.975+653.506+238.964+656.156+238.125C657.186+237.54+657.709+236.881+658.156+236.031C658.345+235.674+658.483+235.283+658.625+234.875C658.82+234.315+659.01+233.639+659.219+232.781C659.533+231.488+659.859+229.971+660.469+226.969C662.222+218.335+662.884+215.248+664.094+210.469C665.799+203.73+667.576+198.349+669.469+194.5C670.456+192.493+671.444+190.985+672.344+190.062C672.958+189.433+673.321+189.226+673.5+189.219C676.607+189.098+678.954+196.728+679.469+212.094C679.563+214.908+679.606+217.046+679.656+222.188C679.729+229.64+679.809+232.58+680.156+235.469C680.465+238.04+682.804+239.871+685.375+239.562C687.946+239.254+689.778+236.946+689.469+234.375C689.18+231.974+689.1+229.131+689.031+222.094C688.981+216.876+688.941+214.696+688.844+211.781C688.553+203.103+687.808+196.616+686.25+191.531C683.977+184.113+679.747+179.587+673.156+179.844C668.001+180.044+664.222+183.92+661.062+190.344C659.083+194.369+657.317+199.658+655.656+205.844C654.723+199.46+653.643+193.949+652.219+189.812C649.81+182.816+646.47+178.625+641+179C635.39+179.385+631.498+183.519+628.75+190.219C627.054+194.353+625.805+199.734+624.688+206.156C624.725+204.234+624.717+202.72+624.781+200.531C624.843+198.455+625.273+185.77+625.344+183.219C625.416+180.63+623.37+178.478+620.781+178.406Z" opacity="1" fill="#f4f4f4"/>
<path d="M805.5+123.938L805.406+123.969C794.653+124.35+786.516+129.195+782.188+137.125C778.403+144.057+777.976+152.71+780.844+159.938C781.799+162.345+784.53+163.518+786.938+162.562C789.345+161.607+790.518+158.876+789.562+156.469C787.708+151.795+788.009+146.073+790.438+141.625C793.139+136.677+798.205+133.609+805.625+133.312C817.202+133.165+823.177+135.582+825.156+139.531C826.844+142.899+826.19+148.334+823.219+155.625C821.968+158.694+820.35+161.969+818.281+165.812C817.184+167.852+813.544+174.345+812.969+175.406C811.006+179.028+809.994+181.275+809.594+183.25C807.943+191.385+807.558+194.996+807.812+198.812C807.833+199.115+807.954+200.568+807.969+200.75C808.112+202.499+808.161+203.841+808.156+205.719C808.149+208.308+810.254+210.43+812.844+210.438C815.433+210.445+817.524+208.34+817.531+205.75C817.537+203.581+817.475+201.993+817.312+200C817.297+199.806+817.173+198.435+817.156+198.188C816.967+195.351+817.282+192.513+818.781+185.125C818.93+184.394+819.717+182.647+821.219+179.875C821.75+178.894+825.417+172.377+826.562+170.25C828.776+166.137+830.479+162.582+831.875+159.156C835.773+149.59+836.745+141.724+833.531+135.312C829.612+127.493+820.284+123.75+805.5+123.938Z" opacity="1" fill="#f4f4f4"/>
<path d="M814.562+227.188C811.973+227.18+809.882+229.285+809.875+231.875C809.875+232.038+809.816+232.751+809.812+232.812C809.792+233.22+809.793+233.492+809.844+233.906C809.908+234.432+810.055+234.958+810.344+235.531C810.847+236.527+811.702+237.359+812.844+237.812C813.797+238.191+814.691+238.228+815.531+238.062C815.954+237.979+816.292+237.867+816.625+237.719C816.898+237.597+817.078+237.486+817.375+237.312C817.829+237.048+817.912+237.012+818.188+236.875C820.507+235.723+821.464+232.913+820.312+230.594C819.691+229.343+818.562+228.526+817.312+228.188C816.532+227.6+815.614+227.19+814.562+227.188Z" opacity="1" fill="#f4f4f4"/>
<path d="M728.562+169.969C716.532+170.234+707.669+179.953+704.25+193.75C701.065+206.607+703.23+220.58+710.562+228.875C714.234+233.028+721.539+236.96+728.969+238.156C738.948+239.763+748.551+236.678+756.188+228.094C757.909+226.159+757.747+223.19+755.812+221.469C753.878+219.747+750.909+219.94+749.188+221.875C743.758+227.978+737.386+230.02+730.469+228.906C725.147+228.049+719.804+225.157+717.594+222.656C712.532+216.93+710.841+206.1+713.344+196C715.851+185.882+721.665+179.5+728.75+179.344C736.416+179.175+741.401+181.695+744.25+186.031C746.365+189.25+747.042+193.422+746.406+195.312C745.289+198.633+744.368+198.98+735.719+199.156C732.253+199.227+730.939+199.264+728.844+199.375C726.258+199.512+724.269+201.726+724.406+204.312C724.543+206.899+726.758+208.887+729.344+208.75C731.303+208.646+732.544+208.6+735.906+208.531C742.123+208.404+744.477+208.213+747.25+207.188C751.18+205.735+753.792+202.831+755.312+198.312C756.906+193.577+755.732+186.414+752.094+180.875C747.442+173.793+739.409+169.73+728.562+169.969Z" opacity="1" fill="#f4f4f4"/>
</g>
</svg>
