<?xml version="1.0" encoding="UTF-8" standalone="no"?>
<!-- Created with Inkscape (http://www.inkscape.org/) -->

<svg
   width="2560"
   height="12000"
   viewBox="0 0 677.33333 3174.9997"
   version="1.1"
   id="svg2059"
   inkscape:version="1.1 (c4e8f9e, 2021-05-24)"
   sodipodi:docname="endgradient.svg"
   xmlns:inkscape="http://www.inkscape.org/namespaces/inkscape"
   xmlns:sodipodi="http://sodipodi.sourceforge.net/DTD/sodipodi-0.dtd"
   xmlns:xlink="http://www.w3.org/1999/xlink"
   xmlns="http://www.w3.org/2000/svg"
   xmlns:svg="http://www.w3.org/2000/svg">
  <sodipodi:namedview
     id="namedview2061"
     pagecolor="#505050"
     bordercolor="#ffffff"
     borderopacity="1"
     inkscape:pageshadow="0"
     inkscape:pageopacity="0"
     inkscape:pagecheckerboard="1"
     inkscape:document-units="mm"
     showgrid="false"
     units="px"
     inkscape:snap-page="true"
     inkscape:zoom="0.078655531"
     inkscape:cx="425.90775"
     inkscape:cy="4004.8042"
     inkscape:window-width="1440"
     inkscape:window-height="872"
     inkscape:window-x="0"
     inkscape:window-y="28"
     inkscape:window-maximized="0"
     inkscape:current-layer="layer1" />
  <defs
     id="defs2056">
    <linearGradient
       inkscape:collect="always"
       id="linearGradient19346">
      <stop
         style="stop-color:#18212a;stop-opacity:1;"
         offset="0"
         id="stop19342" />
      <stop
         style="stop-color:#18212a;stop-opacity:0;"
         offset="1"
         id="stop19344" />
    </linearGradient>
    <linearGradient
       inkscape:collect="always"
       id="linearGradient17826">
      <stop
         style="stop-color:#0b151e;stop-opacity:1;"
         offset="0"
         id="stop17822" />
      <stop
         style="stop-color:#0b151e;stop-opacity:0;"
         offset="1"
         id="stop17824" />
    </linearGradient>
    <linearGradient
       inkscape:collect="always"
       id="linearGradient17818">
      <stop
         style="stop-color:#0b151e;stop-opacity:1;"
         offset="0"
         id="stop17814" />
      <stop
         style="stop-color:#0b151e;stop-opacity:0;"
         offset="1"
         id="stop17816" />
    </linearGradient>
    <linearGradient
       inkscape:collect="always"
       xlink:href="#linearGradient17818"
       id="linearGradient17820"
       x1="287.35971"
       y1="1233.1786"
       x2="259.15262"
       y2="1331.0219"
       gradientUnits="userSpaceOnUse"
       gradientTransform="translate(3.3333331e-6,204.78113)" />
    <linearGradient
       inkscape:collect="always"
       xlink:href="#linearGradient17826"
       id="linearGradient17828"
       x1="450.43192"
       y1="1378.6213"
       x2="461.00958"
       y2="1315.1554"
       gradientUnits="userSpaceOnUse"
       gradientTransform="translate(3.3333331e-6,204.78113)" />
    <linearGradient
       inkscape:collect="always"
       xlink:href="#linearGradient19346"
       id="linearGradient19348"
       x1="284.71527"
       y1="1228.7712"
       x2="265.32291"
       y2="1301.0519"
       gradientUnits="userSpaceOnUse"
       gradientTransform="translate(3.3333331e-6,204.78113)" />
  </defs>
  <g
     inkscape:label="Layer 1"
     inkscape:groupmode="layer"
     id="layer1">
    <rect
       style="fill:#181c1f;fill-opacity:1;stroke:none;stroke-width:1.05833;stroke-linecap:round;stroke-linejoin:round"
       id="rect2264"
       width="677.33331"
       height="1058.3334"
       x="0"
       y="0" />
    <path
       style="fill:#131619;fill-opacity:1;stroke:none;stroke-width:0.264583px;stroke-linecap:butt;stroke-linejoin:miter;stroke-opacity:1"
       d="M 1.3333333e-5,-1.0470252 C 182.87941,174.16677 300.05365,230.01617 421.6082,212.49479 543.16278,194.97341 677.33333,115.03211 677.33333,115.03211 l -2e-5,1448.42409 H 1.3333333e-5 Z"
       id="path19843" />
    <path
       style="fill:#0f1217;fill-opacity:1;stroke:none;stroke-width:0.264583px;stroke-linecap:butt;stroke-linejoin:miter;stroke-opacity:1"
       d="M 0,52.799744 C 250.42165,469.16345 386.19242,451.06068 487.26621,420.8894 588.34001,390.71811 677.33332,223.26749 677.33332,223.26749 V 1058.3333 L 0,1058.3334 Z"
       id="path2430" />
    <path
       style="fill:#0b1015;fill-opacity:1;stroke:none;stroke-width:0.411717px;stroke-linecap:butt;stroke-linejoin:miter;stroke-opacity:1"
       d="M 0,536.60777 C 354.51258,514.69039 267.01586,1026.0953 438.99216,938.42589 610.96847,850.75644 677.33332,313.78133 677.33332,313.78133 L 677.33333,3175 H 3.3333333e-5 Z"
       id="path3884"
       sodipodi:nodetypes="cscccc" />
    <path
       style="fill:#0b151e;fill-opacity:1;stroke:none;stroke-width:0.264583px;stroke-linecap:butt;stroke-linejoin:miter;stroke-opacity:1"
       d="M 1.5085675,933.90767 C 205.16472,831.3253 143.31359,1090.7983 334.90123,1054.5928 526.48888,1018.3872 524.98032,1197.9064 419.38082,1273.3346 313.78133,1348.7628 3.3333331e-6,1401.5625 3.3333331e-6,1401.5625 Z"
       id="path2616"
       sodipodi:nodetypes="csscc" />
    <path
       style="fill:#18212a;fill-opacity:1;stroke:none;stroke-width:0.264583px;stroke-linecap:butt;stroke-linejoin:miter;stroke-opacity:1"
       d="M 677.33333,901.18112 C 591.35717,1125.9572 547.60879,1368.836 570.23725,1424.6529 c 22.62847,55.8168 107.09608,57.3254 107.09608,57.3254 z"
       id="path3641" />
    <path
       style="fill:#031118;fill-opacity:1;stroke:none;stroke-width:0.264583px;stroke-linecap:butt;stroke-linejoin:miter;stroke-opacity:1"
       d="M 3.3333331e-6,1024.7428 C 245.06758,1188.1212 482.10017,1063.5786 421.83764,1181.4254 361.57513,1299.272 3.3333331e-6,1301.9504 3.3333331e-6,1301.9504 Z"
       id="path5528" />
    <path
       style="fill:#031118;fill-opacity:1;stroke:none;stroke-width:0.264583px;stroke-linecap:butt;stroke-linejoin:miter;stroke-opacity:1"
       d="m 677.33333,1095.2029 c -51.94228,234.3542 -62.53932,304.7819 0,290.5992 z"
       id="path7378"
       sodipodi:nodetypes="csc" />
    <path
       style="fill:#000c13;fill-opacity:1;stroke:none;stroke-width:0.264583px;stroke-linecap:butt;stroke-linejoin:miter;stroke-opacity:1"
       d="M 3.3333331e-6,1094.3795 C 163.37839,1162.677 160.70005,1214.9045 144.63005,1239.0095 128.56004,1263.1145 3.3333331e-6,1263.1145 3.3333331e-6,1263.1145 Z"
       id="path8573" />
    <path
       style="fill:url(#linearGradient17820);fill-opacity:1;stroke:none;stroke-width:0.264583px;stroke-linecap:butt;stroke-linejoin:miter;stroke-opacity:1"
       d="m 192.60942,1410.5844 c 188.05061,-67.2423 205.14613,-22.794 207.42552,18.2353 2.27941,41.0292 -46.72772,116.2494 -101.43336,118.5288 -54.70563,2.2794 -118.52887,-21.6543 -132.20528,-63.8232 -13.67641,-42.1689 26.21312,-72.9409 26.21312,-72.9409 z"
       id="path11436" />
    <path
       style="fill:url(#linearGradient17828);fill-opacity:1;stroke:none;stroke-width:0.264583px;stroke-linecap:butt;stroke-linejoin:miter;stroke-opacity:1"
       d="m 404.5954,1560.4842 c 20.27383,-65.2289 80.21389,-75.8066 101.36921,-51.1254 21.15531,24.6813 7.05178,63.466 -18.51089,81.9769 -25.56269,18.5109 -37.90328,7.9332 -58.17714,2.6444 -20.27383,-5.2888 -24.68118,-33.4959 -24.68118,-33.4959 z"
       id="path13153" />
    <path
       style="fill:url(#linearGradient19348);fill-opacity:1;stroke:none;stroke-width:0.264583px;stroke-linecap:butt;stroke-linejoin:miter;stroke-opacity:1"
       d="m 219.48639,1467.9297 c 13.22207,-56.4142 53.76977,-38.7848 89.91008,-40.5477 36.14034,-1.7629 37.90328,31.733 22.0368,42.3106 -15.86648,10.5777 -38.78474,34.3774 -63.46595,37.0218 -24.6812,2.6444 -54.65123,1.763 -48.48093,-38.7847 z"
       id="path18048"
       sodipodi:nodetypes="csssc" />
  </g>
</svg>
