<?xml version="1.0" encoding="UTF-8" standalone="no"?>
<!-- Created with Inkscape (http://www.inkscape.org/) -->

<svg
   width="64"
   height="64"
   viewBox="0 0 16.933333 16.933333"
   version="1.1"
   id="svg5"
   xmlns="http://www.w3.org/2000/svg"
   xmlns:svg="http://www.w3.org/2000/svg">
  <defs
     id="defs2" />
  <g
     id="layer1">
    <g
       id="g1314"
       transform="scale(0.03572946)">
</g>
    <g
       id="g1316"
       transform="scale(0.03572946)">
</g>
    <g
       id="g1318"
       transform="scale(0.03572946)">
</g>
    <g
       id="g1320"
       transform="scale(0.03572946)">
</g>
    <g
       id="g1322"
       transform="scale(0.03572946)">
</g>
    <g
       id="g1324"
       transform="scale(0.03572946)">
</g>
    <g
       id="g1326"
       transform="scale(0.03572946)">
</g>
    <g
       id="g1328"
       transform="scale(0.03572946)">
</g>
    <g
       id="g1330"
       transform="scale(0.03572946)">
</g>
    <g
       id="g1332"
       transform="scale(0.03572946)">
</g>
    <g
       id="g1334"
       transform="scale(0.03572946)">
</g>
    <g
       id="g1336"
       transform="scale(0.03572946)">
</g>
    <g
       id="g1338"
       transform="scale(0.03572946)">
</g>
    <g
       id="g1340"
       transform="scale(0.03572946)">
</g>
    <g
       id="g1342"
       transform="scale(0.03572946)">
</g>
    <g
       id="g883"
       transform="scale(0.05812643)">
      <path
         id="path824"
         style="fill:#ffffff;stroke-width:0.21969"
         d="M 32 0 C 14.326123 0 0 14.3281 0 32 C -4.7369516e-15 49.6719 14.325903 64 32 64 C 49.674097 64 64 49.672119 64 32 C 64 14.327881 49.674097 0 32 0 z M 21 16 C 22.656027 16 24 17.343973 24 19 C 24 20.656027 22.656027 22 21 22 C 19.343973 22 18 20.656027 18 19 C 18 17.343973 19.343973 16 21 16 z M 41.376953 23.304688 C 44.286973 23.304688 48.013452 24.756714 48.013672 32.630859 L 48.013672 43.966797 L 42.021484 43.966797 L 42.021484 33.076172 C 42.021484 30.84214 41.374031 28.607422 38.746094 28.607422 C 36.118157 28.607422 34.019531 30.842759 34.019531 33.132812 L 34.019531 43.96875 L 28.005859 43.96875 L 28.005859 23.929688 L 34.019531 23.929688 L 34.019531 26.710938 C 35.86537 24.36684 38.468911 23.304688 41.376953 23.304688 z M 18.03125 23.996094 L 24.023438 23.996094 L 24.023438 43.96875 L 18.03125 43.96875 L 18.03125 23.996094 z "
         transform="scale(4.5518593)" />
      <g
         id="g830" />
      <g
         id="g832" />
      <g
         id="g834" />
      <g
         id="g836" />
      <g
         id="g838" />
      <g
         id="g840" />
      <g
         id="g842" />
      <g
         id="g844" />
      <g
         id="g846" />
      <g
         id="g848" />
      <g
         id="g850" />
      <g
         id="g852" />
      <g
         id="g854" />
      <g
         id="g856" />
      <g
         id="g858" />
    </g>
  </g>
</svg>
