<?xml version="1.0" encoding="UTF-8" standalone="no"?> <!-- Created with Vectornator for iOS (http://vectornator.io/) --><!DOCTYPE svg PUBLIC "-//W3C//DTD SVG 1.1//EN" "http://www.w3.org/Graphics/SVG/1.1/DTD/svg11.dtd">
<svg height="100%" style="fill-rule:nonzero;clip-rule:evenodd;stroke-linecap:round;stroke-linejoin:round;" xmlns:xlink="http://www.w3.org/1999/xlink" xmlns="http://www.w3.org/2000/svg" xml:space="preserve" width="100%" xmlns:vectornator="http://vectornator.io" version="1.1" viewBox="0 0 291.042 211.667">
<metadata>
<vectornator:setting key="DimensionsVisible" value="1"/>
<vectornator:setting key="PencilOnly" value="0"/>
<vectornator:setting key="SnapToPoints" value="0"/>
<vectornator:setting key="GuidesVisible" value="1"/>
<vectornator:setting key="OutlineMode" value="0"/>
<vectornator:setting key="CMYKEnabledKey" value="0"/>
<vectornator:setting key="RulersVisible" value="1"/>
<vectornator:setting key="SnapToEdges" value="0"/>
<vectornator:setting key="DisplayWhiteBackground" value="0"/>
<vectornator:setting key="doHistoryDisabled" value="0"/>
<vectornator:setting key="SnapToGuides" value="1"/>
<vectornator:setting key="TimeLapseWatermarkDisabled" value="0"/>
<vectornator:setting key="DynamicGuides" value="0"/>
<vectornator:setting key="IsolateActiveLayer" value="0"/>
<vectornator:setting key="SnapToGrid" value="0"/>
<vectornator:setting key="Units" value="Points"/>
</metadata>
<defs>
<linearGradient y1="444.373" id="LinearGradient" x1="793.273" y2="389.801" x2="683.544" gradientUnits="userSpaceOnUse" gradientTransform="matrix(0.264583 0 0 0.264583 -1.23654 -0.0368011)">
<stop stop-color="#6aca9f" offset="0"/>
<stop stop-color="#42b07f" offset="0.161243"/>
<stop stop-color="#3faf7c" offset="0.787664"/>
<stop stop-color="#6aca9f" offset="1"/>
</linearGradient>
<linearGradient y1="100.275" id="LinearGradient_2" x1="199.105" y2="98.1309" x2="200.924" gradientUnits="userSpaceOnUse" gradientTransform="matrix(1 0 0 1 -1.25458 0.174067)">
<stop stop-color="#6aca9f" offset="0"/>
<stop stop-color="#3eae7b" offset="1"/>
</linearGradient>
</defs>
<g id="layer3" vectornator:layerName="layer3">
<path d="M0+0L291.042+0L291.042+0L291.042+211.667L291.042+211.667L0+211.667L0+211.667L0+0L0+0Z" opacity="1" fill="#202425"/>
</g>
<g id="layer2" vectornator:layerName="layer2">
<path stroke="#3eae7b" stroke-width="0.79375" d="M0+78.8743C16.457+67.7569+20.6786+50.9447+40.9857+47.5373C59.7753+44.3845+65.4131+97.4995+73.9926+102.106C87.9977+109.626+95.5276+85.4948+105.621+89.6316C116.773+94.2018+120.749+96.4523+135.384+94.2518C145.968+92.6605+151.731+84.1777+169.938+87.1203C188.332+90.0929+198.346+103.453+198.346+103.453" fill="none" stroke-linecap="round" opacity="1" stroke-linejoin="round"/>
<path stroke="#3eae7b" stroke-width="0.79375" d="M0+84.166C21.8411+73.9404+40.3361+105.581+52.7205+102.124C66.3447+98.3209+67.8564+62.3004+80.2769+65.3831C92.1356+68.3263+96.6117+94.6919+105.763+98.4425C127.633+107.406+151.654+88.8267+169.938+92.4119C188.223+95.9971+195.289+105.527+195.289+105.527" fill="none" stroke-linecap="round" opacity="1" stroke-linejoin="round"/>
<path stroke="#3eae7b" stroke-width="0.79375" d="M0+89.4576C17.63+73.2391+31.9954+62.5418+43.5758+65.0146C58.7653+68.258+65.2483+104.059+72.0002+108.069C87.3668+117.196+90.6932+71.5552+102.87+71.6798C114.719+71.8009+115.408+91.9041+127.065+87.3084C138.789+82.686+142.786+99.9924+161.346+96.8335C179.714+93.7072+193.251+112.052+193.251+112.052" fill="none" stroke-linecap="round" opacity="1" stroke-linejoin="round"/>
<path stroke="#3eae7b" stroke-width="0.79375" d="M0+94.7493C73.7502+80.8804+85.0323+86.6832+106.902+95.6462C128.772+104.609+151.654+99.4101+169.938+102.995C188.223+106.58+196.469+113.751+196.469+113.751" fill="none" stroke-linecap="round" opacity="1" stroke-linejoin="round"/>
<path stroke="#3eae7b" stroke-width="0.79375" d="M0+100.041C69.1954+100.406+85.3169+77.4565+107.187+86.4195C129.056+95.3825+151.654+104.702+169.938+108.287C188.223+111.872+193.895+111.106+193.895+111.106" fill="none" stroke-linecap="round" opacity="1" stroke-linejoin="round"/>
</g>
<g id="layer1" vectornator:layerName="layer1">
<path d="M213.786+77.2961C212.806+77.3066+208.862+78.8911+208.39+78.9657C207.868+79.0481+206.441+78.8287+205.398+78.8836C204.355+78.9384+202.325+79.3502+201.803+78.8288C201.282+78.3073+199.733+77.681+199.733+77.681C199.118+77.4394+199.553+78.3618+200.019+79.7889C200.486+81.216+199.608+81.5178+199.251+83.1644C198.894+84.8111+197.686+86.8149+197.247+89.1201C196.808+91.4254+196.397+93.511+196.122+96.0908C195.848+98.6705+193.652+101.085+192.335+102.073C191.018+103.061+187.368+103.912+185.639+104.022C183.91+104.132+181.879+103.858+180.589+103.913C179.299+103.967+177.405+105.422+176.253+105.532C175.1+105.641+171.972+105.477+171.121+105.532C170.27+105.586+169.94+105.257+169.748+104.489C169.556+103.72+168.815+103.199+168.322+103.281C167.828+103.363+167.031+103.501+167.196+105.833C167.361+108.166+168.87+109.127+169.364+109.017C169.858+108.907+170.105+108.687+170.929+108.687C171.752+108.687+172.273+109.401+173.152+109.374C174.03+109.346+177.707+109.538+180.809+110.224C183.91+110.91+188.218+114.204+188.932+116.097C189.645+117.991+192.746+119.967+193.762+120.461C194.777+120.955+196.973+121.476+197+124.33C197.028+127.185+197.357+128.255+198.675+128.557C199.992+128.859+202.901+129.957+204.794+131.274C206.688+132.591+208.362+131.878+208.719+131.137C209.076+130.396+208.719+129.326+207.649+128.777C206.579+128.228+204.273+127.075+202.983+126.636C201.693+126.197+202.928+123.727+203.697+121.669C204.465+119.61+204.218+118.073+204.191+116.619C204.163+115.164+204.657+115.905+206.716+114.066C208.774+112.228+209.762+109.593+209.954+108.193C210.073+107.325+209.886+105.676+210.408+104.843C210.41+104.829+210.411+104.815+210.413+104.8C210.739+104.323+211.32+104.143+212.372+104.598C215.226+105.833+218.794+106.19+220.688+106.218C222.581+106.245+224.694+107.562+225.902+107.946C227.109+108.331+229.936+111.185+230.787+109.593C231.638+108.002+230.183+106.382+229.168+105.641C228.152+104.9+225.655+103.995+224.749+103.666C223.844+103.336+220.743+101.58+217.888+100.317C215.423+99.227+214.618+97.3626+214.303+96.6261C214.308+96.6185+214.313+96.6108+214.318+96.6034C214.272+96.4968+214.237+96.4146+214.208+96.3652C213.989+95.981+212.507+90.6844+212.315+90.163C212.123+89.6415+211.931+88.5162+212.644+87.6928C213.358+86.8695+213.386+84.7015+213.248+83.8233C213.111+82.9451+212.315+81.5729+212.836+80.7496C213.358+79.9263+214.318+77.7309+213.989+77.3467C213.958+77.3107+213.889+77.295+213.787+77.2961L213.786+77.2961Z" opacity="1" fill="url(#LinearGradient)"/>
<path d="M196.708+95.4621C195.823+100.04+196.4+100.617+194.169+101.81C191.937+103.002+189.53+103.705+188.475+104.195C186.958+104.9+185.936+106.233+185.667+107.195C185.398+108.157+185.667+109.58+186.667+109.734C187.667+109.888+188.283+109.58+188.744+108.58C189.206+107.58+191.553+107.195+193.284+106.849C195.015+106.503+197.554+106.426+198.362+106.31C199.17+106.195+200.439+105.195+200.593+102.233C200.747+99.2705+200.747+99.2705+200.747+99.2705" opacity="1" fill="url(#LinearGradient_2)"/>
<path d="M186.206+104.24C185.637+93.2244+190.324+83.743+191.932+83.743C193.539+83.743+193.606+85.8858+193.17+87.5933C192.735+89.3008+190.726+94.2895+190.76+98.1064C190.793+101.923+191.048+103.034+191.048+103.034" opacity="1" fill="#6aca9f"/>
</g>
</svg>
