<?xml version="1.0" encoding="UTF-8" standalone="no"?> <!-- Created with Vectornator for iOS (http://vectornator.io/) --><!DOCTYPE svg PUBLIC "-//W3C//DTD SVG 1.1//EN" "http://www.w3.org/Graphics/SVG/1.1/DTD/svg11.dtd">
<svg height="100%" style="fill-rule:nonzero;clip-rule:evenodd;stroke-linecap:round;stroke-linejoin:round;" xmlns:xlink="http://www.w3.org/1999/xlink" xmlns="http://www.w3.org/2000/svg" xml:space="preserve" width="100%" xmlns:vectornator="http://vectornator.io" version="1.1" viewBox="0 0 844 390">
<metadata>
<vectornator:setting key="DimensionsVisible" value="1"/>
<vectornator:setting key="PencilOnly" value="0"/>
<vectornator:setting key="SnapToPoints" value="0"/>
<vectornator:setting key="GuidesVisible" value="1"/>
<vectornator:setting key="CMYKEnabledKey" value="0"/>
<vectornator:setting key="RulersVisible" value="1"/>
<vectornator:setting key="SnapToEdges" value="0"/>
<vectornator:setting key="OutlineMode" value="0"/>
<vectornator:setting key="DisplayWhiteBackground" value="0"/>
<vectornator:setting key="doHistoryDisabled" value="0"/>
<vectornator:setting key="SnapToGuides" value="1"/>
<vectornator:setting key="TimeLapseWatermarkDisabled" value="0"/>
<vectornator:setting key="Units" value="Points"/>
<vectornator:setting key="IsolateActiveLayer" value="0"/>
<vectornator:setting key="DynamicGuides" value="0"/>
<vectornator:setting key="SnapToGrid" value="0"/>
</metadata>
<defs/>
<g id="Layer 2" vectornator:layerName="Layer 2">
<path d="M-7.19218-7.4765L850.783-7.4765L850.783+404.991L-7.19218+404.991L-7.19218-7.4765Z" opacity="1" fill="#17171a"/>
<path stroke="#ffffff" stroke-width="4.22" d="M150.425+214.976C167.193+219.72+195.859+211.195+200.433+209.042" fill="none" stroke-linecap="round" opacity="1" stroke-linejoin="round"/>
<path stroke="#ffffff" stroke-width="4.22" d="M191.337+165.261C178.265+187.641+153.191+265.798+179.555+269.522C196.384+271.898+195.368+256.455+200.173+247.667" fill="none" stroke-linecap="round" opacity="1" stroke-linejoin="round"/>
</g>
<g id="Layer 1" vectornator:layerName="Layer 1">
<g opacity="1">
<path stroke="#f4f4f4" stroke-width="4.22074" d="M8.77055+175.453C10.2228+190.485+14.9564+269.336+12.6447+265.648C4.32738+252.381+10.1937+234.195+12.2546+218.673C19.8377+161.558+50.028+145.163+90.306+160.662" fill="none" stroke-linecap="round" opacity="1" stroke-linejoin="round"/>
<g opacity="1"/>
<path stroke="#f4f4f4" stroke-width="4.22074" d="M236.443+212.5C234.574+225.022+224.002+264.361+253.328+263.311C281.592+262.298+276.513+225.901+278.898+209.92" fill="none" stroke-linecap="round" opacity="1" stroke-linejoin="round"/>
<path stroke="#f4f4f4" stroke-width="4.22074" d="M325.854+211.939C309.115+216.91+303.391+220.097+303.568+238.357C303.6+241.601+305.27+258.939+305.42+261.228" fill="none" stroke-linecap="round" opacity="1" stroke-linejoin="round"/>
<path stroke="#f4f4f4" stroke-width="4.22074" d="M353.666+207.905C351.952+219.384+351.345+248.773+349.632+260.252C348.632+266.95+355.322+201.978+384.367+206.038C404.312+208.826+393.446+250.451+403.128+257.244" fill="none" stroke-linecap="round" opacity="1" stroke-linejoin="round"/>
<path stroke="#f4f4f4" stroke-width="4.22074" d="M480.135+119.715C471.825+145.363+476.271+256.593+477.437+255.73C487.333+248.404+500.162+186.12+516.018+188.878C530.308+191.364+519.988+238.899+533.173+250.846" fill="none" stroke-linecap="round" opacity="1" stroke-linejoin="round"/>
<path stroke="#f4f4f4" stroke-width="4.22074" d="M571.849+209.137C555.505+213.697+541.233+264.308+575.431+251.477C593.967+244.522+599.703+201.366+571.849+209.137Z" fill="none" stroke-linecap="round" opacity="1" stroke-linejoin="round"/>
<path stroke="#f4f4f4" stroke-width="4.22074" d="M612.212+195.487C609.682+203.364+613.413+255.301+613.557+255.347C616.404+256.261+614.955+206.51+628.422+201.856C648.489+194.921+641.459+251.052+642.679+249.983C650.723+242.934+648.502+203.367+661.754+202.961C675.006+202.554+672.986+238.432+674.006+245.049" fill="none" stroke-linecap="round" opacity="1" stroke-linejoin="round"/>
<path stroke="#f4f4f4" stroke-width="4.22074" d="M709.816+227.739C713.896+227.765+725.881+223.757+728.297+221.707C746.9+205.916+719.974+199.832+709.798+204.295C680.247+217.255+696.534+263.07+730.947+244.228" fill="none" stroke-linecap="round" opacity="1" stroke-linejoin="round"/>
<path stroke="#f4f4f4" stroke-width="4.22074" d="M769.067+138.84C776.138+120.825+795.942+106.767+815.672+107.136C820.902+107.234+833.558+108.739+835.276+115.852C838.227+128.073+824.318+145.686+818.617+154.786C802.504+180.509+772.036+219.179+796.475+248.264" fill="none" stroke-linecap="round" opacity="1" stroke-linejoin="round"/>
<path stroke="#f4f4f4" stroke-width="4.22074" d="M795.182+270.065C794.329+263.256+813.624+276.857+797.461+282.133C796.45+282.463+795.237+283.22+794.319+282.684C790.315+280.345+791.389+266.949+797.55+267.869C804.231+268.866+803.153+280.066+797.356+275.999C795.568+274.744+795.493+272.542+795.182+270.065Z" fill="none" stroke-linecap="round" opacity="1" stroke-linejoin="round"/>
<path stroke="#f4f4f4" stroke-width="4.22074" d="M97.7793+234.419C103.247+234.453+119.307+229.083+122.544+226.336C147.471+205.177+111.391+197.025+97.7561+203.004C58.1581+220.371+79.9821+281.761+126.095+256.513" fill="none" stroke-linecap="round" opacity="1" stroke-linejoin="round"/>
</g>
</g>
</svg>
